<svg xmlns="http://www.w3.org/2000/svg" width="176" height="45" viewBox="0 0 176 45" fill="none">
  <path d="M99.6784 23.3638C99.6254 23.6089 99.473 23.8143 99.3339 23.8143L99.2477 23.8607C98.764 24.1324 98.2339 24.3312 97.7039 24.5299L97.525 24.5962C97.3461 24.7022 97.0081 24.8745 96.7696 24.9805C96.5311 25.0865 95.948 25.3383 95.7293 25.4244C95.5107 25.5106 95.0336 25.8551 94.921 25.875C94.8083 25.8949 94.3843 26.1997 94.0199 26.3256C93.6554 26.4515 92.8139 26.9948 92.7079 26.9882C92.6019 26.9815 92.3037 27.1671 92.2176 27.2466C92.1315 27.3261 91.7737 27.5447 91.6676 27.5845C91.5616 27.6243 91.1376 27.8164 90.9719 27.9158C90.8063 28.0152 90.1901 28.4061 89.9184 28.5254C89.6467 28.6447 88.8052 28.976 88.6794 29.0952L88.5998 29.1217L88.2818 29.2211C87.9969 29.4133 87.4072 29.7578 86.9699 29.9897L86.5723 30.2084C86.3868 30.3078 86.2079 30.427 86.0025 30.4933L85.5983 30.6324C85.2007 30.8975 84.7899 31.0963 84.6905 31.0631C84.5911 31.03 84.3129 31.3083 84.2267 31.3944C84.1406 31.4806 83.7695 31.6595 83.637 31.6793C83.5045 31.6992 83.0075 31.8251 82.7028 31.8251L82.6895 32.1564C82.6895 32.2293 82.398 32.3088 82.2257 32.3485L82.1727 32.3618C82.06 32.3485 81.8083 32.5009 81.6095 32.7064C81.4107 32.9118 80.4632 33.2364 80.2777 33.3424C80.0921 33.4485 79.7211 33.8526 79.6946 33.7864C79.6681 33.7201 79.5554 33.6936 79.4958 33.8261C79.4362 33.9587 78.9922 34.0779 78.9989 34.1243C79.0055 34.1707 78.9326 34.2568 78.8266 34.2104L78.7206 34.1839C78.6874 34.1773 78.6212 34.1839 78.5947 34.2104C78.4754 34.3297 78.3893 34.5351 78.2501 34.5616L78.0381 34.5947C77.8592 34.6809 77.5279 34.8532 77.3026 34.9724C77.0773 35.0917 76.0967 35.635 75.666 35.9332L75.2552 36.185C75.1691 36.238 75.0697 36.2976 74.9637 36.3175C74.8245 36.344 74.6589 36.3042 74.533 36.3506C74.4601 36.3771 74.4667 36.5229 74.3938 36.5825L74.3143 36.6554C74.1951 36.715 74.0559 36.8277 74.0029 36.8939H73.9499L73.7445 36.9072C73.6186 37.0331 73.4596 37.212 73.3867 37.3114C73.3138 37.4108 72.85 37.2915 72.6976 37.3445L72.6777 37.4174L72.6181 37.6692C72.3597 37.7354 72.0946 37.8481 72.0284 37.921C71.9621 37.9938 71.6176 38.08 71.4254 38.1065L71.3592 38.3185L71.2929 38.5305C71.0279 38.6697 70.7959 38.7757 70.7694 38.7691C70.7429 38.7625 70.6303 38.7094 70.5574 38.6763C70.4845 38.6432 70.2394 38.8884 70.1466 38.9811C70.0538 39.0739 69.5105 39.3654 69.1925 39.5178L68.9341 39.7166L68.669 39.9154C68.2913 40.0545 67.8739 40.2665 67.7281 40.3924C67.5824 40.5183 67.0125 40.6243 66.9794 40.6773C66.9463 40.7304 66.4427 41.0617 65.9723 41.3333L65.5416 41.446C65.4091 41.4791 65.2103 41.4526 65.1374 41.5188L64.9254 41.7309C64.6471 41.9164 64.2694 41.9694 64.0839 41.8568L63.9845 42.1417L63.9447 42.2609C63.7658 42.3603 63.5339 42.473 63.4412 42.5061C63.3484 42.5392 62.7852 42.6983 62.4208 42.8043C62.0563 42.9103 61.0558 43.4669 60.8438 43.5795L60.6384 43.6391L59.83 43.8711C58.9819 44.2023 58.0344 44.5336 57.7296 44.6065C57.4248 44.6794 56.6098 44.9047 56.5767 44.8782C56.5436 44.8517 56.3713 44.8384 56.2653 44.8451C56.1593 44.8517 55.8346 44.8384 55.8147 44.7722C55.7948 44.7059 55.6226 44.5138 55.4768 44.5734C55.331 44.633 54.9798 44.6794 54.9931 44.5469C55.0063 44.4144 54.516 44.5933 54.3438 44.527C54.1715 44.4608 53.6679 44.3746 53.6149 44.4939L53.5288 44.5071L53.0186 44.5933C52.4487 44.6198 51.9584 44.633 51.9319 44.6264C51.9054 44.6198 51.7729 44.5071 51.6735 44.4144C51.5741 44.3216 50.885 44.2951 50.461 44.0234L50.4344 43.6988C50.4344 43.6524 50.6332 42.9898 50.6597 42.95L50.7061 42.8705C50.7525 42.7778 50.8121 42.5922 50.8386 42.4597C50.8651 42.3272 50.8651 41.8965 50.7724 41.8038C50.6796 41.711 50.3019 41.764 50.3019 41.5652C50.3019 41.3664 50.123 40.8032 49.9044 40.7237C49.6857 40.6442 49.2948 40.0943 49.0032 40.0346L49.1689 39.6967L49.2484 39.5311C49.2086 39.3058 49.1093 38.8817 49.0297 38.5836C48.9502 38.2854 48.3672 37.0795 48.1154 36.4699L47.8437 35.9266L47.8172 35.8735C47.8702 35.7874 47.9431 35.529 47.9828 35.2905C48.0226 35.0519 47.8172 34.4291 47.8172 34.396C47.8172 34.3628 47.8636 34.2634 47.9232 34.1707C47.9829 34.0779 48.0094 33.7334 47.857 33.6804C47.7046 33.6274 47.3468 34.0845 47.0883 34.2303C46.8299 34.3761 45.7102 35.0056 45.1469 35.3103C44.5837 35.6151 43.073 36.5361 42.9405 36.5891C42.808 36.6422 42.1322 36.9735 41.728 37.1656C41.3238 37.3578 40.204 38.0667 39.9853 38.1661C39.7667 38.2655 39.071 38.7028 38.8457 38.7956C38.6204 38.8883 37.9181 39.1865 37.7988 39.2461C37.6795 39.3058 37.1826 39.5642 36.944 39.6768C36.7055 39.7895 35.8176 40.0943 35.5592 40.1937C35.3008 40.293 34.4858 40.6111 34.3268 40.6773C34.1678 40.7436 33.3992 40.5382 33.3329 40.5117C33.2667 40.4852 33.0944 40.5647 33.1805 40.5912C33.2667 40.6177 33.4323 40.7834 33.3197 40.8695H33.2733L32.942 40.9291C32.5643 40.9689 32.2131 40.9888 32.1601 40.9821C32.1071 40.9755 31.7427 40.8761 31.471 40.8032C31.1994 40.7304 30.4573 40.5051 30.497 40.2202L30.1458 40.028L29.9338 39.9087C29.7748 39.657 29.7151 39.4648 29.7947 39.4913C29.8742 39.5178 30.1525 39.5377 30.1591 39.4582C30.1657 39.3787 30.126 39.16 30.0464 39.1666L30.0199 39.1865L29.841 39.319C29.6423 39.2528 29.258 38.9944 28.9863 38.7492L28.7941 38.4974L28.7213 38.4047C28.7743 38.239 28.7279 38.0734 28.6219 38.0402C28.5159 38.0071 28.6815 37.7686 28.6815 37.7421C28.6815 37.7156 28.443 37.5698 28.1647 37.424L28.2044 37.1325C28.2309 36.9536 28.1647 36.8078 27.9858 36.6952L27.8533 36.609C27.681 36.4566 27.6876 36.3042 27.8798 36.2645C28.0719 36.2247 28.496 35.9729 28.5689 35.8735C28.6417 35.7742 28.9532 35.582 29.1519 35.6151L29.258 35.5621C29.4302 35.4826 29.5495 35.3236 29.7152 35.2176L29.8212 35.1447C29.9669 35.0983 30.3579 35.0122 30.6892 34.9525L30.7157 34.4954V34.4026C30.7157 34.3098 30.8084 34.2833 30.9211 34.343C31.0337 34.4026 31.3518 34.2369 31.312 33.9852H31.7493C31.8222 33.9852 31.915 33.8593 31.9613 33.7798L31.9812 33.74C31.9216 33.6671 31.8487 33.6274 31.8156 33.6539C31.7824 33.6804 31.6168 33.6539 31.6698 33.4286L31.7361 33.2961C31.7692 33.2298 31.8354 33.1569 31.9945 33.2431L32.1071 33.3093C32.2926 33.2894 32.7034 33.1238 33.0082 32.9383L32.995 32.6268V32.5672C32.995 32.5009 33.048 32.4082 33.1076 32.3684C33.1673 32.3287 33.366 32.2757 33.3727 32.3684L33.4124 32.4612C33.4323 32.5142 33.5118 32.5805 33.5714 32.5871C33.6311 32.5871 33.7503 32.5341 33.757 32.4943L33.7967 32.2823C33.9624 32.1034 34.1081 31.9179 34.128 31.8715V31.6131C34.3666 31.5004 34.6117 31.3812 34.678 31.3547C34.7442 31.3282 34.996 31.2884 35.0888 31.2818C35.1815 31.2751 35.1484 31.083 35.0888 31.0499C35.0292 31.0167 34.8237 30.7451 34.9761 30.6391C35.1285 30.533 35.7381 30.5662 35.7911 30.4403C35.8441 30.3144 36.3543 30.109 36.4736 29.9897L36.6194 29.9102C36.7983 29.8108 36.8314 29.7114 36.6393 29.5922C36.626 29.5855 36.7121 29.4199 36.785 29.4L36.9904 29.3337C37.2555 29.2874 37.4874 29.3139 37.5072 29.3934C37.5271 29.4729 37.6663 29.4994 37.7789 29.2609L37.5603 29.029L37.4476 28.9097C37.6265 28.9229 38.0174 28.8037 38.3156 28.6513L38.4084 28.3995L38.4283 28.3399C38.2692 28.2272 38.203 28.1013 38.2891 28.0549C38.3752 28.0086 38.5541 27.8098 38.4216 27.7634L38.3752 27.7899L38.0903 27.9423C37.7855 28.1212 37.4609 28.3597 37.3615 28.479C37.2621 28.5983 36.8513 28.744 36.8248 28.6977C36.7983 28.6513 36.6658 28.5453 36.5929 28.638C36.52 28.7308 36.3212 28.9229 36.2881 28.9031C36.2549 28.8832 36.2682 28.9693 36.3875 29.1615C36.5067 29.3536 35.7779 29.4928 35.811 29.4265C35.8441 29.3603 35.9038 29.1283 35.8574 29.135C35.811 29.1416 35.3339 29.3868 34.8304 29.6584C34.3268 29.9301 32.6041 30.9173 32.1137 31.2288L31.6367 31.4739L31.206 31.6926C30.7687 31.9642 30.1061 32.3419 29.735 32.5275L29.4634 32.7859L29.1917 33.0509C28.7941 33.2762 28.3038 33.5412 28.0984 33.6406C27.893 33.74 27.2304 34.1574 26.972 34.2701C26.7136 34.3827 25.6468 35.0387 25.0902 35.3567L24.5933 35.6483L24.3548 35.7874C24.103 35.8404 23.7187 36.079 23.5133 36.3241H23.3277L22.7645 36.3042C22.3736 36.5891 21.817 36.9072 21.5387 37.0066C21.2605 37.106 20.4587 37.6559 20.2069 37.7089C19.9551 37.7619 19.4052 38.345 19.1998 38.4842C18.9944 38.6233 18.1993 38.7691 18.0866 38.8287L18.0336 38.9082L17.8415 39.1998C17.4638 39.3389 16.9602 39.5178 16.7217 39.604C16.4832 39.6901 15.7808 40.1075 15.6019 40.2069L15.4296 40.2864C15.3369 40.3328 15.211 40.3394 15.1248 40.3924C14.8466 40.5581 14.608 40.8165 14.3032 40.8828L13.9984 40.949C13.7069 41.0683 13.2033 41.2671 12.8786 41.3797C12.554 41.4923 11.5866 41.3797 11.5137 41.4393C11.4408 41.499 11.1228 41.605 10.977 41.5387C10.8312 41.4725 10.3012 41.2936 10.109 41.2008C9.91686 41.108 9.12837 41.5387 8.67118 41.6381L8.22724 41.658L7.85619 41.6779C7.51164 41.5719 7.09421 41.2936 6.93519 41.0617L6.98157 40.896L7.06108 40.6045C7.14722 40.2864 7.22673 39.9087 7.23335 39.7563C7.23998 39.604 6.74303 39.4184 6.69665 39.3919C6.65027 39.3654 6.41836 39.266 6.31235 39.2064C6.20633 39.1468 6.1467 38.7691 6.1467 38.6432C6.1467 38.5173 6.10032 38.1661 6.04731 38.133H6.02743L5.84853 38.1727C5.64975 38.2191 5.53711 38.1462 5.59012 38.0204L5.41785 37.8746L5.23895 37.7222C5.15944 37.4704 4.90765 36.8211 4.68237 36.2844L4.45046 35.8007L4.37095 35.635C4.2053 35.4826 3.98002 35.2375 3.874 35.0983C3.76799 34.9592 3.48307 34.4225 3.43669 34.2237L3.37706 34.0448C3.32405 33.8924 3.16503 33.7864 3.19816 33.5876L3.21804 33.4485C3.08552 33.2762 2.953 33.0907 2.91324 33.0443L2.9265 33.0111L3.01263 32.8256C3.02588 32.607 3.02588 32.3353 3.01263 32.216C2.99938 32.0968 3.21804 31.5468 3.34393 31.1294L3.70836 30.8378C3.77462 30.7848 3.68185 30.6059 3.74811 30.5463L3.85413 30.4469C4.0264 30.3806 4.14567 30.3078 4.11916 30.2813C4.09266 30.2548 4.09929 30.1686 4.21855 30.162C4.33782 30.1554 4.43721 29.7446 4.51672 29.5922C4.59623 29.4398 4.70225 29.1747 4.62274 29.0488L4.78838 28.9627L4.88777 28.9097C4.90765 28.8236 4.96728 28.7242 5.02692 28.6844L5.07992 28.6513L5.26545 28.5386C5.15281 28.3929 5.23232 28.214 5.4311 28.1543C5.62988 28.0947 5.82203 27.5779 5.88166 27.4255C5.9413 27.2731 6.37198 27.0279 6.52438 26.9815L6.34548 26.8358C6.31235 26.8093 6.36536 26.6502 6.37861 26.6502L6.76954 26.6304C6.82255 26.372 6.98157 26.0208 7.11409 25.8419C7.24661 25.663 7.51827 25.1263 7.58453 25.1528C7.65079 25.1793 7.9357 25.1329 8.08147 25.0004C8.22724 24.8679 8.57842 24.4372 8.49228 24.3908C8.40614 24.3444 8.10798 24.2185 8.07485 24.2649C8.04172 24.3113 7.83631 24.3643 7.76343 24.1854L7.67067 24.1456L7.5514 24.0993C7.3725 24.1191 7.09421 24.1523 6.92856 24.1854C6.76291 24.2185 6.1732 23.98 5.88829 23.9601C5.60337 23.9402 4.742 24.1523 4.60286 24.192C4.46371 24.2318 4.08603 23.7812 4.39083 23.4035L4.00652 22.9795L3.92701 22.8867C3.96677 22.7078 3.92701 22.5488 3.83425 22.5422C3.74149 22.5355 3.5162 22.4958 3.49633 22.4693C3.47645 22.4428 3.4632 22.3103 3.45657 22.2175C3.44994 22.1247 3.46982 21.7934 3.48307 21.6874C3.49633 21.5814 3.1584 21.3495 3.16503 21.2037L3.08552 21.1507C2.97288 21.0712 2.76747 21.0778 2.61508 21.0315L2.48918 20.9917C2.33679 20.9188 2.21752 20.6472 2.23077 20.3954C2.24402 20.1436 1.73383 19.5539 1.72058 19.5141L1.74045 19.4942L2.10488 19.1033C1.71395 18.9178 1.21038 18.5997 0.998349 18.4076L0.971845 18.1757L0.938715 17.8908C0.951967 17.5595 0.912211 17.3143 0.852578 17.3342C0.792945 17.3541 0.647174 17.3077 0.633922 17.1884L0.680304 17.1685C0.826074 17.1023 1.25013 17.1155 0.700181 16.9963C0.673678 16.9963 0.640548 16.9698 0.633922 16.9499C0.574289 16.5258 0.527907 16.1084 0.826074 15.7241C0.885708 15.6446 1.04473 15.6181 1.13749 15.5452C1.25013 15.459 1.44229 15.3 1.42241 15.2735C1.164 14.9687 1.61456 15.1675 1.64769 15.0615C1.68745 14.9091 1.74708 14.7434 1.86635 14.6308C2.09163 14.4254 2.35004 14.2531 2.61508 14.0808L2.7741 13.9748C2.86686 13.8224 3.18491 13.4381 3.47645 13.1135L4.01315 13.193H4.05953C4.12579 13.1333 4.25168 12.9876 4.34445 12.8882C4.43721 12.7888 4.77513 12.6165 4.82151 12.5039C4.86789 12.3912 5.38472 12.3912 5.55037 12.2985C5.71601 12.2057 5.97443 11.8877 6.14007 12.0334L6.31235 11.8082L6.3256 11.7949C6.19971 11.6955 6.20633 11.6094 6.34548 11.6094C6.48462 11.6094 6.78942 11.5034 6.74966 11.3708L6.78942 11.298L6.89543 11.1058C7.12734 11.1191 7.33274 11.0594 7.33937 10.9733C7.34599 10.8871 7.59778 10.695 7.76343 10.6089C7.92908 10.5227 8.52541 10.4101 8.71094 10.3637C8.89646 10.3173 9.24764 9.99265 9.3404 9.96614C9.43316 9.93964 9.7247 9.91313 9.71808 9.78062L9.73133 9.68785V9.6481C9.77109 9.60172 10.0693 9.54871 10.3939 9.52883V9.19091C10.6921 9.1379 11.1095 8.9855 11.3282 8.84636L11.5402 8.73372L11.6727 8.66083C11.8516 8.66083 12.1167 8.6012 12.2691 8.52169L12.4148 8.45543C12.5871 8.38254 12.766 8.31628 12.9317 8.23677C13.0774 8.16389 13.2033 8.0645 13.3491 7.99824C13.4419 7.95848 13.5677 7.95848 13.6804 7.94523C14.0117 7.90548 14.3099 7.84584 14.4556 7.54105C14.5153 7.41516 14.6809 7.30914 14.8333 7.23626C14.8929 7.20313 14.9857 7.42841 15.1513 7.26276L15.2839 7.13024C15.476 7.0176 15.7676 7.01098 15.9266 7.11036L16.0591 6.91821C16.0989 6.8652 16.1452 6.8122 16.1784 6.75919L16.2049 6.71943C16.2314 6.67305 16.3771 6.6333 16.5229 6.62667C16.6687 6.62005 17.0464 6.39476 17.159 6.42127C17.2716 6.44777 17.5301 6.22249 17.6493 6.25562L17.762 6.18936C17.8017 6.16286 17.8945 6.17611 17.921 6.1496L18.2854 5.65928C18.948 5.40087 19.5642 5.14909 19.6437 5.10271C19.7232 5.05632 20.1075 4.97019 20.3262 4.89068C20.5449 4.81117 21.0418 4.47987 21.1346 4.53288C21.2273 4.58588 21.5653 4.6919 21.7309 4.51962L21.9297 4.45336L22.1285 4.38711C22.4134 4.41361 22.6121 4.38711 22.5658 4.32085C22.5194 4.25459 22.5724 4.04918 22.8109 4.04256L22.9236 3.96967L23.0693 3.87028C23.1687 3.92992 23.447 3.87028 23.6988 3.73114L23.9307 3.61187L24.0036 3.57212C24.1295 3.59199 24.1891 3.65825 24.1295 3.71126L24.0897 3.77089C24.0897 3.77089 24.1626 3.8504 24.1957 3.84378H24.2753C24.3548 3.80402 24.4674 3.61187 24.527 3.40647L24.7987 3.32696C25.2691 3.18781 25.8058 3.18119 26.1636 2.83001C26.1902 2.80351 26.2763 2.82338 26.3359 2.83001L26.5347 2.84989C26.7534 2.87639 27.0118 2.84989 27.0979 2.80351C27.184 2.75713 27.6147 2.61135 27.84 2.5451C28.0653 2.47884 28.6152 2.25355 28.6948 2.30656C28.7743 2.35957 29.0327 2.47884 29.0393 2.42583C29.0459 2.37282 29.2911 2.29331 29.5097 2.28006C29.7284 2.26681 30.4109 2.05478 30.5964 2.00177C30.7819 1.94876 31.2391 2.20055 31.2987 2.19392C31.3584 2.18729 31.7692 2.3927 32.074 2.57823C32.3788 2.76375 33.6907 2.45896 34.0883 2.3662L34.5057 2.45896L34.8237 2.53184C35.2279 2.45233 35.6454 2.37282 35.7514 2.35957C35.8574 2.34632 36.2351 2.47221 36.3411 2.42583C36.4471 2.37945 36.732 2.35294 36.7386 2.47884C36.7453 2.60473 37.2157 2.45233 37.2886 2.43245L37.335 2.45233L37.6331 2.59148C37.9114 2.79026 38.2494 3.04204 38.3819 3.16131C38.5144 3.28057 38.9583 3.4661 38.9186 3.50586C38.8788 3.54561 38.8987 3.78415 39.0378 3.96967L39.1505 4.14857L39.3956 4.51962C39.8396 4.82442 40.1311 5.14246 40.0384 5.21535C39.9456 5.28823 39.7998 5.56652 39.939 5.65266L40.0781 5.68579H40.1112C40.2106 5.55327 40.4227 5.54002 40.5817 5.65928L40.7009 5.77855C40.7407 5.81831 40.7142 5.90444 40.7208 5.9707C40.7341 6.10985 40.257 5.90444 40.4889 6.17611C40.6413 6.35501 40.4889 6.42127 40.3962 6.53391L40.3034 6.63992C40.2371 6.8122 40.2835 7.02423 40.416 7.11036C40.5486 7.1965 40.6082 7.62719 40.6413 7.68019C40.6744 7.7332 41.0389 8.23015 41.3569 8.66746L41.2774 9.1644C41.2377 9.43607 41.2575 9.68785 41.5888 9.86675L41.6948 9.91976C41.7545 10.0457 41.834 10.2378 41.8804 10.3438C41.9268 10.4498 42.4303 10.5956 42.6092 10.642L42.6357 10.7215C42.7152 10.96 42.8411 10.9667 43.0598 10.8408C43.0863 10.8275 43.1724 10.8606 43.2122 10.8805L43.2851 10.9269C43.3712 11.0064 43.3911 11.0926 43.3182 11.1257C43.2453 11.1588 43.126 11.351 43.2056 11.4835L43.2519 11.5762L43.3049 11.6823C43.3513 11.8015 43.4043 11.934 43.4176 11.9804C43.4308 12.0268 43.2519 12.4509 43.0532 12.9014L42.6092 13.2129L42.3839 13.3719C42.2779 13.6833 42.1454 14.0212 42.0791 14.1272C42.0129 14.2332 41.5159 14.6109 41.337 14.8362L41.1184 14.8958C40.7407 14.9952 41.1515 15.0946 41.072 15.1609C40.9726 15.2536 40.8666 15.3398 40.754 15.4193L40.4757 15.6181C40.1642 15.8367 39.833 16.115 39.7336 16.2343C39.6342 16.3535 39.23 16.6517 39.2697 16.771C39.3095 16.8902 38.7198 17.089 38.5078 17.2414L38.3289 17.4004L38.1301 17.5793C37.8253 17.8245 37.7127 18.0034 37.8783 17.9769C38.0439 17.9504 38.7463 17.6323 39.283 17.3938L39.8131 17.2547L40.1046 17.1752C40.0847 16.9499 40.0847 16.7312 40.1046 16.6848H40.1377C40.1908 16.6583 40.2901 16.6517 40.31 16.6782L40.3697 16.7511C40.4293 16.8836 40.5684 16.8902 40.6744 16.771L40.7606 16.6782C40.807 16.6252 40.86 16.5324 40.8997 16.5391L41.3437 16.5855C41.5623 16.3138 41.8207 15.9957 41.9069 15.8765C41.993 15.7572 42.6688 15.6843 42.914 15.5452L43.1989 15.5054C43.3248 15.4855 43.4507 15.4127 43.5567 15.3398L43.5766 15.3265C43.5103 15.2271 43.5236 15.1476 43.6031 15.1476C43.6826 15.1476 43.9808 15.1079 44.0338 15.0482C44.0868 14.9886 44.3253 14.6904 44.3982 14.5579L44.6765 14.6175C44.809 14.6441 45.0674 14.4386 45.2 14.2929L45.3126 14.167C45.4716 14.0742 45.624 13.9947 45.6638 13.9815C45.7035 13.9682 45.8758 13.9616 46.0149 13.9351C46.1541 13.9086 46.6113 13.6833 46.7637 13.5375L46.8697 13.3785C46.9823 13.2129 47.1612 13.6634 47.2076 13.3454C47.254 13.0141 47.4462 13.3652 47.5058 13.299L47.6383 13.1598C47.7443 13.246 47.8437 13.2195 47.8702 13.1002L47.9365 13.0141L47.9828 12.9544C48.1021 12.9279 48.3672 12.8882 48.5792 12.8683C48.7912 12.8484 49.2948 12.4774 49.4339 12.3316L49.5797 12.219L49.6128 12.1925C49.752 12.2455 49.8779 12.2322 49.8911 12.1593C49.9044 12.0864 50.017 11.8347 50.07 11.9274C50.123 12.0202 50.3351 12.1196 50.4543 12.0401C50.5736 11.9605 50.7989 11.8148 50.832 11.669L51.0904 11.6889L51.2627 11.7021C51.4548 11.6094 51.6934 11.4238 51.7861 11.2913L51.9982 11.2383C52.1042 11.2118 52.1506 11.1323 52.2632 11.2383L52.303 11.2781C52.409 11.2781 52.6276 11.1654 52.7867 11.0263L53.0384 10.9733L53.2703 10.9269C53.489 10.7613 53.8998 10.536 54.198 10.43C54.4961 10.3239 55.543 10.1053 55.8412 10.0523L56.0599 9.86013L56.2918 9.65472C56.6628 9.58846 57.014 9.6481 57.0736 9.78062C57.1333 9.91313 57.3188 10.2709 57.3453 10.2643C57.3718 10.2577 57.4116 10.1782 57.3917 10.0987C57.3718 10.0191 57.2857 9.71436 57.2658 9.59509L57.6633 9.36981C57.988 9.18428 58.5181 9.2903 58.6837 8.89937C58.6904 8.88612 58.8229 8.87286 58.856 8.89937C59.1476 9.1114 59.1078 9.25717 58.7169 9.44932H58.7036C58.7036 9.44932 59.0217 9.45595 59.406 9.40294L59.5782 9.3433C59.7571 9.28367 59.9692 9.24392 60.1547 9.26379L60.4661 9.30355C60.5257 9.10477 60.6185 8.99876 60.6649 9.06501C60.7113 9.13127 60.9233 9.33005 60.9498 9.26379C60.9763 9.19753 61.0094 8.83973 61.0161 8.56144L61.5395 8.17051L61.6257 8.10425C61.7184 8.02474 61.8311 8.07775 61.8774 8.2169C61.9238 8.35604 62.3545 8.60783 62.5997 8.48193C62.8448 8.35604 63.6399 8.25665 63.6399 8.16389C63.6399 8.07112 63.5803 7.79946 63.5008 7.92535C63.4213 8.05125 63.0038 8.02474 62.9707 7.96511V7.90548C62.9906 7.80609 62.8713 7.54768 63.2225 7.75971L63.2821 7.79284C63.5671 7.60068 63.8321 7.54768 63.8652 7.67357V7.75971L63.8851 7.85247C63.8851 7.97174 63.9447 8.07113 64.0242 8.07113C64.1038 8.07113 64.3754 7.94523 64.435 7.78621C64.4947 7.62719 64.773 7.1965 64.879 7.30914C64.985 7.42178 65.4024 7.62056 65.5548 7.49467L65.7006 7.42841L65.8928 7.34227C66.1247 7.28264 66.456 7.20975 66.6282 7.18325L66.7939 7.21638C67.0258 7.26276 67.2511 7.20975 67.4366 7.07723C67.5095 7.02423 67.5757 6.97122 67.6486 6.91821L68.1721 6.58029L68.2715 6.54716C68.3841 6.5074 68.7353 6.40802 69.06 6.32188C69.3846 6.23574 70.2858 6.01708 70.5309 5.98395C70.7761 5.95083 71.5447 5.93095 71.6639 5.95083C71.7832 5.9707 71.8097 6.29537 71.6109 6.36826C71.4122 6.44115 71.2995 6.91821 71.3989 6.85195C71.4983 6.78569 71.8561 6.77907 72.035 6.94472L72.2205 7.06398L72.3862 7.17C72.6247 7.22963 72.9891 7.40191 73.1945 7.5543L72.8632 7.74645L72.797 7.78621C72.8301 8.04462 72.9162 8.17714 73.0024 8.07113C73.0885 7.96511 73.2873 7.81934 73.2542 8.00487C73.221 8.19039 73.0024 8.48193 73.168 8.50181C73.3337 8.52169 73.8571 8.4488 74.0493 8.41567C74.2414 8.38254 74.374 7.95848 74.4601 8.02474C74.5462 8.091 74.8046 8.12413 74.9438 8.00487C75.0829 7.8856 75.5865 7.68682 75.7058 7.68019C75.825 7.67357 76.0636 7.44166 76.1961 7.47479L76.322 7.49467L76.4015 7.50792C76.4943 7.50792 76.5406 7.46154 76.5141 7.40853C76.4876 7.35552 76.64 7.22963 76.8521 7.12362C77.0641 7.0176 77.7466 6.75919 77.8658 6.70618C77.9851 6.65317 78.0845 6.3285 78.111 6.302C78.1375 6.2755 78.27 6.25562 78.3495 6.31525L78.4158 6.37489L78.4489 6.40802C78.4754 6.46102 78.6344 6.30863 78.8001 6.07009L78.9591 5.86469C78.9988 5.81831 79.0982 5.7653 79.1645 5.77855L79.5024 5.82493C79.7343 5.64603 80.0259 5.42738 80.1518 5.33461H80.3042L80.5162 5.34787C80.7083 5.27498 80.9137 5.18884 80.9734 5.14909C81.033 5.10933 81.0529 4.89068 81.1987 4.79791L81.3511 4.76478C81.5432 4.7184 81.7552 4.72503 81.9606 4.72503C82.0998 4.72503 81.848 4.3341 82.2257 4.55275C82.2522 4.57263 82.4377 4.41361 82.5437 4.3341C82.6166 4.28109 82.6762 4.21483 82.7624 4.17508C82.928 4.09556 83.1069 4.0293 83.2726 3.94317L83.4184 3.86366C83.584 3.86366 83.8557 3.76427 84.0147 3.63175L84.1605 3.51248L84.3062 3.39322C84.4321 3.29383 84.611 3.21431 84.7104 3.22094C84.8098 3.22757 84.9622 3.15468 84.8761 3.04204L85.0483 2.92277C85.2537 2.79026 85.3399 2.90952 85.4923 2.97578L85.5652 3.00891C85.7176 2.92277 85.976 2.7505 86.135 2.63123L86.3603 2.81013C86.4398 2.87639 86.5259 2.79026 86.4199 2.59148L86.3735 2.51197C86.4067 2.47221 86.6452 2.34632 86.9036 2.23368L87.1686 2.20055C87.2216 2.20055 87.2283 1.96864 87.4801 1.95539H87.5861C87.7053 1.95539 88.0366 1.92226 88.3282 1.8825C88.6197 1.84275 89.0438 1.1934 89.2558 1.15365C89.4678 1.11389 90.2033 0.961497 90.422 0.835604C90.6406 0.709711 90.9454 0.570567 90.9984 0.616948C91.0514 0.66333 91.2833 0.762719 91.3363 0.69646L91.3231 0.656704L91.29 0.577193C91.2237 0.497682 91.2568 0.385041 91.3629 0.325407C91.4689 0.265774 91.8333 0.219392 92.1381 0.186263L92.4031 0.146507L92.5621 0.120003C92.7079 0.0404921 93.2314 0.226018 93.7283 0.524185L94.1789 0.809101L94.2518 0.855482C94.318 0.921741 94.53 1.02776 94.7089 1.08739C94.8878 1.14702 95.4312 1.00125 95.7161 0.90849L95.9878 1.02776C96.2925 1.16028 96.5841 1.29942 96.9551 1.24641C97.0479 1.23316 97.843 1.66385 97.9623 1.72348C98.055 1.76986 98.2141 1.72348 98.3135 1.76324C98.4393 1.80962 98.5321 1.94876 98.658 1.96201C98.9562 2.00177 98.8502 2.17404 98.8435 2.29331V2.37282C98.7508 2.45896 98.6381 2.63123 98.5917 2.75713C98.5454 2.88302 99.0224 3.28057 98.9363 3.33358C98.8502 3.38659 98.7176 3.65163 98.7839 3.83053C98.8502 4.00943 99.3802 4.32085 99.314 4.43349C99.2477 4.54613 99.1086 4.87742 99.1682 4.91718C99.2278 4.95694 99.3206 5.12258 99.2941 5.19547C99.2676 5.26835 99.1947 5.48701 99.155 5.52014C99.1152 5.55327 98.923 5.57315 98.8502 5.65928L98.8767 5.69241L99.0092 5.86469C99.1815 6.03696 99.3537 6.16286 99.3802 6.14298C99.4067 6.1231 99.5724 6.07672 99.5658 6.16948C99.5591 6.26224 99.5061 6.4809 99.4796 6.50078C99.4531 6.52066 99.4332 6.67305 99.4796 6.79895C99.526 6.92484 99.6254 7.50129 99.6983 7.78621L99.8971 8.03137L100.01 8.16389C99.9567 8.40242 100.122 8.67408 100.374 8.77347L100.593 8.86624L100.646 8.88612C100.831 9.04514 100.911 9.21741 100.818 9.27042C100.725 9.32343 100.679 9.50233 100.692 9.64147C100.705 9.78062 100.381 10.3173 100.281 10.6022H99.7314C99.5923 10.7546 99.6453 10.96 99.844 11.0727L99.9964 11.1456C100.069 11.1787 100.069 11.1721 100.149 10.9799C100.182 10.907 100.255 10.7878 100.321 10.7811C100.705 10.7546 100.951 10.2378 101.428 10.5625L102.256 10.0987L102.289 10.0655C102.329 10.0324 102.488 9.97939 102.647 9.94626C102.806 9.91313 103.19 9.69448 103.25 9.63485C103.309 9.57521 103.886 9.55533 104.085 9.40294L104.257 9.27042L105.019 9.12465L105.151 9.28367C105.291 9.19091 105.556 9.00538 105.748 8.86624C105.94 8.72709 106.523 8.21027 106.609 7.97836L106.954 8.20364C107.159 8.34279 107.49 8.13076 107.689 8.35604L107.716 8.38917C107.855 8.34941 108.12 8.19039 108.305 8.03137L108.577 7.93861C109.392 7.66694 109.544 7.56093 109.909 7.72658L110.24 7.87235C110.618 7.85247 110.889 7.77296 110.843 7.68682C110.797 7.60068 110.896 7.31577 111.141 7.17C111.386 7.02423 112.314 6.70618 112.4 6.67968L112.5 6.73931C112.625 6.81882 112.791 6.82545 112.804 6.64655C112.818 6.4544 113.01 6.46102 113.116 6.50078L113.56 6.67305C114.03 6.58692 114.408 6.40802 114.408 6.2755C114.408 6.14298 115.051 5.99058 115.455 5.92432L115.76 5.77855C115.945 5.69241 116.177 5.65929 116.396 5.61953L116.575 5.5864C116.727 5.44725 116.893 5.40087 116.946 5.47376C116.999 5.54664 117.197 5.73217 117.257 5.70567L117.29 5.67916L117.462 5.54664C117.641 5.39425 117.946 5.35449 118.138 5.46713L118.264 5.20872C118.284 5.16897 118.529 5.19547 118.668 5.20872L118.748 5.22197C118.827 5.22197 119.033 5.16897 119.205 5.08945C119.377 5.00994 120.073 5.02982 120.411 5.08945L120.649 4.8443C120.736 4.75816 120.795 4.73165 120.915 4.83104L120.968 4.8708C121.1 4.8443 121.319 4.77804 121.451 4.72503C121.584 4.67202 122.22 4.65214 122.472 4.55938L122.538 4.61239L122.829 4.83767C123.028 4.67865 123.373 4.47987 123.591 4.40036L123.797 4.34072C123.797 4.34072 123.883 4.36723 123.923 4.38711C124.334 4.58588 124.36 4.61239 124.532 4.45999L124.744 4.27446C124.95 4.36723 125.195 4.46662 125.288 4.49975C125.38 4.53288 125.606 4.26121 125.679 4.17508H125.745C125.977 4.1817 125.871 4.34735 125.897 4.45336L125.91 4.49975C125.93 4.5395 126.242 4.43349 126.606 4.26784L126.944 4.12869C127.322 3.96967 127.176 4.03593 127.375 4.38048L127.56 4.70515C127.328 4.69852 127.269 4.78466 127.415 4.90393L127.514 4.88405C127.686 4.85092 127.931 4.62564 127.965 4.65214C128.15 4.77804 128.369 4.81779 128.521 4.71178C128.707 4.57926 128.746 4.70515 128.852 4.75153L128.899 4.77141C128.998 4.71178 128.972 4.59914 128.839 4.53288L129.064 4.47987C129.117 4.46662 129.263 4.55275 129.29 4.61901C129.336 4.72503 129.343 4.81117 129.475 4.67865L129.502 4.65214C129.488 4.55275 129.747 4.53288 130.085 4.61901C130.423 4.70515 131.012 5.2551 130.906 5.32136C130.8 5.38762 130.701 5.66591 130.814 5.7918C130.926 5.9177 131.344 6.19599 131.483 6.15623C131.622 6.11647 131.986 5.95745 131.986 5.89119C131.986 5.82493 132.205 5.67916 132.477 5.72554L132.185 6.01709L132.039 6.16286C132.245 6.34838 132.477 6.54716 132.563 6.60017C132.649 6.65317 132.338 6.95134 132.271 6.89833C132.205 6.84533 132.026 6.73269 132.013 6.75919C132 6.78569 131.986 6.91159 131.986 7.04411C131.986 7.17662 132.609 7.35552 132.854 7.48804L132.563 7.75971L132.49 7.82597C132.636 8.04462 132.841 8.2699 132.947 8.33616C133.053 8.40242 133.119 8.68071 133.212 8.74697C133.305 8.81323 133.06 9.09152 133.013 9.15115C132.967 9.21079 132.98 9.40294 133.04 9.36981L133.086 9.33668L133.153 9.2903C133.245 9.21079 133.385 9.21741 133.457 9.30355C133.53 9.38969 133.61 9.68785 133.504 9.80712C133.398 9.92639 132.881 10.0258 132.702 10.0258C132.523 10.0258 131.986 10.1119 131.986 10.2113C131.986 10.3107 131.9 10.5824 131.801 10.5492L131.847 10.3372C131.867 10.0987 131.801 9.90651 131.695 9.90651C131.589 9.90651 131.317 9.92639 131.324 9.94626C131.33 9.96614 131.383 10.1185 131.43 10.2246C131.476 10.3306 130.933 10.5559 131.019 10.4763V10.43C131.032 10.2974 131.079 10.0854 130.999 10.0523C130.774 9.93964 130.781 10.1384 130.688 10.2444C130.562 10.3836 130.337 10.4697 130.138 10.5559C130.058 10.589 129.939 10.5559 129.84 10.536L129.734 10.5227C129.628 10.4962 129.276 10.5956 128.958 10.7414L128.693 10.9004C128.581 10.9667 128.236 11.0263 128.548 11.2449C128.501 11.2913 128.249 11.3841 127.991 11.457C127.733 11.5299 127.249 12.0202 127.196 12.0401C127.143 12.0599 126.831 12.0003 126.547 11.9407L126.434 12.1991L126.321 12.4575C126.089 12.4111 125.877 12.431 125.838 12.4973C125.798 12.5635 125.632 12.7623 125.573 12.802H125.526C124.976 12.696 124.565 12.9213 124.353 13.2659L124.221 13.4845C124.002 13.5905 123.797 13.6303 123.764 13.5773C123.731 13.5243 123.346 13.4713 122.969 13.5773L122.637 13.6833L122.571 13.7032C122.525 13.7628 122.366 13.955 122.22 14.1339C122.074 14.3128 121.922 14.7633 121.948 14.6308C121.975 14.4983 121.802 14.1935 121.663 14.2465C121.524 14.2995 121.286 14.7501 121.226 14.6109L121.14 14.5712C121.001 14.5049 120.875 14.5447 120.848 14.7169C120.842 14.7633 120.689 14.8362 120.596 14.8362H120.053C119.709 15.1609 119.112 15.5651 118.741 15.7307L118.35 15.7903C118.35 15.7903 118.324 15.9096 118.35 15.9229C118.569 16.0421 118.489 16.1349 118.33 16.2409C118.258 16.2873 118.211 16.3668 118.138 16.3867L118.045 16.4132C117.926 16.3999 117.86 16.2873 117.886 16.1614H118.178C118.138 16.0024 118.019 15.9096 117.913 15.9494C117.807 15.9891 117.509 16.1813 117.443 16.2343C117.376 16.2873 117.105 16.1746 117.045 16.2011C116.985 16.2277 116.455 16.5059 116.018 16.7511L115.627 16.9764L115.495 17.0493C115.349 17.0161 115.183 17.0228 115.123 17.0625C115.064 17.1023 115.044 17.2083 115.203 17.2149C115.362 17.2215 115.799 17.248 115.846 17.3209C115.892 17.3938 115.965 17.6787 115.859 17.7119L115.779 17.7516L115.707 17.7847C115.627 17.8444 115.541 17.8444 115.508 17.7914C115.475 17.7384 115.243 17.7317 115.077 17.9305L114.951 18.1094C114.918 18.1558 114.978 18.2353 114.998 18.3016L115.011 18.3546C115.031 18.4142 114.971 18.4606 114.865 18.4672L114.805 18.4341C114.666 18.3546 114.501 18.3016 114.395 18.3281L114.335 18.3413C114.269 18.3413 114.103 18.3148 113.964 18.2883C113.825 18.2618 113.633 17.9239 113.374 17.8841L113.182 17.9438L112.798 18.063C112.546 18.3811 112.261 18.507 112.168 18.3479H112.102C111.983 18.3479 111.817 18.4341 111.757 18.5202L111.645 18.6726C111.579 18.8648 111.552 19.1033 111.585 19.2027H111.797C111.844 19.3087 111.85 19.4545 111.817 19.5274C111.784 19.6003 111.598 19.7725 111.512 19.693C111.426 19.6135 111.28 19.3286 111.194 19.2159H110.923C110.903 19.1364 110.883 19.0503 110.883 19.0238C110.883 18.9973 110.79 18.9377 110.658 18.9509V18.9708L110.624 19.3683C110.22 19.3948 109.955 19.5141 110.035 19.6268C110.114 19.7394 110.585 19.799 110.618 19.9117C110.651 20.0243 110.644 20.3689 110.518 20.402C110.393 20.4351 110.074 19.9249 109.882 19.7129L109.525 20.0243L109.445 20.0906C109.293 20.137 109.226 20.19 109.293 20.2098C109.359 20.2297 109.385 20.3556 109.22 20.4417C109.054 20.5279 109.266 20.9718 109.134 21.0712L109.054 21.0513L108.875 21.0116C108.65 20.8857 108.484 20.8459 108.511 20.9254C108.537 21.0049 108.537 21.2236 108.451 21.2369C108.365 21.2501 108.093 21.376 108.179 21.4688C108.266 21.5615 108.338 21.8531 108.14 21.8729L108.047 21.8199L107.934 21.7537C107.921 21.5947 107.895 21.4091 107.868 21.3429C107.842 21.2766 107.908 20.9718 108.08 20.8128C108.252 20.6538 108.146 20.1502 108.027 20.2165C107.908 20.2827 107.623 20.5478 107.656 20.6604C107.689 20.773 107.669 21.0513 107.543 20.9983C107.417 20.9453 106.748 21.3561 106.603 21.323L106.477 21.2766L106.351 21.2369C106.198 21.2104 106.006 21.2236 105.92 21.2634C105.834 21.3031 105.774 21.6477 105.754 21.7868H105.728C105.35 21.7934 105.476 22.032 105.416 22.191L105.383 22.2771C105.251 22.3633 105.118 22.3765 105.092 22.3103C105.065 22.244 104.926 22.1512 104.84 22.2374C104.754 22.3235 104.442 22.5422 104.31 22.5289C104.177 22.5157 104.25 22.8205 104.29 22.8536C104.33 22.8867 104.37 23.0391 104.389 23.1252C104.409 23.2114 104.82 23.3307 104.913 23.3837C105.006 23.4367 105.065 23.6951 104.833 23.8475L104.601 23.5626L104.522 23.4632C104.336 23.4035 104.158 23.3572 104.124 23.3638C104.091 23.3704 103.826 23.4234 103.601 23.4897L103.641 23.7481L103.667 23.9137C103.541 23.8342 103.303 23.7415 103.131 23.7083L103.111 23.9137C103.104 23.9999 103.058 24.086 102.998 24.1523L102.985 24.1655C102.865 24.1258 102.759 24.033 102.746 23.9601C102.733 23.8872 102.839 23.6222 102.925 23.5162L103.024 23.43C103.024 23.43 103.157 23.4367 103.19 23.4168C103.243 23.3704 103.296 23.2975 103.29 23.2445C103.283 23.1981 103.184 23.1385 103.124 23.1319L102.958 23.1186C102.74 23.1186 102.594 23.2048 102.634 23.2975C102.673 23.3903 102.382 23.5162 102.21 23.5029L102.05 23.483C102.05 23.483 102.057 23.4367 102.05 23.4168L101.925 23.1385C101.613 23.0524 101.282 23.006 101.182 23.0325L101.169 23.0789C101.149 23.1319 101.189 23.2246 101.242 23.2644L101.64 23.5626C101.772 23.8342 101.944 24.0926 102.017 24.1456H102.084C102.143 24.1324 102.21 24.0661 102.229 24.0131L102.269 23.9204C102.296 23.7348 102.534 23.9667 102.793 24.4372L103.177 24.689C103.303 24.7751 103.442 24.7751 103.495 24.6028L103.508 24.5498C103.561 24.4968 103.674 24.4306 103.76 24.3974C103.846 24.3643 104.118 24.3709 104.151 24.298C104.184 24.2252 104.403 24.1324 104.555 24.2782C104.707 24.4239 104.986 24.795 104.853 24.7751C104.721 24.7552 104.376 25.0865 104.151 25.1594L103.979 25.2787L103.959 25.2919C103.879 25.2654 103.846 25.1925 103.873 25.1263C103.899 25.06 103.919 24.8944 103.833 24.8944C103.747 24.8944 103.601 25.0733 103.627 25.2919L103.561 25.4576L103.495 25.6166C103.574 25.6431 103.568 25.7425 103.488 25.8353C103.409 25.928 103.051 26.034 102.846 25.9015L102.687 25.9148C102.342 25.9479 102.475 25.6762 102.316 25.61C102.084 25.5172 102.077 25.5106 102.163 25.4443C102.329 25.3184 102.428 25.1197 102.773 25.2919L102.912 25.3648C103.018 25.1197 102.912 24.9143 102.667 24.9076C102.422 24.901 101.838 25.1462 101.607 25.2919L101.534 25.4642L101.474 25.6033C101.573 25.7955 101.713 26.0208 101.785 26.1069C101.858 26.1931 101.554 26.4183 101.255 26.3322L100.977 26.2527H100.97C100.898 25.9346 100.858 25.663 100.871 25.6564L100.772 25.7889C100.613 26.0009 100.666 26.0009 100.904 26.0738C101.004 26.1069 101.116 26.2196 101.229 26.1666L101.295 26.1401C101.308 26.0274 101.275 25.8021 101.222 25.6431C101.169 25.4841 101.235 25.0865 101.116 25.1395L101.03 25.1528L100.898 25.1727C100.858 25.4443 100.805 25.8154 100.778 25.9943C100.752 26.1732 100.778 26.4713 101.004 26.5509L101.176 26.6237C101.401 26.7165 101.388 26.743 101.11 26.9153L101.07 26.9418C101.05 26.9948 101.017 27.1074 100.99 27.1869C100.964 27.2665 100.838 27.4321 100.758 27.4255C100.679 27.4189 100.348 27.5182 100.208 27.6574L99.9832 27.6441L99.8109 27.6309C99.7447 27.7303 99.6055 27.8959 99.4929 27.9887C99.3802 28.0814 98.9429 28.1941 98.8038 28.1808C98.6646 28.1676 98.5056 27.9092 98.5719 27.8694C98.6381 27.8297 98.7905 27.6441 98.6646 27.5779L98.5785 27.5182C98.4526 27.4387 98.3731 27.3393 98.5189 27.2201L98.6381 27.1273C98.8104 27.1008 99.0887 27.1207 99.2477 27.1604C99.4067 27.2002 99.7314 26.7496 99.7712 26.7099C99.8109 26.6701 100.149 26.5509 100.341 26.4713L100.136 26.3057C100.076 26.2593 100.01 26.2129 99.9302 26.1798L99.8639 26.1467C99.7712 26.1268 99.7447 26.0738 99.8109 26.0208C99.8772 25.9678 100.043 25.7624 99.9832 25.7359C99.9236 25.7094 99.6718 25.7359 99.5658 25.8419C99.4597 25.9479 99.2278 26.5774 99.0688 26.6039C98.9098 26.6304 98.4592 26.6701 98.5056 26.6039C98.552 26.5376 98.6183 26.2924 98.5984 26.2063L98.5454 26.1864C98.4857 26.1666 98.3466 26.1864 98.3201 26.2328L98.2141 26.3918C98.1279 26.5774 97.9026 26.6834 97.7039 26.637H97.525C97.4852 26.6237 97.3991 26.7563 97.3924 26.8358V26.902C97.4455 26.9815 97.3925 27.0279 97.2732 27.008L97.1937 26.9617L97.0744 26.8954C96.9618 26.796 96.9353 26.6834 97.0148 26.6436C97.0943 26.6039 97.2202 26.3521 97.2467 26.1864L97.2003 26.0539L97.1473 25.9148C97.2136 25.8021 97.2732 25.6895 97.2666 25.663C97.2599 25.6365 97.3991 25.4973 97.5515 25.3582C97.7039 25.219 98.4327 24.8215 98.658 24.6757C98.8833 24.5299 99.4995 24.1788 99.5393 24.2119V24.245L99.4995 24.3908C99.4531 24.5432 99.4664 24.6161 99.526 24.5498C99.5856 24.4836 99.8772 24.3908 99.9236 24.3709C99.9699 24.351 100.242 24.3047 100.44 24.3378V23.8276C100.639 23.5891 100.838 23.3638 100.891 23.324C100.944 23.2843 100.924 23.2313 100.878 23.2445C100.831 23.2578 100.573 23.2644 100.44 23.2843C100.308 23.3041 100.142 23.6487 100.016 23.7017L99.9898 23.6752L99.6453 23.3903L99.6784 23.3638ZM98.5652 25.8021C98.4857 25.8286 98.2406 25.8551 98.0285 25.8618L97.8828 25.8485L97.6376 25.8286C97.5316 25.981 97.4786 26.1533 97.5183 26.2196C97.5581 26.2858 97.7768 26.3653 97.896 26.2659C98.0153 26.1666 98.2339 25.4775 98.2737 25.6497C98.3135 25.822 98.6448 25.769 98.5652 25.7955V25.8021ZM39.5282 26.9683C38.7927 27.3658 38.7927 27.4719 39.4818 27.77C39.495 27.5249 39.5083 27.2996 39.5282 26.9683Z" fill="#EE6529" fill-opacity="0.39"/>
  <path d="M87.9183 39.8699C87.8256 39.8633 87.6268 39.797 87.4744 39.7175C87.322 39.638 86.825 39.4657 86.6859 39.4922C86.5467 39.5187 86.2685 39.7639 86.2022 39.7904C86.1359 39.8169 85.5131 39.9825 85.4734 40.1151L85.5992 40.1349C85.6456 40.1416 85.7251 39.9825 85.8047 39.9096L85.904 39.8169C86.0299 39.7241 86.0564 39.5916 85.9637 39.532C85.8709 39.4723 85.5131 39.6844 85.4402 39.7307C85.3673 39.7771 85.6059 39.9693 85.692 40.0753C85.7781 40.1813 85.851 40.3403 85.4601 40.2873C85.0692 40.2343 84.3734 39.6579 84.3403 39.6049C84.3072 39.5518 84.0819 39.4458 83.9494 39.4723L84.0422 39.3001L84.1349 39.1212C84.2343 38.8893 84.2078 38.6971 84.0885 38.6905H83.9825L83.6645 38.7236C83.5386 38.5182 83.2802 37.9285 83.088 37.405L82.9025 36.9346L82.8694 36.8551C82.823 36.8021 82.8959 36.6762 83.0416 36.5702C83.1874 36.4642 83.4988 36.1461 83.4259 36.0865C83.3531 36.0268 83.6844 35.8413 83.8235 35.7817L83.9428 35.7287H83.9626C83.9693 35.6956 84.0024 35.5697 84.0355 35.4438C84.0687 35.3179 84.4132 34.9468 84.506 34.8408C84.5987 34.7348 84.7843 34.3902 84.7511 34.3372V34.1318C84.9367 34.1318 85.3143 34.0987 85.586 34.0656L85.5727 33.8933V33.8072C85.3673 33.7011 85.2812 33.5819 85.3806 33.5421C85.48 33.5024 85.7914 33.4229 85.8378 33.3964C85.8842 33.3699 85.8775 33.2042 85.9703 33.1512L86.0366 33.1644L86.1757 33.1909C86.3679 33.2042 86.4474 33.1048 86.348 32.9657C86.2486 32.8265 86.0697 32.4952 86.1757 32.5482C86.2817 32.6012 86.6859 32.6145 86.7654 32.482L86.8383 32.3627C86.8847 32.2898 86.9046 32.1772 86.9774 32.1441L87.1033 32.0844C87.2491 32.0314 87.3485 31.9453 87.3286 31.8989C87.3087 31.8525 87.3154 31.6736 87.4943 31.7664C87.6732 31.8591 87.9448 32.1175 87.7924 32.1838L87.7593 32.2766L87.7328 32.3561C87.6135 32.4356 87.3551 32.6344 87.163 32.8133L87.2093 32.9988C87.2226 33.0584 87.2756 33.1446 87.3286 33.1512L87.3949 33.1644C87.4876 33.1247 87.7394 33.0319 87.9514 32.9524L87.9249 32.7139L87.8852 32.376C87.587 32.429 87.3087 32.4621 87.269 32.4488C87.2292 32.4356 87.6864 32.4886 87.8918 32.4952C88.0972 32.5019 88.3358 32.7669 88.402 32.7934C88.4683 32.8199 88.6008 33.0651 88.5478 33.3168L88.1635 33.3301H88.137C88.1171 33.4692 88.0177 33.6481 87.9117 33.7277C87.8057 33.8072 87.2822 33.8602 87.1497 33.8469C87.0172 33.8337 86.7389 34.0059 86.7257 33.9927C86.7124 33.9794 86.6793 33.9066 86.666 33.8469C86.6528 33.7873 86.4407 33.5753 86.2022 33.5819L86.1492 33.6548C86.0167 33.8469 86.2618 33.8535 86.4142 33.8999L86.4606 33.9132C86.4739 34.0126 86.3811 34.1186 86.2618 34.1517L86.1757 34.1252L85.7583 34.0126C85.6655 34.2511 85.6523 34.4565 85.7185 34.4565C85.7848 34.4565 86.0034 34.43 86.0763 34.4101C86.1492 34.3902 86.5534 34.324 86.8118 34.2909L87.1365 34.6023C87.3154 34.7745 87.481 34.9203 87.3154 35.1589L87.2557 35.245C87.2226 35.351 87.3949 35.3378 87.64 35.2119L87.7195 35.0528C87.7659 34.9601 87.6202 34.8077 87.5605 34.6818L87.5009 34.5559C87.4346 34.4167 87.4876 34.3372 87.6202 34.3704C87.7527 34.4035 88.0243 34.5426 87.9978 34.6155C87.9713 34.6884 87.9912 34.8209 88.0906 34.7944C88.19 34.7679 88.3026 34.5029 88.3424 34.2975C88.3821 34.0921 88.2629 33.6283 88.455 33.6813C88.6472 33.7343 89.2303 33.8535 89.1309 33.7674C89.0315 33.6813 89.058 33.4295 89.3098 33.3102L89.429 33.1446L89.5483 32.9855C89.7073 32.8331 89.6941 32.7139 89.5085 32.7139C89.323 32.7139 88.7068 32.6741 88.5677 32.6211C88.4285 32.5681 88.1701 32.3097 88.2297 32.2964C88.2894 32.2832 88.3888 32.1043 88.3225 31.9519C88.2562 31.7995 87.7858 31.614 87.8786 31.5742C87.9713 31.5345 88.2364 31.4748 88.2562 31.5278L88.296 31.5742C88.3358 31.6206 88.402 31.6869 88.4616 31.6935C88.5213 31.6935 88.6406 31.6339 88.6406 31.5941L88.6604 31.4019C88.6604 31.2032 88.6803 31.011 88.7201 30.9713H88.7399C88.7399 30.9713 88.7797 31.0044 88.8062 31.0176C88.8261 31.0375 88.8658 31.0707 88.8658 31.064C88.9917 30.9911 89.1242 30.9183 89.2501 30.8387L89.4357 30.7195C89.3296 30.5936 89.2435 30.4478 89.2501 30.3948H89.2766C89.3296 30.3683 89.4158 30.355 89.4423 30.3816C89.4953 30.4279 89.5218 30.4942 89.5483 30.5538L89.6212 30.7128C89.7603 30.6598 89.9525 30.5207 90.0519 30.4014C90.1513 30.2822 90.3567 29.9111 90.3169 29.8051L90.297 29.6991C90.297 29.6991 90.4892 29.6262 90.5157 29.6461L90.8072 29.8912C90.9066 29.6792 91.0126 29.4208 91.0524 29.3148C91.0921 29.2088 91.3174 28.9371 91.4698 28.9702C91.6222 29.0034 92.033 29.0034 92.0529 28.9172C92.0728 28.8311 92.1589 28.6124 92.1987 28.6853C92.2384 28.7582 92.4571 28.9106 92.5896 28.8708L92.636 28.8046L92.848 28.4998C93.1859 28.5793 93.4709 28.6853 93.4907 28.7317C93.5106 28.7781 93.7028 28.904 93.8419 28.8443C93.981 28.7847 94.3654 28.5329 94.4184 28.4402L94.3985 28.4269L94.319 28.3739C94.2063 28.3474 94.0672 28.3606 94.0076 28.4004C93.9479 28.4402 93.6829 28.4733 93.5835 28.2745L93.4311 28.195L93.2787 28.1221C92.9143 28.1354 92.8149 28.1155 93.06 28.0757C93.3052 28.036 93.4112 27.6318 93.4709 27.6384C93.5305 27.645 93.6564 27.6649 93.6299 27.6914C93.6034 27.7179 93.61 27.8372 93.6961 27.8769C93.7823 27.9167 94.0672 28.1221 94.1533 28.2149L94.2527 28.0824L94.2991 28.0227C94.3123 27.9432 94.2991 27.8372 94.266 27.7842C94.2328 27.7312 94.4051 27.5324 94.478 27.4794C94.5509 27.4264 94.478 27.0288 94.5641 27.0222C94.6503 27.0156 94.9617 27.0752 94.9153 27.1746C94.8689 27.274 94.796 27.5258 94.8358 27.539C94.8755 27.5523 94.9882 27.4463 95.0743 27.3336C95.1605 27.221 95.611 26.8566 95.8231 26.8698L96.0152 26.9427C96.1676 26.9957 96.267 27.0553 96.3796 26.9294C96.4061 26.8963 96.4061 26.8168 96.3796 26.7903L96.2869 26.7174C96.1742 26.6644 96.0218 26.5981 95.949 26.5716C95.8761 26.5451 95.8032 26.4457 95.9423 26.3729L96.0152 26.2801L96.0417 26.2403C95.9423 26.1277 96.055 26.0349 96.2935 26.0217C96.532 26.0084 97.0356 25.644 97.294 25.7633L96.9959 25.9886C96.9362 26.0349 96.7971 26.0681 96.7507 26.0416L96.6115 25.9687C96.4923 26.0217 96.3068 26.2006 96.2074 26.3795L96.4658 26.5783L96.7772 26.8234C96.7308 27.062 96.373 27.115 95.9755 26.9427L95.7767 27.4198C95.7767 27.4198 95.664 27.4198 95.611 27.4396L95.2532 27.5324C95.4255 27.7246 95.6574 27.8173 95.7634 27.7312C95.8694 27.645 96.2405 27.4529 96.3531 27.4993C96.4658 27.5457 96.6049 27.698 96.4128 27.7378C96.2206 27.7776 95.9887 28.4799 95.9423 28.6257V28.7582C95.9423 28.8443 96.0152 28.957 96.1013 29.0034L96.1544 29.0365C96.2803 28.9967 96.4525 28.8377 96.5453 28.6787L96.7308 28.5992C96.8103 28.566 96.9296 28.4733 96.9163 28.4335L96.8368 28.1089C96.8037 27.7577 96.8169 27.4661 96.8633 27.4595C96.9097 27.4529 97.0754 27.4926 97.1217 27.5589C97.1681 27.6252 97.3073 27.8372 97.3338 27.8769C97.3603 27.9167 97.5392 27.9896 97.6717 27.9498L97.7115 27.8836L97.8506 27.645C98.003 27.2872 98.2482 27.1216 98.3807 27.2674C98.5132 27.4131 98.4801 27.877 98.4005 27.8836C98.321 27.8902 97.7578 28.3209 97.9102 28.3275L98.0229 28.3143L98.1951 28.2944C98.4204 28.248 98.5529 28.2944 98.4933 28.3938C98.4337 28.4932 98.2283 28.7648 98.2084 28.7052C98.1885 28.6456 98.0096 28.566 97.8307 28.6124L97.6783 28.6787C97.6783 28.6787 97.7181 28.8377 97.7446 28.9172L97.7711 28.9967C97.8241 29.1226 97.7313 29.1889 97.5723 29.1491C97.4133 29.1094 97.0422 29.2154 96.9561 29.3015C96.87 29.3877 96.4459 29.6196 96.2339 29.5931C96.0218 29.5666 95.4321 29.7057 95.3659 29.6196C95.2996 29.5334 95.187 29.2353 95.3195 29.222L95.399 29.2021C95.4984 29.1756 95.5978 29.1425 95.6707 29.0895L95.6905 29.0696C95.6309 28.9835 95.4851 28.8576 95.3725 28.7913C95.2599 28.7251 95.0147 28.5263 95.0412 28.4534C95.0677 28.3805 95.0611 28.2016 94.9153 28.2811C94.7695 28.3606 94.5906 28.8377 94.6503 29.0034L94.6635 29.1558V29.2286C94.6635 29.3015 94.584 29.4075 94.4979 29.4605L94.478 29.4473L94.3919 29.3943C94.3256 29.3148 94.266 29.2021 94.2593 29.1359C94.2527 29.0696 94.1069 28.9437 94.0738 28.9702C94.0407 28.9967 93.9082 29.0961 93.8618 29.1292C93.8154 29.1624 93.3317 29.2551 93.3052 29.3214L93.3251 29.4009L93.3383 29.4672C93.2853 29.5533 93.2191 29.5997 93.1859 29.5798C93.1528 29.5599 92.9938 29.5666 92.9938 29.7057C92.9938 29.8449 92.848 30.2027 92.6757 30.2225C92.5035 30.2424 92.0198 29.9575 91.8674 29.8714L91.7084 30.0105L91.6885 30.0238C91.5957 29.984 91.4963 29.9045 91.4632 29.8449C91.4301 29.7852 91.2777 29.9906 91.3771 30.1695L91.6288 30.2093C91.874 30.249 92.1192 30.302 92.3577 30.355H92.3908C92.3908 30.355 92.3444 30.4611 92.2716 30.534C92.1987 30.6068 91.9138 30.6863 91.6752 30.6731L91.5692 30.7261L91.4698 30.7791C91.4234 30.9116 91.2313 31.1038 91.0391 31.2032L90.8205 31.1369L90.7807 31.1237C90.7145 31.1237 90.6615 31.1965 90.6681 31.3026C90.6747 31.4086 90.8271 31.7134 90.9861 31.6405C91.1452 31.5676 91.7282 31.3953 91.8077 31.4616C91.8873 31.5278 92.1192 31.6471 92.1722 31.6007C92.2252 31.5543 92.3511 31.3688 92.2914 31.3026C92.2318 31.2363 92.086 31.011 92.1324 30.9911C92.1788 30.9713 92.3975 30.9646 92.6161 30.9713L92.8083 30.9315L93.1263 30.8652C93.007 31.4019 92.8944 32.038 92.8745 32.2766C92.8546 32.5151 93.1197 32.323 93.2588 32.1441C93.398 31.9651 94.1268 31.7995 94.1997 31.7863L94.213 31.7597C94.2395 31.7001 94.2461 31.5808 94.2262 31.5742C94.0937 31.5411 93.928 31.561 93.822 31.508C93.7028 31.4483 93.6365 31.3158 93.5305 31.2297C93.5172 31.2164 93.3648 31.2761 93.3648 31.2959V31.4351C93.2389 31.4881 93.0667 31.6007 92.9872 31.6869L93.0137 31.7332C93.0733 31.826 93.2323 31.8724 93.0468 31.9983L92.8414 32.1308C92.8811 31.9718 92.9739 31.6339 93.06 31.3821C93.1462 31.1303 93.398 30.7129 93.5504 30.5936L93.7094 30.5008C93.7491 30.4809 93.8419 30.5141 93.8817 30.4942C93.9612 30.4478 94.0076 30.3749 94.0804 30.3285L94.372 30.143C94.5509 29.8581 94.8225 29.6527 94.9683 29.6792C95.1141 29.7057 95.6574 29.8449 95.8363 29.931L95.5713 30.1033L95.505 30.1496C95.5647 30.3352 95.5978 30.4876 95.5845 30.4876C95.5713 30.4876 95.3526 30.4611 95.1406 30.4213L95.1538 30.6598C95.1671 30.8454 95.3592 30.7791 95.4851 30.7857H95.7502C96.108 30.5273 96.4592 30.2557 96.5387 30.1695C96.6182 30.0834 96.9031 30.143 96.8501 30.249C96.7971 30.355 96.6049 31.0375 96.6115 31.1634C96.6182 31.2893 96.7507 31.2959 96.8368 31.2297C96.923 31.1634 96.9826 30.8189 96.8898 30.6532H96.87L96.6182 30.7394C96.3664 30.8586 96.0682 31.0044 95.9423 31.0707C95.8164 31.1369 95.5249 31.3821 95.5779 31.4682C95.6309 31.5543 95.8231 31.7863 95.8496 31.7266C95.8761 31.667 95.9755 31.5477 96.0218 31.5676C96.0682 31.5875 96.214 31.6074 96.2272 31.5278C96.2405 31.4483 96.7706 30.9249 96.9627 30.8917C97.1549 30.8586 97.7313 30.5605 97.8572 30.4346C97.9831 30.3087 98.5198 30.2888 98.5331 30.2358C98.5463 30.1828 98.6788 30.0039 98.8047 29.9376C98.9306 29.8714 99.2023 29.6394 99.1228 29.5732C99.0433 29.5069 98.8047 29.381 98.7849 29.4473C98.765 29.5136 98.6523 29.6461 98.5993 29.7322C98.5463 29.8183 98.4999 30.0569 98.4138 30.0503C98.3277 30.0436 98.056 29.8714 97.9765 29.8183C97.897 29.7653 97.7313 29.5334 97.7976 29.434C97.8638 29.3347 98.268 29.3545 98.4999 29.3678L98.5596 29.2021C98.6126 29.0564 98.5132 28.851 98.8577 28.8708H98.9372C99.03 28.8443 99.189 28.8377 99.2884 28.8576C99.3878 28.8775 99.6528 29.0497 99.5667 29.1624H99.4938C99.2818 29.1889 99.2288 29.3082 99.3216 29.4009C99.3878 29.4672 99.5998 29.4871 99.7191 29.4605L99.8914 29.4142C99.898 29.116 99.8781 28.7913 99.845 28.6919L99.7721 28.6323L99.7059 28.5793C99.4938 28.5197 99.4938 28.4733 99.7125 28.4799C99.9311 28.4865 100.302 28.904 100.481 28.9835L100.574 29.1226C100.6 29.1624 100.753 29.1955 100.806 29.169C101.024 29.063 101.23 28.9371 101.429 28.8112C101.462 28.7913 101.455 28.7118 101.429 28.6721C101.409 28.6389 101.336 28.5859 101.303 28.5926L101.13 28.6389C100.885 28.7184 100.74 28.7052 100.793 28.6058C100.846 28.5064 101.038 28.3673 101.111 28.4468C101.183 28.5263 101.535 28.248 101.661 28.1552C101.786 28.0625 102.297 27.8902 102.509 27.9101L102.701 27.9366H102.741C102.787 27.9498 103.059 27.8306 103.337 27.6715L103.542 27.4926L103.662 27.3866C103.615 27.168 103.688 26.9692 103.814 26.9361C103.94 26.9029 104.443 26.8566 104.649 26.8168C104.854 26.777 104.954 26.3397 104.887 26.2801L104.563 26.5054C104.443 26.2801 104.331 26.1608 104.318 26.2337C104.304 26.3066 104.152 26.5451 104.033 26.5451C103.913 26.5451 103.595 26.6048 103.668 26.6777C103.741 26.7505 103.45 27.009 103.277 27.0288L103.264 27.0752C103.244 27.1613 103.397 27.3204 103.357 27.3601C103.184 27.5258 103.078 27.3402 102.939 27.274L102.873 27.2409C102.767 27.2541 102.734 27.2077 102.794 27.1415C102.853 27.0752 102.939 26.8831 102.88 26.8301C102.82 26.777 102.727 26.4855 102.794 26.2867L103.092 26.4921C103.145 26.5253 103.324 26.5054 103.383 26.459C103.476 26.3861 103.503 26.2602 103.589 26.1741L103.609 26.1542C103.728 26.194 103.854 26.141 103.887 26.0283L103.933 25.9289L104.105 25.591C104.43 25.7633 104.728 25.9157 104.768 25.9289C104.808 25.9422 105 25.7368 105.073 25.4585L104.781 25.2465L104.695 25.1802C104.669 25.041 104.788 25.0212 104.954 25.1338L105.119 25.2067L105.172 25.2332C105.278 25.2266 105.378 25.2597 105.384 25.3127C105.391 25.3657 105.55 25.4651 105.689 25.326L105.716 25.2199L105.802 24.8953C105.954 24.7561 106.173 24.6369 106.285 24.6369C106.398 24.6369 106.703 24.5574 106.703 24.4513C106.703 24.3453 106.756 24.0604 106.902 24.1134C107.047 24.1664 107.584 24.2128 107.756 24.1002C107.929 23.9875 107.743 23.4376 107.783 23.3846C107.823 23.3316 107.896 23.2918 107.869 23.3713C107.843 23.4508 108.392 23.3117 108.558 23.1858C108.724 23.0599 109.333 23.2852 109.459 23.252L109.479 23.199L109.525 23.0533C109.671 23.0268 109.857 22.9473 109.943 22.8744C110.029 22.8015 110.122 22.616 109.956 22.616C109.791 22.616 109.525 22.563 109.691 22.5298C109.857 22.4967 110.082 22.2317 110.142 22.3244C110.201 22.4172 110.519 22.5696 110.645 22.5696C110.771 22.5696 111.089 22.4238 110.904 22.2449C110.718 22.066 110.619 21.3173 110.904 20.9992L111.175 20.7143C111.175 20.7143 111.288 20.6878 111.341 20.7011H111.381C111.414 20.7474 111.46 20.9462 111.48 21.145L111.46 21.3239V21.3902C111.44 21.5227 111.341 21.4829 111.242 21.304H111.155L111.049 21.2841C110.917 21.3769 110.798 21.4829 110.784 21.5227C110.771 21.5624 110.811 21.695 110.89 21.748C110.97 21.801 111.182 22.1124 111.387 22.2383L111.593 22.0196C111.593 22.0196 111.785 22.0859 111.878 22.1389C111.977 22.1853 112.063 22.2979 112.149 22.2979H112.335C112.534 22.2449 112.64 22.1786 112.567 22.1323C112.494 22.0859 112.169 21.9865 112.037 21.9534C111.904 21.9202 111.546 21.7546 111.606 21.6751L111.633 21.5889L111.659 21.5028C111.646 21.3902 111.705 21.3239 111.785 21.3637C111.864 21.4034 112.103 21.3902 112.176 21.357C112.249 21.3239 112.474 21.2444 112.54 21.1781C112.607 21.1119 112.626 20.8535 112.434 20.9131C112.242 20.9727 111.725 21.092 111.659 21.0854C111.659 21.0125 111.659 20.9396 111.699 20.8866C111.712 20.8601 111.805 20.8667 111.858 20.8535L112.229 20.7673C112.156 20.5884 112.123 20.3499 112.156 20.2439L112.236 20.2836L112.388 20.3565C112.52 20.3168 112.64 20.33 112.646 20.3963C112.653 20.4625 112.812 20.7806 112.925 20.986C113.037 21.1914 113.329 21.8473 113.408 21.9732L113.521 22.013C113.634 22.0528 113.799 21.9997 113.938 21.9732C113.958 21.9732 113.978 21.8871 113.971 21.8473C113.918 21.6684 113.74 21.7546 113.607 21.7347H113.581C113.581 21.7347 113.521 21.5691 113.514 21.3769C113.508 21.1848 113.819 20.6944 113.852 20.6679C113.885 20.6414 114.296 20.5619 114.687 20.5553L114.873 20.2306C114.952 20.0915 115.085 20.1114 115.224 20.2041L115.535 20.4095C115.747 20.2174 115.833 20.0318 115.727 19.9855C115.621 19.9391 115.29 19.9126 115.244 19.9921C115.197 20.0716 115.118 19.7933 115.177 19.7138L115.257 19.7005L115.495 19.6674C115.674 19.5349 115.867 19.4421 115.913 19.4488L115.946 19.4686L116.244 19.6608C116.37 19.5018 116.549 19.356 116.635 19.3361C116.721 19.3162 117.033 19.2765 117.145 19.1307C117.258 18.9849 117.649 18.6669 117.589 18.5675C117.53 18.4681 117.377 18.1368 117.357 18.0706C117.337 18.0043 117.556 17.9977 117.543 18.0573L117.569 18.0838L117.675 18.17C117.801 18.2495 117.914 18.3886 117.927 18.4814C117.94 18.5741 118.02 18.8259 118.06 18.8524C118.099 18.8789 118.298 18.7862 118.437 18.5675C118.577 18.3489 118.954 17.832 119.001 17.8718C119.047 17.9115 119.146 18.0374 119.12 18.0639C119.093 18.0904 119.047 18.1965 119.107 18.2362H119.146C119.219 18.223 119.345 18.1832 119.352 18.1501L119.372 17.9911C119.365 17.8254 119.16 17.6266 118.921 17.5537C118.683 17.4809 118.265 18.1368 118.252 18.1567C118.239 18.1766 118.093 18.2031 118.007 18.1037C117.921 18.0043 117.563 17.8983 117.569 17.8254C117.576 17.7525 117.543 17.5471 117.523 17.514C117.503 17.4809 117.503 17.3815 117.563 17.3815C117.622 17.3815 117.921 17.6068 118.119 17.6995L118.278 17.4676L118.464 17.1959C118.881 17.0369 119.166 16.9773 119.087 17.0502C119.007 17.1231 118.928 17.3616 119.12 17.3616H119.259L119.431 17.3417C119.498 17.4477 119.617 17.5537 119.69 17.5802C119.763 17.6068 120.054 17.5802 120.054 17.4411C120.054 17.302 120.107 16.9309 120.167 16.9309C120.226 16.9309 120.339 16.9773 120.313 17.0369V17.1761C120.332 17.2688 120.273 17.4477 120.187 17.5736L120.346 17.6333L120.452 17.673C120.624 17.6266 120.717 17.5007 120.67 17.3947L120.631 17.2953V17.2821C120.631 17.2821 120.684 17.2291 120.71 17.2092H120.73L120.909 17.249C121.108 17.2953 121.273 17.2489 121.28 17.1628L121.253 17.0833L121.227 17.0038C121.214 16.8779 121.267 16.8183 121.34 16.8713C121.412 16.9243 121.697 17.0104 121.764 16.9177C121.83 16.8249 121.843 16.6327 121.843 16.5333C121.843 16.434 122.201 16.3346 122.42 16.3279C122.638 16.3213 122.824 15.8111 122.897 15.7581H122.956C123.016 15.7647 123.089 15.8376 123.109 15.884C123.135 15.9503 123.089 16.0364 123.122 16.096C123.148 16.1424 123.281 16.1954 123.321 16.1822L123.486 16.1159C123.645 16.0232 123.831 15.9304 123.904 15.9105C123.977 15.8906 124.142 15.8111 124.076 15.7846C124.01 15.7581 123.857 15.6587 123.884 15.619C123.91 15.5792 124.189 15.4798 124.414 15.4202C124.639 15.3606 125.262 15.1021 125.434 15.1485L125.587 15.1618L125.892 15.1817C125.845 15.0028 125.845 14.7709 125.892 14.6648C125.938 14.5588 126.322 14.6781 126.402 14.6251L126.448 14.5654C126.567 14.4064 126.614 14.1083 126.958 14.413C126.991 14.4396 127.21 14.3865 127.23 14.3468C127.349 14.042 127.488 13.8565 127.893 14.1414L127.926 14.1679C128.065 14.095 128.449 13.8697 128.767 13.6643L129.059 13.4788C129.105 13.4523 129.277 13.28 129.277 13.2601V13.227C129.277 13.1873 129.33 13.068 129.403 12.962C129.476 12.856 129.88 12.7831 129.841 12.9023V12.9951C129.841 13.0614 129.874 13.1409 129.92 13.2005C130.026 13.3396 130.145 13.2204 130.165 13.1607L130.285 12.7499C130.735 12.6439 131.437 12.3656 131.842 12.1337L132.319 12.1139C132.365 12.1139 132.411 12.0211 132.445 11.9615L132.604 11.6898C132.763 11.8488 132.942 11.8687 133.001 11.7295C133.061 11.5904 133.876 11.3982 134.273 11.2392L134.413 11.0868C134.499 10.9941 134.585 10.8947 134.684 10.8152L134.711 10.7887C134.823 10.8019 134.89 10.8682 134.856 10.9411C134.823 11.0139 134.883 11.1796 135.062 11.1067C135.241 11.0338 135.784 10.7953 135.923 10.7092C136.062 10.623 136.553 10.3646 136.758 10.3646C136.963 10.3646 137.407 10.1194 137.679 10.3315L137.321 10.623H137.308C137.441 10.7622 137.593 10.7025 137.653 10.5037C137.712 10.305 137.964 9.85441 138.09 9.91404C138.216 9.97367 138.448 10.2056 138.461 10.0002L138.805 10.0731C138.878 10.0863 138.984 10.0068 139.064 9.9538C139.084 9.94054 139.064 9.85441 139.024 9.8279C138.872 9.72189 138.759 9.80803 138.66 9.90079L138.646 9.91404C138.567 9.92729 138.54 9.84116 138.593 9.73514C138.646 9.62913 138.819 9.39059 138.872 9.43035C138.925 9.4701 139.117 9.40384 139.19 9.29783C139.263 9.19181 139.806 9.02616 139.925 8.81413H140.369C140.495 9.01291 140.641 9.15206 140.694 9.12555V9.1123C140.515 8.7545 140.979 8.63523 141.085 8.38345V8.36357C141.125 8.35032 141.303 8.29069 141.502 8.23105L141.721 8.32382C142.006 8.44308 142.072 8.23105 142.205 8.07203C142.297 7.95939 142.615 8.13829 142.708 7.82024C142.781 7.56183 143.232 7.5287 143.503 7.59496C143.682 7.63472 143.755 7.66785 143.742 7.82024L143.729 7.93289C143.729 8.11179 143.861 8.17804 144.02 8.07866L144.04 8.00577L144.113 7.76724C143.927 7.56183 144.013 7.27692 144.305 7.13115L144.577 6.992C144.65 6.95887 144.729 6.87274 144.782 6.87936C145.531 6.99863 145.802 6.32941 146.412 6.21677H146.452C146.485 6.05775 146.531 5.98486 146.564 6.05775C146.598 6.13063 146.896 6.24327 147.141 6.15713C147.386 6.071 147.804 5.60718 147.837 5.64694L147.857 5.68669L147.876 5.72645C147.903 5.79933 148.016 5.78608 148.128 5.69332L148.221 5.62043C148.307 5.55417 148.38 5.47466 148.479 5.42166L148.499 5.4084C148.592 5.48792 148.691 5.46141 148.725 5.3554L148.804 5.30902L148.864 5.27589C148.99 5.30902 149.149 5.36202 149.215 5.38853C149.281 5.41503 149.679 5.21625 149.937 5.06386C150.195 4.91146 150.911 4.60667 151.123 4.5139L151.315 4.42114C151.388 4.38138 151.481 4.26874 151.501 4.27537L151.7 4.36151C151.918 4.34825 152.17 4.21574 152.256 4.06334L152.515 4.09647C152.594 4.10972 152.819 4.1561 152.925 4.20911L152.985 4.24224C153.084 4.24224 153.157 4.20911 153.144 4.18261C153.131 4.1561 153.078 4.02358 153.045 3.94407H153.303C153.402 3.94407 153.515 3.89769 153.608 3.85794C153.734 3.80493 153.84 3.72542 153.959 3.66578H153.979C154.025 3.66578 154.045 3.73204 154.025 3.80493C154.005 3.87781 153.966 4.07659 153.999 4.09647C154.032 4.11635 154.158 4.09647 154.204 3.99708L154.264 3.91757L154.608 3.46701C155.019 3.53326 155.456 3.54652 155.596 3.49351L155.668 3.53989C155.741 3.58627 155.735 3.73867 155.808 3.7718L155.927 3.81818C156.106 3.81818 156.252 3.73204 156.252 3.63265C156.252 3.53326 156.159 3.24172 156.04 3.22847C155.92 3.21522 155.602 3.15559 155.616 3.09595L155.642 3.0827L155.761 3.02307C155.894 2.97669 156.112 2.97669 156.258 3.02307C156.404 3.06945 156.861 3.00319 156.934 2.98994L156.994 3.00319C157.312 3.06945 157.431 3.22185 157.338 3.44713C157.325 3.48688 157.226 3.51339 157.219 3.55314V3.63265C157.232 3.72542 157.345 3.77842 157.464 3.74529L157.524 3.68566L157.762 3.46038C158.127 3.55314 158.432 3.64591 158.438 3.67241C158.445 3.69891 158.637 3.66578 158.836 3.52664H159.021L159.293 3.50676C159.598 3.57965 159.869 3.73204 159.896 3.84468C159.922 3.95732 160.327 3.9772 160.346 4.02358C160.366 4.06997 160.366 4.36151 160.32 4.56028L160.678 4.53378C160.691 4.6663 160.625 4.97109 160.532 5.21625L160.731 5.48129C160.83 5.61381 161.155 5.87222 160.764 6.08425C160.751 6.09088 160.823 6.20352 160.843 6.26978C160.87 6.34929 160.883 6.43542 160.903 6.52156L160.936 7.15765L161.042 7.41606C161.155 7.70098 161.254 8.05878 161.254 8.2178C161.254 8.37682 161.665 8.74125 161.705 8.82739C161.744 8.91352 161.744 9.16531 161.652 9.17194L161.579 9.19844C161.426 9.25807 161.267 9.31108 161.148 9.40384C161.089 9.4436 161.486 9.60262 161.082 9.649L160.963 9.66225C160.843 9.7749 160.698 9.91404 160.631 9.97367C160.565 10.0333 160.38 10.2586 160.353 10.3514L160.3 10.3646L160.101 10.4242C159.869 10.4375 159.578 10.5899 159.452 10.7688L159.293 10.8947L159.114 11.0338C158.869 11.1531 158.498 11.332 158.292 11.438C158.087 11.544 157.232 12.0145 156.848 12.2397L156.503 12.4451L156.477 12.4584C156.477 12.4584 156.271 12.4783 156.073 12.4584C155.874 12.4385 155.443 12.8758 155.324 12.962C155.205 13.0481 154.635 13.3662 154.337 13.4788C154.039 13.5914 153.349 14.095 153.29 14.1149C153.23 14.1348 153.005 14.1679 152.905 14.1944C152.806 14.2209 152.528 14.4727 152.428 14.5389C152.329 14.6052 152.051 14.6516 152.057 14.9365H151.521C151.408 14.9763 151.335 14.9763 151.355 14.9365C151.375 14.8967 151.375 14.7841 151.322 14.7576C151.269 14.7311 151.097 14.7642 150.971 14.804C150.845 14.8437 150.891 15.3473 150.686 15.672L150.282 15.725L149.964 15.7647C149.732 15.9171 149.407 16.0762 149.248 16.1159C149.089 16.1557 148.817 16.3611 148.632 16.4936L148.486 16.593L148.274 16.7321C148.029 16.8845 147.77 16.9972 147.704 16.9773L147.638 16.964L147.558 16.9508C147.472 16.9375 147.267 17.0237 147.108 17.1429C146.949 17.2622 146.478 17.7194 146.293 17.8055C146.107 17.8917 145.597 18.1103 145.59 18.1302C145.584 18.1501 145.71 18.1898 145.895 18.17C146.081 18.1501 146.664 18.0308 146.796 17.9646L146.916 17.9049L147.426 17.6465C147.585 17.6863 147.744 17.7459 147.91 17.7459C147.976 17.7459 148.016 17.5802 148.102 17.5339C148.234 17.4544 148.393 17.3748 148.546 17.3682H148.85C149.162 17.2688 149.42 17.0303 149.434 16.8249L149.679 16.9309L150.089 17.1164C150.162 16.8514 150.308 16.6327 150.414 16.6327C150.52 16.6327 150.911 16.6195 151.037 16.6062V16.5864L151.07 16.2816C151.368 16.2749 151.713 16.2484 151.832 16.2286C151.951 16.2087 152.329 16.0497 152.442 16.0298C152.554 16.0099 153.025 16.0099 153.204 15.9768C153.383 15.9436 153.773 15.5925 153.873 15.4401L154.118 15.5925H154.131C154.29 15.4533 154.436 15.3606 154.456 15.4069C154.476 15.4533 154.635 15.4666 154.754 15.2877L154.907 15.2082C155.039 15.1419 155.244 15.175 155.423 15.1684H155.675C155.847 15.016 156.066 14.8967 156.152 14.8967L156.232 14.91C156.298 14.9232 156.358 14.9763 156.424 14.9763C156.59 14.9763 156.57 14.6118 156.881 14.8305L156.941 14.8769C157.146 14.7974 157.458 14.6516 157.643 14.5588L157.789 14.4528C157.981 14.307 158.1 14.7178 158.286 14.4859L158.405 14.3402C158.584 14.3865 158.948 14.4793 159.22 14.5588L159.306 14.2474L159.319 14.2076C159.379 14.1811 159.618 14.1083 159.843 14.0486C160.068 13.989 160.691 13.883 160.731 13.9426C160.77 14.0022 160.903 14.1348 160.916 14.0486C160.929 13.9625 161.188 13.8035 161.446 13.8631L161.605 13.8101C161.784 13.8432 161.943 13.883 161.97 13.8962C161.996 13.9095 162.142 14.0089 162.288 14.0619C162.434 14.1149 162.606 14.5787 162.632 14.6715C162.659 14.7642 163.388 14.7642 163.653 14.7841C163.918 14.804 164.792 14.9763 165.011 15.0823C165.23 15.1883 165.601 15.8641 165.7 16.0232L165.356 16.0563C165.316 16.0563 165.256 16.2219 165.283 16.2816L165.322 16.3743C165.276 16.4406 165.177 16.5466 165.11 16.6062C165.044 16.6659 165.25 16.8249 165.322 16.9044C165.395 16.9839 165.256 17.2953 165.137 17.4411L165.475 17.5206L165.74 17.5802C165.654 17.7857 165.528 18.0838 165.468 18.2362C165.409 18.3886 165.415 18.9452 165.183 19.1241L165.713 19.1373H165.74C165.76 19.2036 165.786 19.3825 165.8 19.5481C165.813 19.7138 165.879 20.1842 165.899 20.2505L165.872 20.2836L165.654 20.5222C165.853 20.6944 166.118 20.9396 166.243 21.0589C166.369 21.1781 165.68 21.7082 165.415 21.8341L165.17 21.9335C164.885 22.0528 164.72 22.384 164.547 22.6491C164.435 22.8214 164.647 22.9804 164.852 22.8479C165.097 22.6955 165.17 23.0533 165.362 22.9009C165.521 22.775 165.634 22.5895 165.939 22.6093L166.131 22.6226C166.35 22.5762 166.661 22.5828 166.827 22.6292L166.952 22.6027C167.078 22.5762 167.151 22.4172 167.277 22.3642L167.396 22.3178C167.562 22.3178 167.854 22.3841 168.032 22.4503C168.211 22.5166 168.768 22.331 168.834 22.3443C168.9 22.3575 169.225 22.4636 169.47 22.5298C169.715 22.5961 170.471 22.3973 170.617 22.4768C170.762 22.5563 171.266 22.7418 171.339 22.6822C171.412 22.6226 171.65 22.5563 171.736 22.6226C171.823 22.6888 172.015 22.8611 172.001 22.8744C171.988 22.8876 171.63 22.8942 171.266 22.8876L170.941 22.9141L170.769 22.9274C170.603 23.0731 170.769 23.2255 171.133 23.2587L171.418 23.1792C171.703 23.0996 171.902 23.4707 172.187 23.2057L172.293 23.1063C172.538 23.1527 172.783 23.2189 172.836 23.2454C172.889 23.2719 172.989 23.3912 173.042 23.4309C173.095 23.4707 173.366 23.4177 173.479 23.3713C173.592 23.3249 173.943 23.2852 174.002 23.3183C174.062 23.3514 174.135 23.4972 174.115 23.5436C174.095 23.59 173.896 23.6827 173.731 23.6562C173.565 23.6297 173.386 24.0405 173.26 24.0803C173.134 24.12 173.042 24.458 173.095 24.4778C173.148 24.4977 173.26 24.6501 173.214 24.7495C173.168 24.8489 173.592 24.9218 173.731 24.9947L173.87 25.0145C173.93 25.0212 173.996 25.0013 174.062 24.988L174.175 24.9682C174.294 24.9483 174.446 24.935 174.506 24.935C174.566 24.935 174.731 25.0145 174.705 25.1139C174.678 25.2133 174.718 25.4916 174.632 25.5115C174.546 25.5314 174.208 25.4916 174.016 25.4651C173.824 25.4386 173.83 25.8627 173.903 25.75C173.976 25.6374 174.367 25.8295 174.287 25.9289C174.208 26.0283 174.029 26.3464 174.095 26.3662C174.161 26.3861 174.533 26.5584 174.844 26.7638L175.208 26.8367H175.222C175.208 26.9162 175.109 27.1083 175.003 27.2674C174.897 27.4264 175.082 27.8902 175.023 27.9233C174.963 27.9565 174.917 28.142 175.063 28.2281L175.215 28.2878C175.275 28.3076 175.387 28.2745 175.447 28.2348C175.54 28.1817 175.652 28.1884 175.719 28.2679L175.745 28.3076C175.791 28.3474 175.639 28.4733 175.394 28.5793C175.149 28.6853 174.433 28.4468 174.387 28.4534C174.34 28.46 174.022 28.6323 173.757 28.798C173.492 28.9636 172.492 29.1756 172.445 29.1756C172.399 29.1756 172.127 29.3148 171.929 29.4473L171.723 29.5136L171.518 29.5798C171.266 29.5997 170.822 29.6328 170.53 29.6527L170.431 29.7653L170.193 30.0503C169.881 29.9575 169.51 29.9111 169.371 29.9509C169.232 29.9906 168.755 29.9906 168.622 30.0105C168.49 30.0304 167.907 30.1629 167.549 30.249C167.191 30.3352 165.806 30.5803 165.276 30.6665C164.746 30.7526 163.255 30.9514 163.169 30.9779L163.09 31.0044L162.182 31.2164L161.426 31.1965C160.684 31.4483 159.896 31.7134 159.677 31.7863C159.459 31.8591 158.425 32.0182 157.875 32.1242L157.371 32.1374L156.888 32.1507C156.411 32.2832 156 32.4025 155.98 32.429C155.96 32.4555 155.781 32.4952 155.655 32.5217C155.529 32.5482 155.059 32.4952 154.946 32.5549C154.834 32.6145 154.025 32.7205 153.402 32.7868L152.852 32.8994C152.667 32.9392 152.342 32.7735 152.263 32.8398L152.018 33.0518C151.825 32.9259 151.613 32.8795 151.547 32.9458C151.481 33.012 151.156 32.9325 151.03 32.9922C150.904 33.0518 150.414 32.7868 150.156 32.7536L149.997 32.6609C149.752 32.5217 149.506 32.5416 149.255 32.5284H149.208C149.155 32.4886 148.917 32.376 148.672 32.2766C148.426 32.1772 147.499 31.879 147.181 31.7796L146.962 31.5808L146.75 31.3887C146.909 31.2098 147.048 31.0441 147.061 31.011C147.075 30.9779 146.995 30.7924 146.922 30.6267L147.061 30.4677L147.114 30.4081C147.101 30.3087 147.028 30.1165 146.942 29.984C146.856 29.8515 146.81 29.3545 146.843 29.2286C146.876 29.1027 146.472 28.9238 146.458 28.8642C146.445 28.8046 146.379 28.301 146.326 27.8836L146.227 27.5125L146.207 27.433C145.981 27.3999 145.67 27.4198 145.518 27.4728C145.365 27.5258 144.742 27.7511 144.484 27.8571C144.226 27.9631 143.364 28.3209 143.198 28.5528L142.768 28.4667L142.523 28.4137C142.191 28.566 141.728 28.7781 141.496 28.8775C141.264 28.9769 140.462 29.2088 140.263 29.3082C140.064 29.4075 139.309 29.6527 139.057 29.719C138.806 29.7852 138.189 30.2292 138.097 30.3087C138.004 30.3882 137.686 30.1894 137.646 30.1894C137.606 30.1894 137.301 30.249 136.983 30.3087C136.665 30.3683 135.91 31.0176 135.632 31.1435C135.353 31.2694 134.585 31.4351 134.598 31.5477C134.611 31.6604 134.161 31.6007 134.081 31.6272C134.002 31.6537 133.836 31.8194 133.783 31.8061C133.73 31.7929 133.319 31.8989 132.981 32.0115L132.683 32.1242L132.504 32.1904C132.339 32.2964 132.113 32.3693 132.007 32.3561C131.901 32.3428 131.59 32.535 131.504 32.588C131.418 32.641 130.967 32.8265 130.709 32.9127L130.47 32.9657C130.086 33.0452 129.675 33.0651 129.556 33.4692C129.403 33.4626 129.079 33.4626 128.84 33.4759C128.602 33.4891 128.237 33.9529 128.197 33.9596C128.158 33.9662 127.939 34.0059 127.813 34.0192C127.687 34.0324 127.124 34.271 126.779 34.43C126.435 34.589 125.289 34.9468 125.103 35.033C124.918 35.1191 124.348 35.3841 124.262 35.457C124.175 35.5299 123.692 35.5763 123.579 35.6492C123.466 35.7221 123.023 35.8943 122.89 35.9208C122.757 35.9473 122.327 36.0799 122.221 36.1329C122.115 36.1859 121.353 36.484 120.763 36.6828L120.273 36.9479L120.18 36.9942C120.061 37.0207 119.763 37.0406 119.511 37.0406L119.471 37.299V37.3255C119.345 37.3454 119.027 37.4249 118.755 37.5044C118.484 37.5839 117.682 37.9417 117.404 38.0014C117.125 38.061 116.244 38.6043 115.827 38.7369L115.469 38.929L115.012 39.1742C114.435 39.3531 113.733 39.5916 113.441 39.7042C113.15 39.8169 112.315 40.2012 112.182 40.2608C112.05 40.3205 111.427 40.5259 111.129 40.612C110.831 40.6981 109.936 41.1354 109.724 41.1752C109.512 41.215 108.75 41.5065 108.379 41.5794L108.074 41.7053L108.028 41.7252C107.962 41.7185 107.465 41.8179 106.935 41.9438L106.524 42.1691C106.266 42.3082 105.994 42.3546 105.795 42.2552C105.517 42.1161 105.331 42.0896 105.099 42.2751L105.066 42.3016C104.96 42.2685 104.536 42.1161 104.132 41.9571C103.728 41.798 102.535 41.6324 102.641 41.5396L102.661 41.4734L102.674 41.4137C102.628 41.3408 102.495 41.3011 102.383 41.321L102.31 41.374L102.257 41.4137C102.224 41.5595 102.184 41.48 102.164 41.2348C102.144 40.9897 102.343 40.4265 102.184 40.3867L102.138 40.3072C102.078 40.2078 102.091 40.062 102.131 39.9494L102.224 39.6777C101.965 39.6181 101.806 39.5518 101.866 39.532C101.926 39.5121 102.078 39.426 102.058 39.3796L102.025 39.3663C101.78 39.2603 101.475 39.2007 101.309 39.0416C101.197 38.9356 101.27 38.6971 101.283 38.5182C101.283 38.4586 101.409 38.3791 101.389 38.3459L101.276 38.1471C101.23 37.9086 101.064 37.5442 100.905 37.3388L100.726 37.1599L100.66 37.0936C100.541 37.0472 100.508 36.9611 100.587 36.8948C100.667 36.8286 100.667 36.4244 100.455 36.0931L100.481 35.7221L100.494 35.5233C100.633 35.3974 100.892 35.0595 101.077 34.7745L101.024 34.6487C101.005 34.6023 100.899 34.5493 100.832 34.5559C100.627 34.5691 100.74 34.6288 100.773 34.7215C100.799 34.7812 100.647 34.9667 100.6 34.9601L100.282 34.9269C100.256 35.1191 100.176 35.2317 100.11 35.1787C100.044 35.1257 99.8317 35.139 99.8052 35.3311C99.7787 35.5233 99.0366 35.616 98.9638 35.8877L98.6523 35.9738C98.2349 36.0865 97.8771 36.2654 97.5988 36.5437L97.4597 36.6762C97.2476 36.7159 96.8898 36.8418 96.6712 36.9479C96.4525 37.0539 95.7369 37.2526 95.6972 37.3388L95.6375 37.405L95.5116 37.5376C95.2996 37.5773 95.0346 37.5177 94.9219 37.405C94.8093 37.2924 94.4117 37.0472 94.4051 37.1003C94.3985 37.1533 94.4714 37.3255 94.531 37.405L94.5774 37.4846C94.5774 37.4846 94.4581 37.5641 94.4449 37.5508C94.3587 37.4978 94.2726 37.3852 94.2328 37.5707C94.2196 37.6237 94.2792 37.7297 94.3256 37.743L94.4647 37.7628C94.6304 37.7562 94.6105 37.7761 94.425 37.8092C94.2395 37.8424 93.928 38.1538 93.8817 38.1206L93.8353 38.1008L93.5172 37.9484C93.5106 38.1471 93.4974 38.326 93.4907 38.3526C93.4841 38.3791 93.4245 38.4718 93.3847 38.4784C93.345 38.4851 92.9275 38.5182 92.5565 38.558L92.3047 38.7965C92.0794 39.0085 91.8276 39.2669 91.4433 38.9423C91.4102 38.9158 91.2247 38.9555 91.218 38.9688C91.2114 39.0483 91.2313 39.1344 91.2578 39.2139V39.2471C91.3174 39.3133 91.1915 39.2934 90.9994 39.2139C90.8072 39.1344 90.3235 39.3067 90.3898 39.3332C90.4561 39.3597 90.4229 39.5585 90.1711 39.7241L89.8332 39.3729C89.7802 39.3133 89.7139 39.2603 89.6411 39.2206L89.6013 39.2007C89.4953 39.2073 89.4025 39.3597 89.3959 39.532L89.3628 39.6844C89.3562 39.7307 89.2501 39.7904 89.1905 39.7904L89.0249 39.8036C89.0712 39.7175 89.1309 39.532 89.1507 39.3928L89.0249 39.2934C88.9917 39.2669 88.9188 39.2338 88.9056 39.2404L88.7797 39.3067C88.6869 39.426 88.6207 39.5518 88.6406 39.5916C88.6604 39.6314 88.6472 39.8036 88.6207 39.8699C88.5942 39.9362 88.3888 39.9229 88.3623 39.903C88.3358 39.8831 88.031 39.8235 87.9316 39.8169L87.9183 39.8699ZM109.254 23.9809C109.247 23.8153 109.241 23.7026 109.254 23.7291C109.267 23.7556 109.552 23.8418 109.903 23.8616L110.115 23.749L110.327 23.6364C110.453 23.3713 110.36 23.2587 110.128 23.3846L109.93 23.484L109.731 23.5833C109.777 23.8219 109.645 23.9875 109.433 23.9544L109.287 23.8749L109.154 23.802C109.035 23.6231 108.936 23.5966 108.936 23.7357C108.936 23.8749 109.274 24.1399 109.267 23.9743L109.254 23.9809ZM85.7119 39.1742C85.798 39.2338 85.9239 39.1742 85.9968 39.0549L86.0763 38.9621C86.1558 38.876 86.5931 38.9224 86.6726 39.0151C86.7389 39.088 86.8052 39.1742 86.8979 39.2272C86.9576 39.2603 87.0768 39.2802 87.1298 39.2471C87.1828 39.2139 87.2292 39.0947 87.2027 39.0682C86.9774 38.8627 86.8913 38.7236 87.3352 38.6441L87.4479 38.6242C87.5406 38.4586 87.4545 38.2863 87.2624 38.2465C87.0702 38.2068 86.507 38.22 86.5202 38.3857L86.4871 38.5182L86.4739 38.5845C86.3745 38.6375 86.2088 38.6242 86.1028 38.5513L86.1956 38.4321L86.2287 38.3923C86.2817 38.3592 86.2552 38.2929 86.1691 38.2598H86.0962C86.0299 38.2664 85.6788 39.0682 85.7053 39.1344L85.7251 39.1742H85.7119ZM90.2573 31.8194C89.9989 31.9453 89.9392 32.0579 90.1181 32.0778C90.297 32.0977 90.5952 32.4886 90.6615 32.5814C90.7277 32.6741 91.0789 32.7404 91.0855 32.7603C91.0921 32.7801 91.0656 32.8597 91.006 32.906C90.9464 32.9524 90.9331 33.0319 90.953 33.0916C90.9729 33.1512 91.2114 33.1181 91.4102 32.8398L91.4897 32.6079L91.6156 32.2567C91.2578 32.0778 90.794 31.9254 90.5753 31.9254L90.3633 31.8591L90.244 31.8194H90.2573ZM143 8.22443C142.854 8.1913 142.708 8.17142 142.682 8.1913C142.655 8.21117 142.49 8.34369 142.397 8.45633C142.304 8.56898 142.768 8.84726 143.033 8.73462L143.271 8.62198L143.371 8.5756C143.53 8.46959 143.145 8.25756 143 8.22443ZM154.714 4.36813C154.781 4.4609 154.94 4.4874 155.066 4.43439C155.191 4.38138 155.476 4.20248 155.49 4.16935C155.503 4.13622 155.463 4.05009 155.397 4.05671H155.337L155.238 4.06997C155.125 4.07659 155.085 4.02358 155.152 3.94407L155.172 3.87119L155.185 3.81155C155.145 3.73867 155.019 3.73204 154.893 3.7983C154.767 3.86456 154.655 4.282 154.721 4.37476L154.714 4.36813ZM146.366 6.64745C146.266 6.55469 146.121 6.57457 146.041 6.68721C145.962 6.79985 145.425 7.07151 145.398 7.11127C145.372 7.15102 145.385 7.29017 145.491 7.34318L145.531 7.3233L145.703 7.22391C145.915 7.20403 146.187 7.15765 146.306 7.13115C146.425 7.10464 146.472 6.74684 146.372 6.65408L146.366 6.64745ZM131.769 13.1939C131.835 13.227 131.875 13.0812 131.862 12.8692L132.233 13.1077L132.445 13.2469C132.557 13.121 132.657 12.9553 132.67 12.8825C132.683 12.8096 132.637 12.6108 132.564 12.6108C132.491 12.6108 132.146 12.7168 131.974 12.856L131.742 12.9023C131.742 12.9023 131.709 13.0614 131.742 13.1342L131.769 13.1939ZM114.495 21.2974C114.601 21.463 114.773 21.4763 114.873 21.3305C114.972 21.1848 115.409 20.8733 115.476 20.827C115.542 20.7806 115.343 20.6149 115.164 20.5619L115.105 20.6083C114.886 20.7806 114.68 20.9794 114.555 21.2046L114.502 21.2974H114.495ZM94.6039 31.1767C94.7298 31.2495 94.8225 31.1435 94.8159 30.9448C94.8093 30.746 94.531 30.4743 94.4515 30.4942C94.372 30.5141 94.1798 30.6068 94.2792 30.64C94.3786 30.6731 94.5111 30.746 94.4184 30.7725C94.3256 30.799 94.2858 30.9779 94.372 31.0773L94.5045 31.1369L94.5973 31.1767H94.6039ZM151.574 4.62654C151.527 4.58679 151.448 4.65305 151.388 4.77894L151.295 4.85183L151.163 4.96447C150.984 5.06386 150.812 5.1765 150.785 5.21625C150.759 5.25601 150.779 5.38853 150.891 5.43491H150.991L151.09 5.42166C151.189 5.36202 151.348 5.2295 151.441 5.13674C151.534 5.04398 151.62 4.6663 151.574 4.63317V4.62654ZM135.433 11.4778C135.479 11.5175 135.532 11.438 135.559 11.2989C135.585 11.1597 136.195 11.3254 136.414 11.2989L136.612 11.2591H136.626C136.612 11.1796 136.493 11.0736 136.361 11.0272C136.228 10.9808 135.797 11.0404 135.678 11.1001C135.559 11.1597 135.393 11.4314 135.44 11.4711L135.433 11.4778ZM85.1023 35.2847C85.0427 34.9402 84.9101 34.7944 84.8041 34.9667C84.6981 35.139 84.6584 35.5365 84.9499 35.4769L85.0625 35.3378L85.1023 35.2847ZM149.765 5.85234C149.957 5.85234 150.116 5.77283 150.129 5.68007L150.176 5.63369C150.301 5.52104 150.434 5.4084 150.215 5.30239L150.156 5.27589C150.003 5.36865 149.718 5.58068 149.526 5.74633H149.241L149.188 5.73307C149.062 5.79933 149.573 5.85897 149.758 5.85897L149.765 5.85234ZM125.66 15.6455C125.494 15.9569 125.58 16.1225 125.865 16.0165L125.945 15.5726C125.945 15.5726 125.991 15.5395 126.004 15.5196L126.024 15.4732C126.037 15.4136 125.951 15.3672 125.839 15.3606L125.819 15.3937L125.66 15.6455ZM88.402 38.0014C88.3225 38.008 88.3424 38.0809 88.4484 38.1538C88.5544 38.2267 88.9188 38.0345 89.058 37.9881L89.1839 37.9682C89.2965 37.9484 89.4092 37.9417 89.5085 37.9152C89.5351 37.9086 89.5483 37.8291 89.535 37.7893L89.5218 37.7496C89.4754 37.7165 89.27 37.6436 89.0712 37.5906C88.8725 37.5376 88.4815 37.9948 88.402 38.0014ZM89.9657 36.7358C89.926 37.1555 90.1778 37.4713 90.7211 37.6833L89.9657 36.7358Z" fill="#EE6529" fill-opacity="0.39"/>
</svg>