<svg width="16" height="16" viewBox="0 0 16 16" fill="none" xmlns="http://www.w3.org/2000/svg">
<g id="Group">
<path id="Vector" d="M2.41836 16.0001H13.5828C14.7532 16.0001 15.7043 15.049 15.7043 13.8786V3.30667C15.7043 2.1363 14.7532 1.18517 13.5828 1.18517H12.7413V0.592585C12.7413 0.266653 12.4746 0 12.1487 0C11.8228 0 11.5561 0.266653 11.5561 0.592585V1.18517H4.44504V0.592585C4.44504 0.266653 4.17834 0 3.85241 0C3.52648 0 3.25983 0.266653 3.25983 0.592585V1.18517H2.41836C1.24799 1.18517 0.296875 2.1363 0.296875 3.30667V13.8786C0.296875 15.049 1.24799 16.0001 2.41836 16.0001ZM1.48209 3.30667C1.48209 2.79113 1.90282 2.37039 2.41836 2.37039H3.25983V2.96298C3.25983 3.28891 3.52648 3.55556 3.85241 3.55556C4.17834 3.55556 4.445 3.28891 4.445 2.96298V2.37039H11.5561V2.96298C11.5561 3.28891 11.8228 3.55556 12.1487 3.55556C12.4746 3.55556 12.7413 3.28891 12.7413 2.96298V2.37039H13.5828C14.0983 2.37039 14.519 2.79113 14.519 3.30667V5.03707H1.48209V3.30667ZM1.48209 6.22224H14.5191V13.8786C14.5191 14.3941 14.0984 14.8149 13.5829 14.8149H2.41836C1.90282 14.8149 1.48209 14.3941 1.48209 13.8786V6.22224Z" fill="#B7B7B7"/>
</g>
</svg>
