<svg width="14" height="17" viewBox="0 0 14 17" fill="none" xmlns="http://www.w3.org/2000/svg">
<g id="Group">
<path id="Vector" d="M10.7539 8.98438H3.25391C2.99503 8.98438 2.78516 9.19425 2.78516 9.45312V12.7031C2.78516 12.962 2.99503 13.1719 3.25391 13.1719H10.7539C11.0128 13.1719 11.2227 12.962 11.2227 12.7031V9.45312C11.2227 9.19425 11.0128 8.98438 10.7539 8.98438Z" fill="white"/>
<path id="Vector_2" d="M11.9727 5.98438H2.03516C1.34481 5.98438 0.785156 6.54403 0.785156 7.23438V8.67188C0.785156 9.36222 1.34481 9.92188 2.03516 9.92188H11.9727C12.663 9.92188 13.2227 9.36222 13.2227 8.67188V7.23438C13.2227 6.54403 12.663 5.98438 11.9727 5.98438Z" fill="white"/>
<path id="Vector_3" d="M10.4727 12.3432L10.2184 11.9305L9.84766 11.1083L8.97266 10.5625H5.03516L4.16016 11.1083L3.28516 11.0292L2.56103 11.2223C1.80981 11.4226 1.28516 12.1055 1.28516 12.883V15.5789L4.77603 16.9539H7.00391L11.1008 15.0331L11.2858 13.7039C11.2858 12.9264 11.2239 12.5436 10.4727 12.3432Z" fill="white"/>
<path id="Vector_4" d="M11.4467 11.2223L10.7227 11.0292L9.84766 11.1083L8.97266 10.5625H7.00391V16.9539H9.23178L12.7227 15.5789V12.883C12.7227 12.1055 12.198 11.4226 11.4467 11.2223Z" fill="white"/>
<path id="Vector_5" d="M8.97266 14.1719H5.03516C4.77628 14.1719 4.56641 13.962 4.56641 13.7031C4.56641 13.4442 4.77628 13.2344 5.03516 13.2344H8.97266C9.23153 13.2344 9.44141 13.4442 9.44141 13.7031C9.44141 13.962 9.23153 14.1719 8.97266 14.1719Z" fill="white"/>
<path id="Vector_6" d="M3.28516 11.0292V16.9539H4.77603C4.78662 16.901 5.03516 15.2384 5.03516 14.2039V11.0789L5.34766 10.8575L5.03516 10.5625L3.28516 11.0292Z" fill="white"/>
<path id="Vector_7" d="M8.97266 10.5625L8.66016 10.8415L8.97266 11.0789V14.2039C8.97266 15.2384 9.22119 16.901 9.23178 16.9539H10.7227V11.0292L8.97266 10.5625Z" fill="white"/>
<path id="Vector_8" d="M11.6602 13.4844H10.7227C10.0323 13.4844 9.47266 14.044 9.47266 14.7344V15.7031C9.47266 16.3935 10.0323 16.9531 10.7227 16.9531H11.6602C12.3505 16.9531 12.9102 16.3935 12.9102 15.7031V14.7344C12.9102 14.044 12.3505 13.4844 11.6602 13.4844Z" fill="#F6B900"/>
<path id="Vector_9" d="M3.28516 13.4844H2.34766C1.65731 13.4844 1.09766 14.044 1.09766 14.7344V15.7031C1.09766 16.3935 1.65731 16.9531 2.34766 16.9531H3.28516C3.9755 16.9531 4.53516 16.3935 4.53516 15.7031V14.7344C4.53516 14.044 3.9755 13.4844 3.28516 13.4844Z" fill="#F6B900"/>
<path id="Vector_10" d="M8.50391 8.20312H5.50391C5.24503 8.20312 5.03516 8.413 5.03516 8.67188V11.0781L6.73834 12.3394C6.81648 12.3931 6.90908 12.4219 7.00391 12.4219C7.00391 12.4219 7.76631 11.4273 7.84631 11.3723L8.13741 10.0859L8.97266 8.67188C8.97266 8.413 8.76278 8.20312 8.50391 8.20312Z" fill="#F6B900"/>
<path id="Vector_11" d="M8.50391 8.20312H7.00391V12.4219C7.09669 12.4219 7.18947 12.3944 7.26947 12.3394L8.97266 11.0781V8.67188C8.97266 8.413 8.76278 8.20312 8.50391 8.20312Z" fill="#F6B900"/>
<path id="Vector_12" d="M9.50391 4.48438H4.50391C4.24503 4.48438 4.03516 4.69425 4.03516 4.95312V7.20312C4.03516 8.84009 5.36694 10.1719 7.00391 10.1719C7.00391 10.1719 8.22266 8.84009 8.22266 7.20312L9.97266 4.95312C9.97266 4.69425 9.76278 4.48438 9.50391 4.48438Z" fill="#F6B900"/>
<path id="Vector_13" d="M9.50391 4.48438H7.00391V10.1719C8.64087 10.1719 9.97266 8.84009 9.97266 7.20312V4.95312C9.97266 4.69425 9.76278 4.48438 9.50391 4.48438Z" fill="#F6B900"/>
<path id="Vector_14" d="M10.5039 0.953125H5.75391C4.80619 0.953125 4.03516 1.72416 4.03516 2.67188V3.20312C4.03516 3.462 4.24503 3.67188 4.50391 3.67188H9.50391C9.58059 3.67188 9.65609 3.65307 9.72381 3.61709C9.77481 3.59 10.9727 2.93622 10.9727 1.42188C10.9727 1.163 10.7628 0.953125 10.5039 0.953125Z" fill="#F6B900"/>
<path id="Vector_15" d="M10.0039 3.20312H4.00391C3.74503 3.20312 3.53516 3.413 3.53516 3.67188V4.95312C3.53516 5.212 3.74503 5.42188 4.00391 5.42188H10.0039C10.2628 5.42188 10.4727 5.212 10.4727 4.95312V3.67188C10.4727 3.413 10.2628 3.20312 10.0039 3.20312Z" fill="white"/>
</g>
</svg>
