<svg width="16" height="17" viewBox="0 0 16 17" fill="none" xmlns="http://www.w3.org/2000/svg">
<g id="Group">
<g id="Layer 2">
<circle id="Ellipse 1986" cx="8" cy="8.94922" r="4.5" fill="white"/>
<path id="Vector" d="M8.00234 3.34766C6.89477 3.34766 5.81207 3.67609 4.89115 4.29143C3.97024 4.90676 3.25247 5.78136 2.82862 6.80463C2.40477 7.82789 2.29387 8.95387 2.50995 10.0402C2.72603 11.1265 3.25937 12.1243 4.04255 12.9075C4.82572 13.6906 5.82355 14.224 6.90984 14.4401C7.99613 14.6561 9.1221 14.5452 10.1454 14.1214C11.1686 13.6975 12.0432 12.9798 12.6586 12.0588C13.2739 11.1379 13.6023 10.0552 13.6023 8.94765C13.6008 7.46292 13.0103 6.03944 11.9604 4.98957C10.9106 3.93971 9.48708 3.34921 8.00234 3.34766ZM10.5517 10.8783C10.502 10.9412 10.4389 10.9921 10.3668 11.0272C10.2948 11.0623 10.2158 11.0807 10.1357 11.081C10.0151 11.082 9.89802 11.0404 9.80501 10.9637L7.67168 9.36365C7.60882 9.31399 7.55796 9.2508 7.52288 9.17878C7.48779 9.10676 7.46938 9.02776 7.46901 8.94765V5.21432C7.46901 5.07287 7.5252 4.93722 7.62522 4.8372C7.72524 4.73718 7.8609 4.68099 8.00234 4.68099C8.14379 4.68099 8.27945 4.73718 8.37947 4.8372C8.47949 4.93722 8.53568 5.07287 8.53568 5.21432V8.69165L10.4663 10.1317C10.5218 10.1744 10.5682 10.2279 10.6026 10.289C10.6371 10.35 10.6589 10.4173 10.6669 10.4869C10.6748 10.5566 10.6687 10.6271 10.649 10.6943C10.6292 10.7615 10.5961 10.8241 10.5517 10.8783Z" fill="#F6B900"/>
<path id="Vector_2" d="M8 0.949219C6.41775 0.949219 4.87103 1.41841 3.55544 2.29746C2.23985 3.17651 1.21447 4.42594 0.608967 5.88775C0.00346635 7.34956 -0.15496 8.95809 0.153721 10.5099C0.462403 12.0618 1.22433 13.4872 2.34315 14.6061C3.46197 15.7249 4.88743 16.4868 6.43928 16.7955C7.99113 17.1042 9.59966 16.9457 11.0615 16.3402C12.5233 15.7347 13.7727 14.7094 14.6518 13.3938C15.5308 12.0782 16 10.5315 16 8.94922C15.9975 6.82826 15.1538 4.79491 13.654 3.29517C12.1543 1.79543 10.121 0.951759 8 0.949219ZM8 15.6516C6.67439 15.6516 5.37855 15.2585 4.27635 14.5221C3.17414 13.7856 2.31508 12.7388 1.80779 11.5141C1.3005 10.2894 1.16777 8.94178 1.42639 7.64164C1.685 6.34151 2.32334 5.14725 3.26069 4.2099C4.19804 3.27256 5.39229 2.63422 6.69243 2.3756C7.99257 2.11699 9.34019 2.24972 10.5649 2.75701C11.7896 3.2643 12.8364 4.12336 13.5728 5.22556C14.3093 6.32777 14.7024 7.62361 14.7024 8.94922C14.7007 10.7263 13.994 12.4301 12.7374 13.6867C11.4809 14.9432 9.77707 15.6499 8 15.6516Z" fill="white"/>
</g>
</g>
</svg>
