<svg width="76" height="68" viewBox="0 0 76 68" fill="none" xmlns="http://www.w3.org/2000/svg">
<g id="Layer_1" clip-path="url(#clip0_6_1937)">
<path id="Vector" d="M72.0904 8.6548C69.998 7.83364 67.009 8.37791 65.8303 10.691C65.0672 12.1887 65.5425 13.6113 65.7716 14.2945L65.8057 14.3963C65.9647 14.8796 66.0291 15.3916 66.0263 15.9425C65.8975 15.756 65.7688 15.5657 65.6324 15.364C65.2253 14.7597 64.804 14.1355 64.3012 13.5142C62.1151 10.8128 59.6668 8.51492 57.0233 6.6842C52.7704 3.7383 47.7922 1.83145 42.6275 1.1711C39.7673 0.805716 36.8474 0.818086 33.9493 1.21011C33.866 1.22153 33.7827 1.23295 33.6994 1.24532C28.4959 1.98845 23.5158 3.96761 19.2989 6.96871C18.6191 7.45208 17.9932 7.95924 17.3873 8.44927L17.1364 8.65194C16.04 9.53686 14.9446 10.5892 13.7848 11.8719C13.6532 12.0175 13.532 12.1697 13.4212 12.3258C11.7956 12.3086 10.2277 12.7444 8.74887 13.6284C7.28799 14.5028 5.97196 15.6684 4.83961 17.0938C4.73357 17.228 4.62848 17.3631 4.52907 17.4954C2.19904 20.5821 0.796857 24.2759 0.24015 28.7889C-0.244602 32.7187 0.00534818 36.6475 0.982426 40.4669C2.10152 44.8411 3.74419 48.1999 6.00321 50.7357C6.71897 51.5388 7.5048 52.2601 8.34081 52.8795C9.75056 53.9243 11.0249 54.6655 12.7055 55.1536L12.9289 55.4086C12.9289 55.4086 14.5062 57.4734 16.841 59.5316C16.841 59.5316 16.842 59.5316 16.8429 59.5325C17.2131 59.8475 17.5738 60.1377 17.908 60.4032C20.9605 62.8305 24.3935 64.6812 28.1115 65.903C29.7523 66.4425 31.3144 66.8316 32.8852 67.0924C34.6528 67.3864 36.463 67.5358 38.2695 67.5358C38.3055 67.5358 38.3405 67.5358 38.3765 67.5358C45.2681 67.5129 52.119 65.293 57.6662 61.2843C63.2399 57.2574 67.4843 51.4808 69.7263 44.9115L71.3481 40.3804C71.4002 40.3375 71.4513 40.2938 71.5025 40.249C73.1773 38.7656 73.752 36.2175 72.8687 34.1907C72.8639 34.1783 72.8573 34.1679 72.8526 34.1555C73.2777 33.636 73.556 33.0137 73.6431 32.3505C73.8192 31.0079 73.183 30.0155 72.9113 29.592C72.899 29.573 72.8867 29.5549 72.8753 29.5359C72.8071 29.2381 72.9065 28.4369 72.9406 28.1667C73.0467 27.3141 73.2767 26.3778 73.5002 25.472L73.5134 25.4187C73.753 24.4462 74.0559 23.4804 74.3769 22.4585C74.5587 21.8781 74.7471 21.2786 74.9251 20.6696L74.9753 20.4974C75.3748 19.1358 75.9788 17.0776 76.0016 15.0652C76.0489 10.8404 73.5731 9.23427 72.0923 8.65289L72.0904 8.6548Z" fill="white"/>
<g id="Group">
<path id="Vector_2" d="M26.9472 31.3826C26.9406 30.5224 26.9349 29.6622 26.8326 28.8049C26.7881 28.4291 26.453 27.5632 25.9086 27.8848C25.8016 27.9476 25.724 28.0513 25.6586 28.1579C25.0603 29.1351 25.0451 30.5395 24.977 31.6538C24.8198 34.1962 25.6425 37.0622 27.4026 38.9348C27.7245 39.2773 28.108 39.6589 28.0663 40.128C28.0161 40.6961 27.3685 41.0757 26.8913 41.2717C25.67 41.7751 24.2725 41.3222 23.4261 40.3411C22.9243 39.7598 22.592 39.0956 22.3298 38.382C22.0438 37.6017 21.8961 36.7929 21.7494 35.9784C21.6367 35.3523 21.5714 34.7243 21.5335 34.0916C21.4814 33.2181 21.4227 32.3455 21.382 31.472C21.3678 31.1771 21.3924 30.8783 21.4123 30.5824C21.4919 29.411 21.471 28.2397 21.4294 27.0675C21.401 26.2577 21.364 25.448 21.3148 24.6382C21.2476 23.5383 21.081 22.4516 20.7808 21.3916C20.6748 21.0167 20.4854 20.6656 20.333 20.3041C20.2582 20.1271 20.1701 19.9548 20.1048 19.775C19.9723 19.4068 20.0385 19.0614 20.2667 18.7502C20.7145 18.1374 21.3281 17.9034 22.0684 17.9766C22.6015 18.029 23.0379 18.2821 23.4176 18.6456C24.0065 19.2108 24.3568 19.9139 24.5755 20.6923C24.7109 21.1737 24.78 21.6666 24.8103 22.1624C24.8529 22.8513 24.8842 23.5411 24.8236 24.2319C24.8075 24.4156 24.8084 24.6021 24.8226 24.7848C24.8274 24.8523 24.8804 24.937 24.9362 24.9713C24.9656 24.9893 25.0697 24.9265 25.1067 24.8761C25.1966 24.7543 25.2752 24.623 25.3443 24.4879C25.5886 24.0064 25.9351 23.6134 26.3564 23.2833C27.3117 22.5335 28.9923 22.7618 29.6664 23.778C30.4351 24.937 30.3462 26.5165 30.1956 27.8334C30.0621 28.9943 29.9144 30.2027 30.2723 31.3398C30.4333 31.8517 30.846 32.434 31.3497 31.9002C31.5296 31.7099 31.6385 31.4777 31.7161 31.2303C31.9206 30.5767 32.0551 29.9153 32.0257 29.2198C31.9841 28.2502 31.9765 27.2787 31.9528 26.3091C31.9367 25.6392 32.0068 24.9732 32.163 24.3271C32.5058 22.9065 33.1202 21.6238 34.1967 20.6028C35.2135 19.638 37.02 19.3183 37.945 20.5809C38.5898 21.4611 38.6333 22.7437 38.4269 23.7771C38.2205 24.8104 37.7254 25.8486 36.9944 26.6355C36.7303 26.92 36.4141 27.135 36.0657 27.3063C35.2098 27.7288 35.7182 28.7326 36.2399 29.2188C36.4055 29.373 36.6025 29.5033 36.825 29.5404C37.6184 29.6727 38.2669 28.7926 38.6239 28.2064C39.0168 27.5613 39.3235 26.8733 39.6483 26.193C40.026 25.3994 40.2002 24.5602 40.3167 23.6962C40.4975 22.3546 40.8526 20.9882 41.5863 19.8369C42.2746 18.7569 43.5556 17.5789 44.9323 17.7654C45.363 17.8234 45.7588 18.0233 46.0873 18.3059C47.7593 19.7465 47.1913 22.4935 46.1669 24.1292C46.0277 24.3518 45.8639 24.5631 45.6878 24.7572C45.3659 25.1111 44.9588 25.3233 44.4911 25.4213C44.3348 25.4546 44.1777 25.4879 44.029 25.5431C43.7753 25.6373 43.6522 25.821 43.6986 26.0874C43.7857 26.5898 43.9448 27.0713 44.2809 27.4661C44.7296 27.9933 45.4075 28.1617 46.0637 27.9371C46.6791 27.7259 47.1553 27.3158 47.605 26.8638C48.5509 25.9133 49.153 24.7105 49.7987 23.5497C49.8849 23.3946 49.9739 23.23 49.9767 23.052C49.9814 22.7514 49.7476 22.5097 49.5525 22.2813C48.6711 21.2461 48.3605 19.7493 48.7573 18.4467C49.0896 17.3543 50.0818 16.3467 51.2104 16.4761C51.8731 16.5522 52.4582 17.0194 52.7602 17.6179C53.0623 18.2164 53.0992 18.9272 52.9496 19.5809C52.8767 19.9006 52.8028 20.325 53.0916 20.4791C53.2128 20.5438 53.3605 20.5286 53.4949 20.501C54.0166 20.3925 54.5004 20.1128 55.0316 20.0785C55.9007 20.0224 56.7471 20.7427 56.8371 21.6133C56.9412 22.6277 56.1696 23.485 55.6309 24.349C55.0363 25.3014 54.6879 26.4071 54.6273 27.5299C54.58 28.3986 54.7987 29.4158 55.5769 29.7964C56.3012 30.1504 57.1656 29.7869 57.8331 29.3349C58.3472 28.9867 58.8234 28.5832 59.2523 28.1332C59.3763 28.0037 59.5004 27.8601 59.5335 27.6831C59.5827 27.4176 59.4142 27.1655 59.2627 26.9419C58.617 25.9846 58.1484 24.8885 58.0367 23.7381C57.9249 22.5877 58.19 21.3802 58.8821 20.4572C59.3394 19.8464 59.9757 19.3706 60.6895 19.1061C61.6287 18.7578 62.7469 18.7987 63.5611 19.3839C64.4445 20.0186 64.8308 21.1909 64.7465 22.2785C64.6622 23.366 64.1718 24.3823 63.5886 25.3024C63.4267 25.5574 63.2496 25.84 63.2951 26.1397C63.3263 26.3443 63.4579 26.5175 63.5829 26.6821C64.8696 28.3834 65.9101 30.3321 66.2178 32.4464C66.5255 34.5607 66.0237 36.8595 64.5694 38.4191C63.1152 39.9786 60.6422 40.6142 58.7496 39.6389C57.4212 38.9538 56.5057 37.537 56.394 36.0412C56.3163 35.0117 56.6127 33.9441 57.2688 33.1496C57.9249 32.355 58.9503 31.8603 59.9766 31.9164C60.29 31.9335 60.6337 32.0211 60.8069 32.2837C60.9262 32.4654 60.9404 32.6938 60.9717 32.9088C61.0455 33.4198 61.3182 33.9879 61.8247 34.0744C62.2707 34.1506 62.7033 33.7861 62.8425 33.3532C62.9826 32.9202 62.8946 32.4473 62.7573 32.0134C62.4477 31.0315 61.8929 30.1285 61.1563 29.412C61.0361 29.295 60.8959 29.176 60.7284 29.1722C60.5286 29.1665 60.3657 29.3245 60.2284 29.471C59.115 30.6661 58.0064 31.9202 56.5682 32.6871C55.2048 33.4141 53.4627 33.6225 52.0984 32.7908C50.9045 32.0629 50.328 30.5177 50.3658 29.1627C50.4141 27.4052 51.1962 25.8286 51.9574 24.2843L51.9612 24.2757C52.0681 24.0597 52.1638 23.7695 51.9905 23.602C51.8636 23.4783 51.6459 23.5012 51.502 23.6039C51.3581 23.7067 51.27 23.8694 51.1867 24.0254C50.5154 25.2881 49.7873 26.4937 49.0006 27.6878C48.4353 28.5461 47.748 29.3863 46.9962 30.0857C45.6745 31.315 43.7961 32.0601 42.1411 31.002C41.5229 30.6071 41.1073 30.0314 40.8336 29.3521C40.7768 29.2112 40.7361 29.0609 40.6642 28.9286C40.5354 28.6907 40.329 28.6888 40.2182 28.9353C40.08 29.2417 39.9692 29.5604 39.8547 29.8773C39.6113 30.55 39.3188 31.1989 38.9448 31.8108C38.5898 32.3922 38.1609 32.9079 37.6023 33.299C37.3684 33.4626 37.1156 33.612 36.8524 33.7205C35.7428 34.1763 34.6407 33.9374 33.7981 33.0753C33.6533 32.9269 33.5264 32.7594 33.3863 32.6062C33.2906 32.5016 33.1997 32.3588 33.0303 32.4188C32.8769 32.473 32.8788 32.6291 32.8665 32.7652C32.7548 33.9755 32.573 35.2791 31.9273 36.3333C31.2816 37.3876 30.1189 37.9357 28.9705 37.2696C28.4715 36.9804 28.0644 36.5884 27.7766 36.0783C27.3979 35.4075 27.1602 34.6948 27.0646 33.9251C26.9595 33.0782 26.951 32.2285 26.9444 31.3778L26.9472 31.3826ZM45.4615 20.795C45.4388 20.6809 45.4265 20.501 45.3649 20.3402C45.2504 20.0414 44.973 19.9824 44.7278 20.1908C44.6558 20.2527 44.5876 20.325 44.5384 20.4059C44.4466 20.5562 44.3632 20.7113 44.2894 20.8712C44.0044 21.4858 43.8529 22.1433 43.71 22.8018C43.6778 22.9493 43.6598 23.1044 43.6626 23.2547C43.6693 23.6467 43.9533 23.8209 44.3008 23.6439C44.4257 23.5801 44.5431 23.4859 44.6388 23.3813C44.7448 23.2642 44.8357 23.1272 44.9095 22.9864C45.257 22.3203 45.3848 21.5962 45.4625 20.7941L45.4615 20.795ZM35.2732 24.6649C35.2732 24.7848 35.2656 24.9056 35.2751 25.0255C35.2874 25.1825 35.3328 25.329 35.4938 25.3966C35.6576 25.4651 35.7968 25.3909 35.9075 25.2843C36.0278 25.1692 36.1404 25.0407 36.2285 24.8999C36.5561 24.3785 36.6943 23.7961 36.7151 23.1881C36.7237 22.9264 36.6972 22.66 36.6546 22.4012C36.6186 22.1833 36.5248 21.9654 36.2749 21.9292C36.0136 21.8912 35.8716 22.0834 35.7589 22.2842C35.6964 22.3955 35.6491 22.5154 35.6046 22.6353C35.3594 23.289 35.331 23.9807 35.2732 24.6649ZM62.7923 22.3003C62.7838 22.2356 62.7781 22.1719 62.7658 22.1091C62.7261 21.9083 62.6352 21.7418 62.4184 21.699C62.2195 21.66 62.0775 21.7732 61.9819 21.9283C61.8863 22.0824 61.7954 22.248 61.7433 22.4202C61.5994 22.896 61.6089 23.3822 61.6903 23.8684C61.6997 23.9227 61.7177 23.9779 61.7433 24.0264C61.8484 24.2338 62.0254 24.2614 62.1845 24.0968C62.212 24.0683 62.2385 24.0369 62.2583 24.0026C62.5679 23.4764 62.6995 22.8941 62.7933 22.2994L62.7923 22.3003ZM51.2198 19.0642C51.1337 19.0671 51.057 19.1651 51.0608 19.2678C51.0646 19.364 51.1384 19.4505 51.216 19.4477C51.2994 19.4458 51.376 19.344 51.3742 19.2412C51.3723 19.1422 51.3022 19.0614 51.2208 19.0642H51.2198Z" fill="black"/>
<path id="Vector_3" d="M8.19931 30.2609C8.20688 33.6559 8.91129 37.2089 10.1781 40.3574C11.2404 42.9979 12.9531 45.8087 15.6183 47.059C19.0466 48.667 23.0666 47.883 25.8748 45.4424C27.4635 44.0607 29.0209 42.643 30.5916 41.2404C32.169 39.8322 33.7397 38.4182 35.3265 37.0214C35.7999 36.6046 36.3073 36.2221 36.8214 35.8558C37.968 35.0375 39.1411 34.2601 40.388 33.5997C41.74 32.8842 43.1573 32.3561 44.6674 32.1087C45.5214 31.9688 46.3849 31.946 47.2465 32.0469C48.0418 32.1401 48.8238 32.3085 49.5575 32.6387C52.4812 33.9547 55.3736 37.7208 54.0519 41.0406C53.2793 42.9808 51.3413 43.9932 49.4061 44.4128C48.7537 44.5546 48.1004 44.6374 47.4339 44.5974C46.9018 44.5651 46.3896 44.4452 45.9257 44.173C45.4135 43.8723 45.1673 43.4194 45.2535 42.8219C45.2847 42.6049 45.3586 42.3785 45.4712 42.192C45.7193 41.7809 46.0052 41.3936 46.2722 40.9949C46.4909 40.6695 46.7437 40.3603 46.9132 40.0101C47.3894 39.0301 47.3279 38.0662 46.7039 37.1632C46.4123 36.7407 46.0014 36.4667 45.5063 36.3296C44.8416 36.1451 44.1704 36.0309 43.4735 36.0604C43.02 36.0794 42.5892 36.1898 42.1556 36.2925C41.3329 36.4867 40.5726 36.8454 39.8351 37.2479C38.3316 38.0681 36.9796 39.1005 35.7128 40.2518C34.7101 41.1634 33.7719 42.1377 32.8715 43.1511C32.0146 44.115 31.154 45.076 30.2707 46.0152C29.3371 47.0076 28.3326 47.9258 27.2978 48.8126C26.4144 49.5691 25.5008 50.2846 24.5076 50.8879C23.4605 51.5245 22.3811 52.1058 21.1891 52.4217C20.2783 52.6625 19.3524 52.8328 18.4103 52.907C17.5223 52.9774 16.637 52.9565 15.7556 52.8461C13.6547 52.5826 11.7327 51.8442 10.0257 50.5787C9.33071 50.0639 8.69732 49.4777 8.11789 48.8279C5.85508 46.2882 4.56746 43.0169 3.73145 39.7523C2.8481 36.2982 2.62088 32.6758 3.05734 29.1362C3.50044 25.5413 4.59397 22.1273 6.78955 19.2166C6.87666 19.1005 6.96565 18.9863 7.05655 18.8721C7.94179 17.7579 8.97851 16.8092 10.1999 16.0785C11.3956 15.3629 12.6918 15.0499 14.0817 15.2221C15.7821 15.4333 17.0621 16.7873 17.7571 18.286C19.2369 21.4774 19.0598 25.3919 17.5024 28.5063C17.1473 29.217 16.7241 29.8926 16.2441 30.5244C15.7802 31.1344 15.1951 31.6853 14.5172 32.0469C13.9804 32.3333 13.364 32.4703 12.7865 32.2267C12.4172 32.0706 12.1029 31.8413 11.8482 31.5349C11.0387 30.5587 10.5719 28.551 11.8577 27.7479C12.4759 27.3616 13.4123 27.5795 13.7039 26.7688C13.8563 26.3454 13.9832 25.9181 14.0447 25.469C14.1091 24.9932 14.2313 24.5241 14.289 24.0474C14.4462 22.7401 14.6573 21.1158 14.1565 19.8579C13.9946 19.4516 13.684 19.0767 13.2589 18.9406C12.9408 18.8388 12.5886 18.8845 12.2799 19.0139C11.4269 19.3745 10.8342 20.2452 10.3779 21.0159C9.79085 22.0083 9.40077 23.1083 9.06277 24.2073C8.51553 25.9847 8.24192 27.8431 8.20215 29.7014C8.19836 29.8879 8.19647 30.0753 8.19647 30.2618L8.19931 30.2609Z" fill="black"/>
<path id="Vector_4" d="M38.4396 58.687C35.4696 58.6556 32.5734 58.1646 29.7378 57.2997C29.3647 57.1864 29.0068 57.0199 28.649 56.861C27.5886 56.391 26.5585 55.861 25.5691 55.2529C25.2424 55.0522 24.9262 54.8324 24.6213 54.6002C24.2237 54.2976 24.2351 54.0055 24.6441 53.7181C24.8533 53.5716 25.0739 53.4412 25.2936 53.309C26.228 52.7466 27.083 52.0758 27.9247 51.3831C29.662 49.9549 31.2356 48.3611 32.7248 46.6807C33.8515 45.4095 34.9858 44.1458 36.2099 42.9669C37.6008 41.6262 39.1166 40.4587 40.8369 39.57C41.6842 39.1323 42.5714 38.8297 43.5219 38.7488C44.0114 38.707 44.4971 38.7907 44.9506 38.9829C45.3502 39.1523 45.5537 39.5747 45.4439 39.9953C45.388 40.2085 45.2924 40.4187 45.1769 40.6071C45.0264 40.8517 44.8408 41.0753 44.6647 41.3037C44.251 41.8384 43.8751 42.3998 43.6488 43.0402C43.3402 43.9175 43.3771 44.7691 43.9035 45.5722C44.4952 46.4742 45.3435 46.9795 46.3784 47.1488C48.3136 47.4657 50.1608 47.1764 51.9047 46.2544C52.6006 45.8862 53.2331 45.4237 53.8636 44.9584C54.0038 44.8547 54.1287 44.7253 54.2423 44.5921C54.5226 44.2629 54.8019 43.9318 55.0623 43.5864C55.5158 42.9878 55.7543 42.2913 55.9286 41.5682C55.9522 41.4673 55.9797 41.3646 56.028 41.2742C56.1208 41.101 56.2798 41.0448 56.454 41.1333C56.5799 41.198 56.6954 41.2894 56.8043 41.3817C57.5523 42.0154 58.4082 42.4312 59.3587 42.6405C59.6844 42.7119 60.0234 42.7233 60.3557 42.7633C60.4977 42.7804 60.6435 42.7871 60.7818 42.8223C61.0374 42.887 61.1538 43.0592 61.1254 43.3218C61.1141 43.4236 61.0876 43.5283 61.0488 43.6235C60.5839 44.7615 60.0205 45.8472 59.4099 46.9129C58.0162 49.344 56.1122 51.3194 53.9772 53.0816C51.1719 55.3976 48.0106 57.0256 44.4848 57.922C43.1508 58.2607 41.7969 58.4881 40.4241 58.5804C39.7632 58.6251 39.1005 58.6508 38.4387 58.6841L38.4396 58.687Z" fill="#EE7E56"/>
<path id="Vector_5" d="M58.0443 19.6101C58.031 19.8422 57.9051 20.0297 57.6939 20.1572C57.4932 20.278 57.2935 20.2419 57.1079 20.1172C57.0018 20.0459 56.9034 19.9631 56.803 19.8841C56.376 19.5482 55.8951 19.3532 55.3526 19.3179C54.7892 19.2818 54.6169 19.1514 54.456 18.5957C54.2467 17.8754 53.8784 17.256 53.316 16.7631C52.5861 16.1237 51.7557 15.744 50.7635 15.785C50.044 15.8154 49.4143 16.0971 48.8245 16.4777C48.4108 16.7441 48.0604 17.0838 47.7868 17.4986C47.7518 17.5519 47.7149 17.6043 47.6751 17.6556C47.4176 17.9915 47.1837 18.0382 46.8268 17.8212C46.7179 17.7546 46.6147 17.6785 46.5058 17.6109C45.8933 17.2313 45.2296 17.0181 44.5072 17.0429C43.9031 17.0628 43.3218 17.2037 42.7793 17.4806C41.646 18.06 40.7693 18.9174 40.0952 19.9935C40.0014 20.1429 39.9124 20.2971 39.7998 20.4312C39.6047 20.6615 39.3775 20.671 39.1512 20.4731C39.085 20.415 39.0272 20.3484 38.9685 20.2828C38.2897 19.533 37.4612 19.1 36.4453 19.0039C35.7835 18.9421 35.1776 19.101 34.5821 19.3436C33.9903 19.5844 33.4781 19.9545 33.018 20.397C32.3316 21.0564 31.7465 21.7938 31.3081 22.6445C31.2352 22.7872 31.1614 22.9309 31.0686 23.0612C30.9029 23.2943 30.6842 23.3362 30.4399 23.1906C30.3443 23.1335 30.2553 23.0641 30.1701 22.9918C29.2943 22.2515 28.2775 22.0355 27.165 22.1706C27.0305 22.1868 26.8942 22.202 26.7598 22.2001C26.5117 22.1953 26.3347 22.0726 26.2428 21.8404C26.205 21.7443 26.1813 21.6416 26.1576 21.5407C25.9048 20.4588 25.4437 19.4826 24.6977 18.6547C24.211 18.1152 23.606 17.7432 22.9386 17.4749C22.5239 17.3083 22.0855 17.2779 21.6434 17.2855C21.4995 17.2884 21.3546 17.2988 21.2126 17.2855C20.9115 17.2589 20.8055 17.0533 20.9636 16.7983C21.0346 16.6841 21.1255 16.5766 21.2249 16.4862C21.7049 16.0504 22.1868 15.6175 22.6763 15.1922C23.8162 14.2007 25.0717 13.3709 26.3754 12.6202C27.5541 11.9418 28.7811 11.3613 30.0688 10.9113C31.345 10.465 32.6431 10.0996 33.9695 9.84652C34.4704 9.75137 34.9788 9.69142 35.4862 9.63433C36.0893 9.56582 36.6934 9.50398 37.2984 9.46401C38.2158 9.40311 39.1332 9.40026 40.0497 9.50873C40.5013 9.56202 40.9549 9.60864 41.4084 9.6448C42.2794 9.71521 43.1277 9.90457 43.9741 10.1091C45.6708 10.5192 47.3182 11.0654 48.8927 11.8323C50.2769 12.507 51.5882 13.3034 52.8351 14.2026C53.3984 14.6089 53.9286 15.0637 54.4531 15.5214C55.0022 16 55.5561 16.4786 56.0532 17.0096C56.6714 17.668 57.2366 18.3778 57.8208 19.0696C57.9448 19.2171 58.0424 19.3846 58.0461 19.612L58.0443 19.6101Z" fill="#EE7E56"/>
<path id="Vector_6" d="M38.369 64.6816C36.6913 64.6874 35.0117 64.5532 33.3511 64.2773C31.8684 64.0308 30.4227 63.6588 28.9959 63.1906C25.5903 62.0716 22.482 60.4008 19.672 58.1656C18.9827 57.6176 18.302 57.059 17.6762 56.4367C17.5739 56.3349 17.4669 56.236 17.3827 56.1199C17.2198 55.8944 17.2407 55.6717 17.5076 55.5366C17.7453 55.4158 18.0369 55.4395 18.2954 55.4091C18.6315 55.3691 18.9647 55.3073 19.2971 55.2397C19.9797 55.1008 20.6595 54.9324 21.3554 54.8686C21.7341 54.8334 22.1402 54.8353 22.5 54.9752C22.8863 55.1246 23.2054 55.4586 23.5424 55.6945C24.1361 56.1104 24.7401 56.5081 25.3659 56.8735C26.5863 57.5871 27.8673 58.1923 29.1871 58.6947C30.3309 59.1305 31.502 59.4683 32.695 59.7404C39.2259 61.2276 46.269 60.0221 51.9686 56.4976C56.6703 53.5898 60.4082 49.1357 62.4674 43.988C62.6625 43.4999 62.8461 43.0003 63.1444 42.5683C63.4663 42.1011 63.9084 41.732 64.3591 41.3904C64.8334 41.0307 65.3476 40.6843 65.9346 40.5882C66.5216 40.4921 67.1985 40.7138 67.4664 41.2467C67.7031 41.7186 67.5706 42.2848 67.421 42.7919C65.5095 49.248 61.4534 55.0351 56.0085 58.9697C50.8949 62.6644 44.6632 64.6636 38.3681 64.6835L38.369 64.6816Z" fill="black"/>
<path id="Vector_7" d="M63.4837 18.4078C63.4136 18.3935 63.2868 18.3764 63.1646 18.3412C62.5634 18.168 61.9651 18.188 61.3695 18.3612C60.9785 18.4744 60.5875 18.5886 60.2003 18.7123C59.6862 18.8759 59.3908 18.8084 59.0641 18.3697C56.4586 14.8738 52.8712 12.0735 48.9089 10.3018C45.6141 8.82884 42.0116 8.06097 38.4063 8.05145C34.4658 8.04194 30.4988 8.94778 26.9408 10.6938C24.4602 11.9118 22.2419 13.5579 20.2243 15.4429C19.9384 15.7102 19.6903 16.0176 19.4224 16.304C19.2917 16.4439 19.1677 16.5951 19.0172 16.7112C18.7739 16.9006 18.5296 16.8863 18.2948 16.6893C18.1916 16.6028 18.0988 16.5 18.0098 16.3982C17.4881 15.8054 16.8718 15.3458 16.139 15.047C16.0216 14.9994 15.9051 14.9414 15.8 14.8691C15.5311 14.6835 15.4696 14.4171 15.6324 14.1345C15.7034 14.0108 15.7924 13.8938 15.8881 13.7872C16.8292 12.7453 17.8214 11.7567 18.9149 10.8746C19.5815 10.337 20.2433 9.79083 20.9401 9.29509C24.8314 6.52617 29.3816 4.74207 34.0994 4.06839C34.1761 4.05697 34.2528 4.04651 34.3295 4.03604C36.9596 3.68017 39.6371 3.66304 42.2701 3.99988C46.9747 4.60124 51.5069 6.32635 55.4133 9.03152C57.9526 10.7899 60.1567 12.9128 62.0995 15.3125C62.7026 16.0575 63.2139 16.8787 63.763 17.6675C63.817 17.7455 63.8605 17.835 63.8927 17.9244C63.9987 18.2203 63.8548 18.4173 63.4846 18.4087L63.4837 18.4078Z" fill="black"/>
<path id="Vector_8" d="M19.6941 32.8919C19.7244 33.7644 19.731 34.7045 19.8001 35.6399C19.8493 36.3097 19.9961 36.971 20.0785 37.639C20.1949 38.5877 20.495 39.4811 20.8387 40.3641C21.1796 41.2395 21.6444 42.036 22.3148 42.7049C23.0438 43.4328 23.9082 43.9 24.9099 44.115C25.0027 44.135 25.0992 44.155 25.1835 44.1959C25.3814 44.2911 25.4372 44.468 25.3255 44.6555C25.2735 44.743 25.2005 44.8239 25.1229 44.8896C24.3494 45.5404 23.5418 46.1408 22.6234 46.5738C21.8272 46.9487 20.9921 47.177 20.1097 47.2056C19.4792 47.2265 18.8505 47.2141 18.2218 47.1266C17.614 47.0419 17.1984 46.7279 16.9143 46.1941C16.4513 45.3235 16.0196 44.4366 15.6551 43.5203C15.407 42.8952 15.1647 42.2653 14.9696 41.6221C14.7415 40.8713 14.5758 40.1025 14.3684 39.3451C14.2094 38.7618 14.1658 38.1604 14.0768 37.5667C13.9963 37.0357 13.932 36.5019 13.8628 35.97C13.8496 35.8673 13.8439 35.7626 13.842 35.6589C13.8354 35.3477 13.9765 35.1203 14.2453 34.9738C14.3438 34.9205 14.4442 34.8691 14.5483 34.8301C15.6182 34.4267 16.4674 33.7282 17.1889 32.8548C17.8857 32.0108 18.4708 31.0944 18.9736 30.1229C19.0474 29.9812 19.1279 29.8413 19.2178 29.7109C19.2775 29.6243 19.3655 29.5568 19.4829 29.5844C19.6003 29.612 19.6477 29.7128 19.6657 29.8166C19.6865 29.9336 19.6922 30.0554 19.6922 30.1753C19.6941 31.0583 19.6931 31.9413 19.6931 32.8909L19.6941 32.8919Z" fill="#EE7E56"/>
<path id="Vector_9" d="M66.5556 27.2785C66.5481 26.3174 66.6872 25.3621 66.9561 24.4972C67.5119 22.714 68.0771 20.8909 68.4691 19.0478C68.861 17.2019 69.1053 15.3312 68.5022 13.4976C68.3394 13.0038 68.1226 12.4519 68.3583 11.9885C68.8099 11.1017 70.2538 10.9942 71.0566 11.3101C74.4073 12.626 72.9275 17.3703 72.1975 19.8623C71.7203 21.4913 71.1589 23.0823 70.7537 24.7312C70.5075 25.7322 70.249 26.7723 70.1203 27.8104C69.9915 28.8485 69.8713 30.0255 70.391 30.9237C70.5851 31.2587 70.8767 31.5888 70.8256 31.9733C70.7963 32.1978 70.6467 32.3938 70.4592 32.5204C70.0796 32.7773 69.5939 32.8144 69.1621 32.6831C68.559 32.4995 68.0676 32.0418 67.7202 31.5137C66.9126 30.2862 66.566 28.7333 66.5547 27.2785H66.5556Z" fill="black"/>
<path id="Vector_10" d="M14.1354 43.8164C14.1354 43.9801 14.1317 44.0867 14.018 44.1409C13.9148 44.1904 13.8296 44.138 13.7539 44.0781C13.6791 44.0191 13.6062 43.9535 13.5494 43.8773C13.3676 43.6337 13.183 43.3911 13.0192 43.1351C12.4151 42.1941 11.9616 41.176 11.5564 40.1379C11.3358 39.5717 11.1607 38.9865 10.9883 38.4032C10.7848 37.7124 10.585 37.0188 10.4222 36.3175C10.2849 35.7247 10.2025 35.1195 10.0965 34.5201C10.0586 34.3069 10.0113 34.0948 9.99044 33.8807C9.97245 33.6951 9.98287 33.4982 10.1864 33.404C10.3777 33.3155 10.5339 33.4201 10.6598 33.5467C11.0575 33.9463 11.5025 34.2822 11.9749 34.5857C12.258 34.7675 12.3744 35.051 12.4 35.3812C12.4436 35.9483 12.4824 36.5164 12.5458 37.0816C12.6007 37.5669 12.6935 38.0483 12.7579 38.5326C12.9397 39.8876 13.2947 41.2007 13.7132 42.4986C13.8211 42.8345 13.9423 43.1656 14.0521 43.5005C14.0919 43.6214 14.1175 43.747 14.1354 43.8174V43.8164Z" fill="black"/>
<path id="Vector_11" d="M68.3031 38.5945C67.451 38.6297 66.721 38.0797 66.5979 37.0958C66.472 36.091 66.7712 35.2232 67.6034 34.5933C68.4839 33.9273 69.7555 34.1642 70.2677 35.3384C70.6672 36.2556 70.3737 37.4469 69.6257 38.1102C69.2423 38.4498 68.7973 38.6107 68.3031 38.5945Z" fill="black"/>
<path id="Vector_12" d="M12.8839 23.0508C12.8082 23.9347 12.8385 24.8301 12.6435 25.7027C12.5895 25.9443 12.5166 26.1832 12.4333 26.4153C12.3178 26.7389 12.0915 26.9672 11.7838 27.1204C11.4269 27.2974 11.0756 27.4848 10.7215 27.6675C10.7007 27.679 10.6789 27.6885 10.6571 27.6989C10.5208 27.7617 10.3788 27.7931 10.2491 27.6951C10.1203 27.5971 10.1061 27.4515 10.1317 27.3022C10.2585 26.5438 10.4024 25.7883 10.6543 25.0594C10.9478 24.2107 11.2668 23.3733 11.7279 22.5997C11.8179 22.4494 11.9201 22.3048 12.0299 22.1678C12.0887 22.0945 12.1672 22.0317 12.2487 21.9841C12.4636 21.8595 12.6842 21.9251 12.7864 22.1535C12.8404 22.2743 12.8688 22.4132 12.8811 22.5465C12.8972 22.713 12.8849 22.8823 12.8849 23.0508H12.8839Z" fill="black"/>
<path id="Vector_13" d="M56.2051 28.4177C56.2477 28.1693 56.2808 27.9314 56.331 27.6974C56.3509 27.606 56.3944 27.5137 56.4475 27.4366C56.5715 27.2578 56.7741 27.2368 56.9161 27.3995C57.1178 27.6307 57.2645 27.9029 57.3175 28.2064C57.3819 28.5718 56.9937 28.9981 56.6217 29.0009C56.4598 29.0019 56.3376 28.9315 56.2827 28.784C56.2392 28.667 56.2287 28.5366 56.2051 28.4177Z" fill="#EE7E56"/>
<g id="Group_2">
<g id="Group_3">
<path id="Vector_14" d="M27.7629 18.3318C27.7373 18.3318 27.7127 18.3289 27.6871 18.3242C27.583 18.3023 27.4893 18.2357 27.4107 18.1272C26.9288 17.4659 26.4317 16.8008 25.9347 16.1499C25.8504 16.0396 25.8173 15.9263 25.8381 15.8131C25.858 15.7008 25.9299 15.6 26.0521 15.5153C26.1496 15.4468 26.248 15.4125 26.3437 15.4125C26.3635 15.4125 26.3834 15.4144 26.4024 15.4173C26.5169 15.4344 26.6163 15.501 26.6959 15.6123C26.8578 15.8407 27.0187 16.0691 27.1787 16.2974C27.5432 16.0567 27.9191 15.8245 28.2988 15.6066C28.1567 15.3678 28.0138 15.1299 27.8699 14.893C27.7979 14.774 27.7771 14.658 27.8093 14.5485C27.8405 14.4391 27.921 14.3478 28.0488 14.2783C28.1397 14.2288 28.2268 14.2031 28.3101 14.2031C28.3452 14.2031 28.3792 14.2079 28.4114 14.2164C28.5241 14.2469 28.615 14.323 28.6822 14.4429C29.0836 15.1594 29.4822 15.8902 29.8666 16.6143C29.9301 16.7332 29.9481 16.8464 29.9225 16.9502C29.896 17.0567 29.8231 17.1424 29.7076 17.2052C29.6356 17.2442 29.5637 17.2642 29.4946 17.2642C29.4557 17.2642 29.4179 17.2575 29.3809 17.2461C29.2796 17.2118 29.1944 17.1367 29.1272 17.0196C28.9804 16.7656 28.8337 16.5115 28.6851 16.2584C28.3215 16.4668 27.9608 16.6894 27.6114 16.9197C27.7771 17.1604 27.9418 17.4021 28.1066 17.6438C28.1814 17.7551 28.2126 17.8646 28.1994 17.9692C28.1852 18.0768 28.1227 18.17 28.0138 18.2461C27.9305 18.3032 27.8462 18.3327 27.7638 18.3327L27.7629 18.3318Z" fill="white"/>
<path id="Vector_15" d="M28.3111 14.2987C28.3376 14.2987 28.3631 14.3016 28.3877 14.3082C28.4749 14.332 28.5459 14.392 28.5998 14.489C29.0022 15.2084 29.397 15.9315 29.7833 16.6585C29.8354 16.7565 29.8505 16.8459 29.8306 16.9259C29.8108 17.0058 29.754 17.0705 29.6621 17.1209C29.6034 17.1523 29.5476 17.1685 29.4945 17.1685C29.4661 17.1685 29.4377 17.1638 29.4103 17.1552C29.3317 17.1285 29.2645 17.0676 29.2086 16.9715C29.0467 16.6899 28.8839 16.4092 28.7191 16.1295C28.2969 16.3692 27.8831 16.6242 27.4788 16.8945C27.6635 17.1618 27.8462 17.4292 28.028 17.6985C28.0905 17.7908 28.116 17.8774 28.1047 17.9583C28.0942 18.0391 28.046 18.1096 27.9589 18.1695C27.8916 18.2161 27.8263 18.239 27.7629 18.239C27.7439 18.239 27.7259 18.2371 27.707 18.2333C27.6256 18.2161 27.5527 18.1628 27.4864 18.0725C27.0017 17.4073 26.5093 16.7479 26.0094 16.0933C25.9422 16.0048 25.9157 15.9173 25.9308 15.8307C25.946 15.7441 26.0047 15.6651 26.106 15.5947C26.1884 15.5376 26.2679 15.5091 26.3436 15.5091C26.3588 15.5091 26.3739 15.51 26.3881 15.5129C26.4781 15.5262 26.5548 15.5785 26.6192 15.6699C26.799 15.923 26.977 16.1761 27.155 16.4301C27.5707 16.1523 27.9967 15.8897 28.4304 15.6432C28.2722 15.3768 28.1122 15.1104 27.9513 14.8449C27.8935 14.7497 27.8765 14.6603 27.9011 14.5756C27.9257 14.4919 27.9901 14.4196 28.0952 14.3625C28.1719 14.3206 28.2448 14.2997 28.3111 14.2997M28.3111 14.1094C28.2126 14.1094 28.1094 14.1389 28.0043 14.196C27.8538 14.2778 27.7581 14.3882 27.7193 14.5233C27.6919 14.6175 27.6824 14.7669 27.7903 14.9448C27.9172 15.1532 28.0441 15.3644 28.169 15.5747C27.8433 15.7641 27.5195 15.9639 27.2043 16.1704C27.0613 15.9658 26.9164 15.7612 26.7735 15.5595C26.6779 15.4253 26.5586 15.3463 26.4175 15.3254C26.3929 15.3216 26.3683 15.3197 26.3446 15.3197C26.2291 15.3197 26.1126 15.3597 25.999 15.4396C25.8551 15.5395 25.7699 15.6604 25.7453 15.7983C25.7282 15.8954 25.7339 16.0457 25.8598 16.2103C26.3569 16.8602 26.853 17.5244 27.3349 18.1857C27.4287 18.3141 27.5404 18.3922 27.6682 18.4198C27.6994 18.4264 27.7307 18.4302 27.7629 18.4302C27.8651 18.4302 27.9674 18.396 28.0658 18.3275C28.1984 18.2361 28.2741 18.12 28.2921 17.984C28.3092 17.8555 28.2722 17.7232 28.1842 17.5929C28.0384 17.3778 27.8916 17.1618 27.7439 16.9478C28.0403 16.7536 28.3442 16.5671 28.65 16.3892C28.7826 16.6157 28.9151 16.844 29.0439 17.0686C29.1224 17.2056 29.2256 17.296 29.3497 17.3379C29.3961 17.3531 29.4444 17.3617 29.4936 17.3617C29.5788 17.3617 29.665 17.3379 29.7521 17.2913C29.8922 17.2151 29.9802 17.1095 30.0143 16.9763C30.0465 16.8488 30.0247 16.7127 29.9509 16.5729C29.5655 15.8468 29.1669 15.1161 28.7655 14.3996C28.685 14.2569 28.5752 14.1655 28.437 14.1284C28.3963 14.1179 28.3537 14.1122 28.3111 14.1122V14.1094Z" fill="black"/>
</g>
<g id="Group_4">
<path id="Vector_16" d="M30.2302 16.8929C30.2075 16.8929 30.1848 16.891 30.163 16.8862C30.0806 16.87 30.0106 16.8263 29.9557 16.7568C29.9017 16.6892 29.8724 16.6008 29.8686 16.4942C29.8146 15.6036 29.7985 14.692 29.8193 13.789C29.8241 13.6596 29.8544 13.553 29.9102 13.4693C29.9661 13.3846 30.0475 13.319 30.1507 13.2761C30.2227 13.2457 30.2965 13.2305 30.3685 13.2305C30.3988 13.2305 30.43 13.2333 30.4594 13.239C30.5607 13.2571 30.6601 13.3094 30.7567 13.3951C31.4554 13.9945 32.1219 14.6378 32.7364 15.3076C32.8083 15.3828 32.8528 15.4646 32.867 15.5493C32.8831 15.6397 32.867 15.7215 32.8197 15.792C32.7742 15.8586 32.7061 15.908 32.6152 15.9385C32.5584 15.9575 32.5035 15.968 32.4533 15.968C32.4059 15.968 32.3605 15.9594 32.3188 15.9413C32.2412 15.909 32.1636 15.8481 32.0812 15.7568C31.9931 15.6616 31.9023 15.5674 31.8104 15.4722C31.4118 15.6216 31.0142 15.7872 30.625 15.9632C30.6307 16.0926 30.6364 16.222 30.644 16.3505C30.6506 16.4751 30.6411 16.5713 30.6156 16.6445C30.5853 16.7283 30.5181 16.7968 30.4168 16.8462C30.3524 16.8776 30.2899 16.8938 30.2293 16.8938L30.2302 16.8929ZM30.5862 14.2667C30.5862 14.5607 30.5919 14.8633 30.6004 15.1839C30.8172 15.0888 31.0378 14.9974 31.2594 14.9109C31.0284 14.6815 30.8059 14.4684 30.5862 14.2667Z" fill="white"/>
<path id="Vector_17" d="M30.3635 13.3241C30.3882 13.3241 30.4137 13.326 30.4383 13.3307C30.5226 13.346 30.6059 13.3907 30.6892 13.4649C31.3946 14.0701 32.0526 14.7066 32.6623 15.3708C32.7229 15.4345 32.758 15.4992 32.7693 15.5639C32.7807 15.6296 32.7693 15.6867 32.7371 15.7362C32.704 15.7856 32.6519 15.8218 32.5809 15.8465C32.5336 15.8627 32.49 15.8703 32.4493 15.8703C32.4143 15.8703 32.3811 15.8637 32.3508 15.8513C32.2865 15.8247 32.2192 15.7714 32.1473 15.6914C32.0441 15.5801 31.9371 15.4697 31.8311 15.3594C31.3889 15.524 30.9524 15.7048 30.5235 15.9008C30.5302 16.0521 30.5368 16.2034 30.5453 16.3537C30.551 16.4641 30.5434 16.5497 30.5217 16.6097C30.4999 16.6696 30.4497 16.7191 30.3702 16.7581C30.319 16.7828 30.2708 16.7962 30.2244 16.7962C30.2083 16.7962 30.1912 16.7943 30.1761 16.7914C30.1155 16.779 30.0653 16.7476 30.0236 16.6963C29.9829 16.6449 29.9602 16.5754 29.9574 16.4888C29.9034 15.5963 29.8873 14.6962 29.9081 13.7894C29.9119 13.679 29.9375 13.5886 29.9829 13.5201C30.0284 13.4506 30.0947 13.3983 30.1808 13.3621C30.2414 13.3364 30.302 13.3241 30.3616 13.3241M30.5037 15.327C30.8066 15.1919 31.1134 15.0653 31.423 14.9455C31.1229 14.6438 30.8142 14.3479 30.4942 14.0586C30.4914 14.0596 30.4885 14.0615 30.4857 14.0624C30.4838 14.4849 30.4914 14.9064 30.5046 15.3261M30.3626 13.1328C30.2783 13.1328 30.1922 13.1509 30.1089 13.1851C29.9877 13.2356 29.892 13.3127 29.8258 13.4135C29.7604 13.5125 29.7245 13.6362 29.7197 13.7817C29.6989 14.6905 29.715 15.6039 29.769 16.4993C29.7737 16.622 29.8097 16.7296 29.8759 16.8133C29.9441 16.8999 30.036 16.956 30.1392 16.977C30.1666 16.9827 30.195 16.9855 30.2244 16.9855C30.2992 16.9855 30.3768 16.9665 30.4535 16.9284C30.5785 16.8675 30.6618 16.7819 30.6996 16.6734C30.7299 16.5878 30.7413 16.4803 30.7337 16.3423C30.7271 16.2348 30.7224 16.1272 30.7176 16.0207C31.0661 15.8637 31.423 15.7162 31.7809 15.5811C31.8566 15.66 31.9343 15.7409 32.0081 15.8209C32.098 15.9208 32.187 15.9893 32.2779 16.0273C32.331 16.0492 32.3887 16.0606 32.4484 16.0606C32.508 16.0606 32.5733 16.0492 32.6405 16.0264C32.7513 15.9893 32.8356 15.9274 32.8924 15.8427C32.953 15.7523 32.9748 15.6448 32.9549 15.5306C32.9369 15.4269 32.8839 15.3289 32.7977 15.2385C32.1823 14.5687 31.5129 13.9226 30.8104 13.3193C30.7034 13.2242 30.5879 13.1642 30.4696 13.1433C30.4336 13.1366 30.3976 13.1338 30.3616 13.1338L30.3626 13.1328ZM30.6864 15.0397C30.6817 14.8484 30.6788 14.6638 30.6769 14.483C30.8104 14.6086 30.9458 14.738 31.084 14.8741C30.9505 14.9274 30.818 14.9826 30.6864 15.0397Z" fill="black"/>
</g>
<g id="Group_5">
<path id="Vector_18" d="M34.9542 15.14C34.8191 15.1319 34.6896 15.1088 34.5695 15.0711C34.2985 14.9872 34.0646 14.8388 33.8752 14.6282C33.6831 14.4155 33.5407 14.1477 33.4525 13.8317C33.3822 13.5806 33.3585 13.3437 33.3829 13.1259C33.4079 12.8996 33.4819 12.6934 33.6027 12.5128C33.7246 12.3305 33.8934 12.1738 34.1039 12.0472C34.3165 11.9198 34.5703 11.8302 34.8598 11.7789C35.0381 11.7477 35.2229 11.7359 35.4082 11.7451L35.4318 11.7465C35.6114 11.7573 35.7894 11.7937 35.9622 11.8546C36.055 11.8878 36.124 11.9405 36.1673 12.0089C36.2088 12.0753 36.229 12.1499 36.2261 12.2298C36.2233 12.3087 36.2009 12.3808 36.1592 12.444C36.1154 12.511 36.0536 12.5597 35.9751 12.5874C35.9305 12.6038 35.8809 12.6094 35.827 12.6062C35.7883 12.6039 35.7479 12.5967 35.705 12.5846C35.6 12.5487 35.494 12.5281 35.3853 12.5216C35.2663 12.5144 35.1443 12.5233 35.0159 12.5461C34.8136 12.5816 34.6512 12.6482 34.5326 12.744C34.4189 12.8363 34.3496 12.9494 34.3183 13.0915C34.2868 13.2364 34.2953 13.4113 34.344 13.6116C34.4155 13.9056 34.5395 14.1161 34.7115 14.237C34.8171 14.311 34.9399 14.3508 35.0864 14.3596C35.1743 14.3648 35.2724 14.3583 35.3768 14.3408C35.4726 14.3246 35.5709 14.2981 35.6698 14.263C35.7056 14.2509 35.7435 14.236 35.7834 14.2183C35.7608 14.074 35.7382 13.9297 35.7146 13.7853C35.6141 13.8002 35.5135 13.8161 35.4129 13.833C35.3717 13.84 35.3337 13.8415 35.2978 13.8394C35.2364 13.8357 35.1804 13.819 35.1339 13.7886C35.0562 13.7391 35.0067 13.6637 34.9862 13.5624C34.9651 13.4563 34.9828 13.3658 35.0403 13.293C35.0947 13.2238 35.1799 13.1794 35.293 13.1604C35.5277 13.122 35.766 13.0858 36.0031 13.0552C36.0375 13.0506 36.0698 13.0497 36.1 13.0515C36.1728 13.0559 36.2369 13.0778 36.2886 13.1181C36.362 13.1749 36.4071 13.2606 36.4222 13.373C36.4684 13.7094 36.5136 14.0467 36.557 14.3839C36.5686 14.4742 36.5608 14.5567 36.5339 14.6265C36.5036 14.7048 36.4449 14.7661 36.3598 14.8086C36.2394 14.871 36.1032 14.9286 35.9453 14.984C35.7903 15.0376 35.6342 15.0778 35.4799 15.1048C35.293 15.1374 35.1159 15.1487 34.9543 15.139L34.9542 15.14Z" fill="white"/>
<path id="Vector_19" d="M35.4251 11.8397C35.5961 11.85 35.7647 11.8849 35.9301 11.9425C36.0025 11.9687 36.0543 12.0071 36.0864 12.0577C36.1184 12.1082 36.1331 12.1644 36.1313 12.2253C36.1286 12.2861 36.112 12.3413 36.0797 12.3909C36.0473 12.4404 36.0025 12.4759 35.9433 12.4971C35.9104 12.5085 35.874 12.5139 35.8325 12.5114C35.8013 12.5095 35.7665 12.5036 35.7302 12.4929C35.6214 12.4559 35.508 12.4338 35.3908 12.4268C35.3889 12.4267 35.3861 12.4265 35.3842 12.4264C35.2651 12.4192 35.1365 12.4287 34.9995 12.4519C34.779 12.4902 34.6029 12.5635 34.4733 12.6692C34.3437 12.7748 34.2607 12.909 34.2254 13.0709C34.1901 13.2327 34.1997 13.4201 34.2514 13.6339C34.3297 13.956 34.4661 14.1815 34.6573 14.315C34.7774 14.3994 34.9179 14.445 35.0804 14.4548C35.1768 14.4605 35.2806 14.4534 35.3918 14.4343C35.4934 14.4166 35.5956 14.3894 35.7002 14.3527C35.7642 14.3299 35.8264 14.3041 35.8879 14.2763C35.8562 14.0771 35.8246 13.8769 35.7919 13.6776C35.6599 13.6964 35.5278 13.7171 35.3965 13.7388C35.363 13.7444 35.3316 13.7463 35.3023 13.7446C35.256 13.7418 35.2169 13.7299 35.183 13.7088C35.1282 13.6741 35.0926 13.6195 35.0781 13.5443C35.0628 13.4671 35.0743 13.403 35.1133 13.3529C35.1524 13.3028 35.217 13.2695 35.307 13.2549C35.5417 13.2156 35.7771 13.1811 36.0132 13.1504C36.041 13.1464 36.0676 13.1461 36.0921 13.1475C36.146 13.1508 36.1915 13.1668 36.2287 13.1948C36.2822 13.2361 36.3144 13.3 36.3263 13.3865C36.3725 13.7229 36.4177 14.0602 36.4602 14.3964C36.4699 14.4723 36.464 14.5377 36.4427 14.5927C36.4213 14.6486 36.3789 14.6918 36.3154 14.7233C36.1959 14.7857 36.0617 14.8415 35.9116 14.8935C35.7614 14.9455 35.6121 14.9842 35.4616 15.0105C35.2824 15.0417 35.1148 15.0526 34.9569 15.0431C34.8294 15.0355 34.7092 15.014 34.5947 14.9785C34.3396 14.8993 34.123 14.7624 33.9434 14.5629C33.7637 14.3634 33.628 14.1112 33.5421 13.8039C33.4757 13.5673 33.4521 13.3438 33.4751 13.1345C33.4981 12.9243 33.5655 12.7339 33.6791 12.5643C33.7926 12.3948 33.9494 12.2479 34.1501 12.1274C34.3508 12.007 34.5931 11.9204 34.873 11.8715C35.0456 11.8408 35.2217 11.8304 35.4004 11.8392C35.408 11.8397 35.4155 11.8401 35.4231 11.8406M35.4345 11.6506L35.409 11.6491C35.217 11.6404 35.0247 11.6518 34.8397 11.6845C34.5396 11.7371 34.2741 11.8317 34.0518 11.9642C33.8284 12.0986 33.6496 12.2642 33.5204 12.4586C33.3912 12.6519 33.3125 12.8722 33.2857 13.1136C33.2605 13.3438 33.2845 13.593 33.3579 13.8558C33.45 14.1863 33.5991 14.467 33.801 14.6907C34.002 14.9134 34.2496 15.0712 34.5373 15.16C34.6649 15.1991 34.802 15.2235 34.9447 15.2321C35.1138 15.2422 35.2985 15.2304 35.4922 15.1963C35.6513 15.1686 35.8122 15.1268 35.972 15.0725C36.1347 15.0165 36.2748 14.9572 36.4011 14.8914C36.5311 14.8268 36.5919 14.7303 36.6179 14.6604C36.6506 14.5746 36.6602 14.478 36.6466 14.3714C36.6033 14.0351 36.5582 13.695 36.5119 13.3595C36.4927 13.2211 36.4356 13.1148 36.3422 13.0424C36.2751 12.9907 36.1943 12.9621 36.1017 12.9565C36.0658 12.9544 36.0268 12.9558 35.9867 12.9611C35.7486 12.9925 35.5094 13.0278 35.2737 13.067C35.1367 13.0893 35.0318 13.1459 34.962 13.2342C34.9107 13.2997 34.8555 13.4137 34.889 13.5816C34.9138 13.707 34.9799 13.8062 35.0795 13.8694C35.1407 13.9084 35.2106 13.9297 35.2881 13.9343C35.3306 13.9369 35.3772 13.934 35.4242 13.9263C35.4931 13.9152 35.5621 13.9041 35.632 13.893C35.6466 13.9816 35.6603 14.0701 35.6739 14.1586C35.6604 14.1635 35.6468 14.1684 35.6341 14.1734C35.5401 14.2068 35.4466 14.2317 35.3566 14.2473C35.2588 14.2643 35.1683 14.2703 35.088 14.2655C34.9595 14.2578 34.8525 14.2228 34.7614 14.1592C34.6085 14.0528 34.4976 13.8612 34.4314 13.5894C34.3866 13.4037 34.3782 13.243 34.406 13.1122C34.4321 12.9918 34.491 12.8961 34.5877 12.8181C34.6933 12.7329 34.8411 12.6722 35.028 12.6405C35.1488 12.6191 35.264 12.6117 35.3699 12.6171L35.3756 12.6175C35.4757 12.6235 35.5732 12.6427 35.6662 12.674C35.669 12.6741 35.6718 12.6762 35.6746 12.6764C35.724 12.6908 35.7719 12.6994 35.8172 12.7021C35.8834 12.7061 35.9456 12.6974 36.0027 12.677C36.1006 12.6419 36.1792 12.5808 36.2337 12.4954C36.2849 12.4165 36.312 12.3286 36.3158 12.2325C36.319 12.1326 36.2942 12.0396 36.2423 11.9564C36.1878 11.8693 36.1025 11.8041 35.9901 11.764C35.8072 11.6997 35.6197 11.6617 35.4326 11.6505L35.4345 11.6506Z" fill="black"/>
</g>
<g id="Group_6">
<path id="Vector_20" d="M37.1415 14.8784C37.0451 14.8726 36.9635 14.84 36.8997 14.7819C36.8196 14.7094 36.7718 14.6055 36.758 14.4712C36.6703 13.6557 36.5719 12.83 36.466 12.0172C36.4477 11.8798 36.4764 11.7653 36.5509 11.6773C36.6244 11.5902 36.7365 11.5397 36.8852 11.5276C36.9186 11.5249 36.9509 11.524 36.9821 11.5258C37.0832 11.5319 37.1695 11.5628 37.2392 11.6185C37.3307 11.6916 37.383 11.7987 37.3966 11.9358C37.4757 12.7527 37.5463 13.5834 37.6063 14.4029C37.6162 14.537 37.5878 14.6477 37.523 14.7316C37.4562 14.8181 37.3555 14.8674 37.2221 14.8775C37.1945 14.8796 37.1679 14.8799 37.1424 14.8784L37.1415 14.8784Z" fill="white"/>
<path id="Vector_21" d="M36.9776 11.6199C37.0598 11.6248 37.1276 11.6489 37.1809 11.6922C37.2515 11.7488 37.292 11.8332 37.3034 11.9435C37.3822 12.7652 37.4524 13.5863 37.5131 14.4088C37.5217 14.5198 37.5003 14.6072 37.4499 14.6728C37.3995 14.7375 37.3224 14.7738 37.2167 14.7818C37.1929 14.7832 37.171 14.7838 37.1493 14.7825C37.0746 14.7781 37.0134 14.7544 36.9649 14.7105C36.9028 14.6543 36.8651 14.571 36.8537 14.4607C36.7653 13.6414 36.6683 12.8224 36.5619 12.0039C36.5476 11.8934 36.5681 11.8051 36.6243 11.7369C36.6805 11.6698 36.7711 11.6304 36.8941 11.6206C36.9226 11.6185 36.9511 11.6183 36.9766 11.6198M36.988 11.4299C36.953 11.4278 36.916 11.4284 36.8779 11.4309C36.7035 11.4452 36.5689 11.5067 36.479 11.6138C36.4157 11.6892 36.3461 11.8223 36.3726 12.0278C36.4785 12.8406 36.5761 13.6653 36.6638 14.4798C36.6809 14.6372 36.7388 14.7627 36.8369 14.8505C36.918 14.9231 37.0189 14.9644 37.137 14.9715C37.1672 14.9733 37.1985 14.9733 37.23 14.9704C37.391 14.9581 37.5152 14.8969 37.5985 14.7885C37.6777 14.6855 37.7123 14.5522 37.7009 14.3943C37.64 13.5747 37.5693 12.744 37.4904 11.9252C37.4704 11.721 37.3749 11.6047 37.298 11.5428C37.213 11.4748 37.109 11.4371 36.9871 11.4298L36.988 11.4299Z" fill="black"/>
</g>
<g id="Group_7">
<path id="Vector_22" d="M37.9771 14.8299C37.9006 14.8253 37.8336 14.8031 37.7771 14.7645C37.707 14.7155 37.6598 14.6478 37.6375 14.5617C37.6151 14.4774 37.6244 14.3845 37.6636 14.2849C37.9784 13.4478 38.3342 12.6074 38.7218 11.7908C38.779 11.6751 38.8506 11.5888 38.9363 11.5349C39.0231 11.48 39.1243 11.4537 39.2379 11.4567L39.2625 11.4582C39.3655 11.4643 39.4586 11.4938 39.5388 11.5481C39.6254 11.6058 39.697 11.6939 39.7516 11.8116C40.1596 12.6463 40.5206 13.5068 40.8246 14.3686C40.8614 14.4671 40.87 14.5601 40.8489 14.6437C40.8264 14.7338 40.7778 14.8014 40.7049 14.8466C40.6408 14.8867 40.562 14.9039 40.4732 14.8985L40.4562 14.8975C40.3373 14.8866 40.2439 14.8466 40.1787 14.7798C40.1188 14.7181 40.0709 14.6313 40.0315 14.5136C39.9885 14.3928 39.9426 14.2719 39.8968 14.15L39.8935 14.1422C39.4588 14.1161 39.0174 14.1049 38.5819 14.1074C38.5349 14.2275 38.4868 14.3485 38.4407 14.4697C38.3958 14.5862 38.3481 14.67 38.2944 14.7269C38.2326 14.7918 38.1423 14.8264 38.0283 14.8301C38.0102 14.8309 37.9932 14.8308 37.9762 14.8298L37.9771 14.8299ZM39.2395 12.5377C39.1199 12.807 38.9998 13.0867 38.8765 13.3863C39.1192 13.3884 39.3645 13.3946 39.6076 13.4053C39.4887 13.1113 39.3657 12.8208 39.2395 12.5377Z" fill="white"/>
<path id="Vector_23" d="M39.255 11.5523C39.341 11.5575 39.4183 11.5821 39.4848 11.6271C39.5568 11.6753 39.6168 11.7503 39.6648 11.8514C40.0754 12.692 40.4322 13.5427 40.7346 14.3997C40.7657 14.4826 40.7726 14.5564 40.7565 14.6202C40.7403 14.685 40.7071 14.7326 40.6549 14.7647C40.6066 14.7943 40.548 14.807 40.4781 14.8028C40.4733 14.8025 40.4686 14.8022 40.4629 14.8019C40.3667 14.7932 40.2945 14.7632 40.2454 14.7125C40.1963 14.6619 40.1544 14.5851 40.1197 14.4829C40.0686 14.3388 40.0137 14.1944 39.9588 14.051C39.9399 14.0498 39.9219 14.0488 39.903 14.0476C39.44 14.0199 38.9768 14.0083 38.5165 14.0131C38.4607 14.1537 38.4048 14.2943 38.3517 14.436C38.3123 14.5394 38.2699 14.6141 38.2254 14.661C38.1808 14.7079 38.113 14.7324 38.0236 14.7356C38.0084 14.7366 37.9942 14.7358 37.981 14.735C37.9214 14.7314 37.8712 14.7151 37.8293 14.6859C37.7783 14.6504 37.7443 14.6007 37.7273 14.5368C37.7103 14.4728 37.7174 14.4008 37.7498 14.3198C38.0647 13.4817 38.4161 12.6516 38.8058 11.8313C38.8544 11.7323 38.9147 11.6596 38.9847 11.6152C39.0557 11.5709 39.1385 11.5491 39.2333 11.551C39.2399 11.5514 39.2474 11.5519 39.2541 11.5522M38.7316 13.4798C39.0692 13.48 39.4082 13.4889 39.7468 13.5064C39.5885 13.108 39.4207 12.7118 39.2395 12.3168C39.2367 12.3166 39.2329 12.3164 39.2301 12.3162C39.0561 12.7024 38.8906 13.0899 38.7316 13.4798ZM39.2655 11.3623C39.256 11.3617 39.2475 11.3612 39.238 11.3606C39.1055 11.3575 38.9869 11.3885 38.8844 11.4538C38.7838 11.5174 38.7001 11.6163 38.6354 11.7468C38.2456 12.568 37.8878 13.4101 37.5718 14.2519C37.5259 14.3674 37.5154 14.4802 37.5433 14.5848C37.571 14.6913 37.633 14.7799 37.7204 14.8414C37.7905 14.8904 37.8742 14.9183 37.9687 14.9239C37.9886 14.9251 38.0085 14.9254 38.0303 14.9248C38.17 14.9198 38.2818 14.875 38.3607 14.793C38.4234 14.7272 38.4784 14.6333 38.5278 14.5047C38.5661 14.404 38.6054 14.3034 38.6446 14.2028C39.0364 14.2016 39.4332 14.212 39.8245 14.2345C39.8638 14.3379 39.903 14.4442 39.9404 14.5484C39.9829 14.6768 40.0387 14.7755 40.1083 14.8473C40.1896 14.9313 40.3024 14.98 40.4448 14.9933C40.4514 14.9937 40.459 14.9942 40.4656 14.9946C40.5743 15.0011 40.6714 14.9793 40.7522 14.9288C40.8457 14.8715 40.91 14.781 40.9386 14.6683C40.9637 14.565 40.9543 14.4529 40.9102 14.3349C40.6062 13.4721 40.2426 12.6077 39.8329 11.769C39.7715 11.6386 39.6894 11.5374 39.5882 11.4693C39.4933 11.4065 39.3845 11.3704 39.2645 11.3632L39.2655 11.3623ZM39.0151 13.2919C39.0894 13.1123 39.1633 12.9395 39.2369 12.7714C39.3137 12.9466 39.3884 13.1236 39.4621 13.3025C39.3135 13.2974 39.1639 13.2932 39.0151 13.2909L39.0151 13.2919Z" fill="black"/>
</g>
<g id="Group_8">
<path id="Vector_24" d="M43.2964 15.3718C43.2728 15.3704 43.2474 15.367 43.2231 15.3608C43.1268 15.3378 43.0515 15.2971 42.9988 15.2425C42.9524 15.1939 42.9081 15.1255 42.8633 15.0351C42.5616 14.4184 42.22 13.805 41.8461 13.2068C41.7882 13.6981 41.7309 14.1636 41.6712 14.6205C41.655 14.7482 41.6065 14.8463 41.5295 14.9113C41.4596 14.97 41.3689 14.997 41.2602 14.9904C41.246 14.9896 41.2309 14.9887 41.2159 14.9859C41.0907 14.9698 40.9961 14.9184 40.9338 14.8346C40.8733 14.7518 40.8483 14.6455 40.8608 14.5166C40.9425 13.6922 41.0156 12.8529 41.0787 12.0226C41.0898 11.8841 41.1388 11.7794 41.2244 11.7111C41.3011 11.6509 41.3966 11.6232 41.5072 11.6299C41.5195 11.6306 41.5327 11.6314 41.5459 11.6331C41.6523 11.6471 41.7357 11.6788 41.7945 11.7272C41.8459 11.7703 41.9018 11.8346 41.9603 11.9201C42.3675 12.5155 42.7458 13.1349 43.0865 13.7635C43.1776 13.2886 43.2645 12.82 43.3447 12.3692C43.3676 12.24 43.4273 12.1454 43.5208 12.089C43.5868 12.0491 43.6666 12.031 43.7573 12.0365C43.7923 12.0386 43.8298 12.0446 43.8691 12.0537C44.0066 12.0857 44.1072 12.148 44.17 12.2395C44.2337 12.3319 44.2526 12.4437 44.2261 12.5707C44.0523 13.3963 43.8667 14.2297 43.6744 15.0485C43.6475 15.1651 43.5928 15.2533 43.5126 15.3104C43.4482 15.3561 43.3758 15.3766 43.2955 15.3718L43.2964 15.3718Z" fill="white"/>
<path id="Vector_25" d="M41.5034 11.7259C41.5138 11.7265 41.5251 11.7272 41.5364 11.7288C41.6249 11.7399 41.6917 11.7648 41.7359 11.8018C41.7802 11.8388 41.8308 11.8971 41.8849 11.9756C42.3478 12.6535 42.7635 13.3457 43.1322 14.0456C43.2393 13.4934 43.3426 12.941 43.4413 12.3874C43.4597 12.2865 43.5029 12.2138 43.5737 12.1713C43.623 12.1409 43.6835 12.1283 43.7553 12.1326C43.7856 12.1344 43.8175 12.1392 43.8512 12.1469C43.9653 12.1738 44.0468 12.2235 44.0956 12.2941C44.1445 12.3647 44.1574 12.4513 44.1362 12.551C43.9614 13.3785 43.7781 14.2044 43.5856 15.0269C43.5638 15.1209 43.5217 15.1899 43.4603 15.2329C43.4138 15.2664 43.3617 15.2804 43.304 15.2769C43.2851 15.2758 43.2664 15.2728 43.2467 15.2678C43.1682 15.2488 43.1084 15.2185 43.0692 15.1761C43.029 15.1337 42.9891 15.0722 42.9493 14.9916C42.6089 14.2954 42.2196 13.6057 41.784 12.9295C41.7201 13.49 41.6514 14.0492 41.5791 14.6073C41.5652 14.7123 41.5293 14.7883 41.4704 14.8381C41.4195 14.8808 41.3519 14.8996 41.2678 14.8946C41.2555 14.8939 41.2432 14.8931 41.2301 14.8914C41.1312 14.8788 41.0586 14.8411 41.0121 14.7773C40.9656 14.7144 40.947 14.6304 40.9571 14.5252C41.0391 13.6941 41.1118 12.8625 41.175 12.0294C41.1836 11.9183 41.2198 11.8366 41.2845 11.7852C41.3423 11.7391 41.4156 11.7187 41.5025 11.7239M41.5139 11.534C41.3816 11.526 41.2619 11.5608 41.1674 11.6352C41.0598 11.7203 40.9981 11.8481 40.9853 12.0142C40.9224 12.8407 40.8485 13.6789 40.7676 14.5052C40.7528 14.6578 40.7829 14.7874 40.8584 14.8891C40.9365 14.9948 41.0531 15.0581 41.2037 15.0785C41.2206 15.0805 41.2376 15.0825 41.2546 15.0835C41.3888 15.0916 41.5018 15.0573 41.5907 14.9826C41.6866 14.9016 41.745 14.7831 41.7655 14.6309C41.8132 14.262 41.8608 13.8788 41.9081 13.486C42.2249 14.0074 42.5164 14.5396 42.7784 15.0738C42.8284 15.1741 42.8779 15.2495 42.9305 15.306C42.9956 15.3747 43.0866 15.424 43.2015 15.4519C43.2324 15.4595 43.2625 15.4641 43.2918 15.4659C43.3919 15.4719 43.4884 15.4443 43.5687 15.3872C43.6688 15.316 43.7359 15.2094 43.768 15.0693C43.9604 14.2487 44.1461 13.4143 44.3198 12.5897C44.3597 12.3986 44.3042 12.2637 44.2492 12.1851C44.1733 12.0738 44.0526 11.9989 43.8918 11.9606C43.8478 11.9504 43.8046 11.944 43.7639 11.9415C43.6543 11.935 43.5562 11.9577 43.4726 12.0079C43.3918 12.0574 43.2872 12.157 43.2517 12.3531C43.1862 12.719 43.1169 13.099 43.0423 13.4882C42.7331 12.9359 42.3967 12.3924 42.0375 11.8666C41.9729 11.7722 41.9126 11.7028 41.853 11.6534C41.7798 11.5928 41.6825 11.5546 41.5563 11.5384C41.5413 11.5366 41.5262 11.5347 41.5111 11.5338L41.5139 11.534Z" fill="black"/>
</g>
<g id="Group_9">
<path id="Vector_26" d="M46.2979 16.2168C46.1562 16.2083 45.9972 16.1855 45.8277 16.1505C45.6571 16.1155 45.493 16.0694 45.3389 16.0125C44.9909 15.8849 44.7228 15.722 44.519 15.5134C44.3117 15.3018 44.172 15.0532 44.1024 14.7745C44.0321 14.4919 44.0352 14.1861 44.1123 13.8657C44.173 13.612 44.2697 13.3928 44.4007 13.2157C44.536 13.0322 44.7066 12.8909 44.9068 12.7952C45.1089 12.6996 45.3405 12.6496 45.5947 12.6487C45.6355 12.6483 45.6772 12.6498 45.7188 12.6523C45.9399 12.6656 46.1749 12.7168 46.4181 12.8048C46.5973 12.8699 46.7715 12.9547 46.9378 13.059C47.1051 13.1644 47.2586 13.2927 47.3939 13.4419C47.4623 13.5185 47.5001 13.5989 47.5056 13.6812C47.5112 13.7626 47.4924 13.8387 47.4504 13.9067C47.4094 13.9729 47.3523 14.0247 47.281 14.0586C47.2244 14.0857 47.1639 14.0973 47.0996 14.0935C47.0817 14.0924 47.0628 14.0903 47.0441 14.0863C46.9616 14.0709 46.88 14.0231 46.8012 13.9459C46.7201 13.8581 46.6298 13.7831 46.5302 13.72C46.4279 13.6547 46.3108 13.5981 46.1808 13.5513C46.0453 13.5021 45.918 13.4735 45.8027 13.4666C45.7441 13.4631 45.6871 13.4654 45.6345 13.4727C45.4843 13.4942 45.3629 13.5565 45.2645 13.6641C45.164 13.7734 45.0855 13.9288 45.03 14.1266C44.9499 14.4183 44.9589 14.6638 45.0573 14.8575C45.1549 15.0483 45.3407 15.1919 45.6247 15.2966C45.7221 15.333 45.8266 15.3612 45.9363 15.383C45.9766 15.3911 46.0198 15.3985 46.0669 15.4042C46.1168 15.267 46.1677 15.13 46.2177 14.9928C46.1148 14.9524 46.0119 14.9128 45.9089 14.8742C45.8004 14.8334 45.7225 14.7735 45.6779 14.6945C45.6316 14.6126 45.623 14.5177 45.6545 14.4205C45.6964 14.2905 45.7784 14.2363 45.8395 14.2133C45.8822 14.1977 45.9281 14.191 45.9782 14.194C46.0283 14.197 46.0779 14.2085 46.1326 14.229C46.3692 14.3175 46.6082 14.4119 46.8414 14.5088C46.9534 14.5556 47.03 14.6221 47.0694 14.7084C47.1097 14.7956 47.1085 14.8947 47.067 15.0009C46.9437 15.3176 46.8185 15.6342 46.6914 15.9497C46.6569 16.0353 46.6092 16.103 46.5476 16.1508C46.4839 16.2003 46.4047 16.2232 46.3102 16.2176L46.2989 16.2169L46.2979 16.2168Z" fill="white"/>
<path id="Vector_27" d="M45.713 12.7463C45.9228 12.7589 46.1485 12.8077 46.3852 12.8934C46.5588 12.9562 46.7265 13.0378 46.8874 13.1389C47.0483 13.2391 47.1936 13.3622 47.3227 13.5044C47.3769 13.5648 47.4055 13.6256 47.4103 13.6869C47.4143 13.7482 47.4005 13.8036 47.369 13.8551C47.3374 13.9066 47.2933 13.9459 47.2396 13.9722C47.1976 13.9926 47.1525 14.0013 47.1052 13.9985C47.091 13.9976 47.0769 13.9958 47.0619 13.993C46.9972 13.9805 46.9331 13.9424 46.8678 13.8774C46.7841 13.7866 46.6873 13.7074 46.5804 13.6391C46.4735 13.5717 46.351 13.5119 46.2136 13.4617C46.0678 13.4091 45.933 13.3791 45.8092 13.3717C45.744 13.3678 45.6813 13.3697 45.622 13.3786C45.4498 13.4025 45.3078 13.4779 45.1952 13.5998C45.0825 13.7227 44.9975 13.8902 44.9393 14.1021C44.851 14.4209 44.8644 14.6877 44.9739 14.902C45.0843 15.1165 45.2892 15.2746 45.5935 15.3872C45.6956 15.4248 45.8048 15.4552 45.9191 15.4773C45.9895 15.491 46.06 15.501 46.1306 15.509C46.1999 15.3197 46.2701 15.1294 46.3384 14.9391C46.2069 14.8864 46.0743 14.8355 45.9426 14.7857C45.8545 14.7528 45.7937 14.7072 45.7602 14.648C45.7268 14.5888 45.7212 14.5236 45.7445 14.4507C45.769 14.3749 45.8108 14.3259 45.872 14.3029C45.9021 14.2914 45.9355 14.2877 45.9723 14.2899C46.0111 14.2922 46.0532 14.3024 46.0996 14.3194C46.3352 14.4079 46.5705 14.5002 46.8046 14.5981C46.8944 14.635 46.954 14.6862 46.9824 14.7499C47.0118 14.8136 47.0103 14.8859 46.9778 14.9679C46.8545 15.2846 46.7294 15.6002 46.6033 15.9158C46.5753 15.9866 46.537 16.0405 46.4893 16.0767C46.4445 16.1122 46.3857 16.1277 46.3157 16.1235C46.3129 16.1233 46.3091 16.1231 46.3063 16.1229C46.1645 16.1144 46.0122 16.092 45.8473 16.0582C45.6824 16.0245 45.5248 15.9798 45.3716 15.9239C45.0422 15.8031 44.7821 15.6474 44.5865 15.4469C44.3907 15.2474 44.2604 15.0165 44.1947 14.7514C44.129 14.4863 44.1302 14.1985 44.2048 13.8874C44.2618 13.6478 44.3519 13.4425 44.4769 13.2718C44.6029 13.1011 44.7587 12.9703 44.9471 12.8805C45.1356 12.7908 45.3517 12.7447 45.5956 12.7431C45.6345 12.7425 45.6743 12.744 45.714 12.7464M45.7253 12.5564C45.6819 12.5538 45.6374 12.5521 45.5947 12.5524C45.3262 12.5544 45.0802 12.6064 44.8664 12.7079C44.6526 12.8095 44.47 12.9606 44.3254 13.1578C44.187 13.3459 44.085 13.5752 44.0207 13.8421C43.9408 14.1776 43.9376 14.4986 44.0108 14.7966C44.0842 15.0918 44.2325 15.3552 44.4514 15.579C44.665 15.7977 44.945 15.9679 45.306 16.1011C45.4647 16.1592 45.6344 16.2075 45.8087 16.2428C45.983 16.279 46.1467 16.3012 46.2941 16.311L46.3045 16.3116C46.4226 16.3187 46.5239 16.2895 46.6056 16.2248C46.6792 16.1672 46.7382 16.0859 46.7784 15.9844C46.9045 15.6698 47.0308 15.3495 47.1541 15.0347C47.218 14.8698 47.1895 14.7442 47.1543 14.6667C47.1048 14.5589 47.0112 14.4751 46.877 14.4194C46.6429 14.3225 46.4029 14.228 46.1654 14.1385C46.1014 14.1146 46.0405 14.1014 45.9829 14.098C45.9196 14.0942 45.8602 14.103 45.8049 14.1235C45.7244 14.154 45.6168 14.2247 45.5632 14.3912C45.5235 14.5146 45.5343 14.6354 45.5943 14.7419C45.6501 14.8396 45.7442 14.9149 45.8751 14.9627C45.9484 14.99 46.0216 15.0182 46.0958 15.0465C46.0651 15.1305 46.0346 15.2135 46.0039 15.2974C45.987 15.2945 45.9701 15.2916 45.9532 15.2887C45.8482 15.2681 45.7484 15.2402 45.6556 15.206C45.3948 15.1103 45.2262 14.981 45.1395 14.8128C45.0521 14.6417 45.0455 14.4192 45.1194 14.151C45.1703 13.9673 45.2414 13.8247 45.3317 13.7272C45.4159 13.636 45.5187 13.583 45.6459 13.5649C45.6928 13.5582 45.7432 13.5564 45.7951 13.5596C45.9019 13.566 46.0198 13.5931 46.147 13.6388C46.2705 13.6834 46.381 13.7377 46.4779 13.7988C46.5702 13.8577 46.6542 13.9276 46.7273 14.0063C46.729 14.0083 46.7318 14.0104 46.7335 14.0124C46.8258 14.1028 46.9239 14.1592 47.0242 14.1785C47.0467 14.1827 47.0693 14.186 47.092 14.1873C47.1723 14.1922 47.2491 14.1777 47.3204 14.1429C47.4074 14.1005 47.4784 14.038 47.5289 13.9552C47.5824 13.8698 47.6062 13.774 47.599 13.6725C47.5919 13.5691 47.5458 13.4691 47.464 13.3775C47.3226 13.2213 47.1627 13.0868 46.9872 12.9771C46.8153 12.8696 46.6347 12.7816 46.45 12.7142C46.1984 12.6229 45.9541 12.5701 45.7244 12.5563L45.7253 12.5564Z" fill="black"/>
</g>
</g>
<g id="Group_10">
<g id="Group_11">
<path id="Vector_28" d="M33.149 56.9929C33.0771 56.9929 32.9985 56.9815 32.9161 56.9605C32.7097 56.9063 32.562 56.8026 32.4768 56.6522C32.3916 56.5028 32.3765 56.3221 32.4304 56.1156L33.1708 53.2772L32.2903 53.045C32.1133 52.9984 31.9864 52.9118 31.9144 52.7872C31.8425 52.6635 31.8283 52.5122 31.8737 52.338C31.9201 52.1592 32.0063 52.0336 32.1303 51.9622C32.2042 51.9203 32.2884 51.8984 32.3822 51.8984C32.4437 51.8984 32.5109 51.908 32.581 51.926L35.6646 52.7386C35.8417 52.7853 35.9676 52.8709 36.0405 52.9917C36.1134 53.1145 36.1276 53.2667 36.0812 53.4447C36.0358 53.6188 35.9506 53.7434 35.8265 53.8167C35.7517 53.8605 35.6646 53.8833 35.569 53.8833C35.5075 53.8833 35.4421 53.8738 35.373 53.8557L34.4925 53.6235L33.7521 56.4619C33.6982 56.6684 33.5988 56.8178 33.4567 56.9072C33.3678 56.9634 33.2646 56.991 33.1481 56.991L33.149 56.9929Z" fill="white"/>
<path id="Vector_29" d="M32.3836 51.994C32.4376 51.994 32.4963 52.0026 32.5588 52.0188L35.6425 52.8304C35.7949 52.8704 35.9019 52.9408 35.9615 53.0407C36.0212 53.1406 36.0316 53.2672 35.9918 53.4213C35.953 53.5707 35.8829 53.6754 35.7807 53.7353C35.7201 53.7705 35.65 53.7886 35.5715 53.7886C35.5184 53.7886 35.4607 53.781 35.3991 53.7648L34.4268 53.5089L33.6627 56.4395C33.6154 56.6222 33.5302 56.7516 33.409 56.8278C33.3352 56.8744 33.249 56.8972 33.1505 56.8972C33.0862 56.8972 33.017 56.8877 32.9422 56.8677C32.7605 56.8201 32.6336 56.7326 32.5607 56.6042C32.4878 56.4766 32.4755 56.3215 32.5228 56.1389L33.2869 53.2082L32.3145 52.9522C32.1621 52.9123 32.0561 52.8409 31.9964 52.7391C31.9368 52.6373 31.9273 52.5117 31.9661 52.3623C32.0059 52.2091 32.0769 52.1035 32.1782 52.0454C32.2378 52.0112 32.306 51.995 32.3836 51.995M32.3836 51.8047C32.2738 51.8047 32.1725 51.8304 32.0845 51.8799C31.9377 51.9636 31.8364 52.1092 31.7834 52.3137C31.7313 52.5126 31.7484 52.6886 31.8336 52.8352C31.9188 52.9817 32.0655 53.0835 32.2672 53.1368L33.0559 53.3442L32.3401 56.0913C32.2795 56.3225 32.2984 56.5271 32.3959 56.6993C32.4944 56.8725 32.662 56.9914 32.894 57.0523C32.9839 57.0761 33.0701 57.0885 33.1505 57.0885C33.285 57.0885 33.4052 57.0552 33.5094 56.9895C33.6722 56.8868 33.7858 56.7183 33.8455 56.4881L34.5612 53.741L35.3499 53.9485C35.4266 53.9684 35.5004 53.9789 35.5696 53.9789C35.6822 53.9789 35.7845 53.9523 35.8744 53.8999C36.0212 53.8133 36.1215 53.6697 36.1727 53.4698C36.2257 53.2653 36.2086 53.0883 36.1215 52.9437C36.0354 52.8 35.8896 52.7001 35.6889 52.6477L32.6052 51.8361C32.5266 51.8152 32.4518 51.8047 32.3817 51.8047H32.3836Z" fill="black"/>
</g>
<g id="Group_12">
<path id="Vector_30" d="M37.8448 57.6717C37.8098 57.6717 37.7747 57.6717 37.7388 57.6698C37.2682 57.6546 36.8516 57.5375 36.4994 57.3244C36.1463 57.1094 35.8736 56.8115 35.688 56.4395C35.5034 56.0694 35.4182 55.6374 35.4334 55.1559C35.4447 54.7943 35.5129 54.4622 35.635 54.1701C35.7581 53.8752 35.9304 53.6211 36.1482 53.4137C36.3659 53.2062 36.6272 53.0483 36.9236 52.9446C37.1887 52.8513 37.4812 52.8047 37.7918 52.8047C37.8268 52.8047 37.8618 52.8047 37.8978 52.8066C38.3684 52.8218 38.784 52.9369 39.1334 53.1491C39.4846 53.3623 39.7573 53.6573 39.9448 54.0274C40.1322 54.3966 40.2184 54.8295 40.2032 55.3148C40.1919 55.6764 40.1237 56.0085 40.0016 56.3006C39.8785 56.5955 39.7062 56.8506 39.4884 57.0599C39.2707 57.2692 39.0093 57.4281 38.713 57.5328C38.4479 57.626 38.1554 57.6727 37.8448 57.6727V57.6717ZM37.8164 53.9855C37.6327 53.9855 37.4699 54.0274 37.3335 54.1111C37.1868 54.2006 37.0703 54.3366 36.987 54.5146C36.9009 54.6982 36.8535 54.9294 36.8441 55.2025C36.8308 55.6031 36.9084 55.92 37.0751 56.1455C37.2379 56.3672 37.468 56.4795 37.7776 56.4899C37.7918 56.4899 37.806 56.4899 37.8202 56.4899C38.0077 56.4899 38.1705 56.4471 38.3049 56.3624C38.4498 56.2711 38.5653 56.1331 38.6496 55.9523C38.7357 55.7658 38.784 55.5355 38.7925 55.2672C38.8058 54.8666 38.7282 54.5507 38.5625 54.3281C38.3987 54.1083 38.1696 53.9969 37.86 53.9865C37.8458 53.9865 37.8316 53.9865 37.8173 53.9865L37.8164 53.9855Z" fill="white"/>
<path id="Vector_31" d="M37.7919 52.9012C37.826 52.9012 37.8601 52.9012 37.8942 52.9031C38.3505 52.9184 38.7472 53.0278 39.0843 53.2324C39.4213 53.437 39.6798 53.7167 39.8606 54.0716C40.0415 54.4275 40.1238 54.8404 40.1087 55.3124C40.0973 55.6635 40.0329 55.9813 39.9146 56.2649C39.7962 56.5484 39.6324 56.7911 39.4232 56.9918C39.214 57.1935 38.9669 57.3439 38.6819 57.4438C38.4253 57.5332 38.1469 57.5789 37.8449 57.5789C37.8108 57.5789 37.7768 57.5789 37.7427 57.577C37.2863 57.5618 36.8887 57.4514 36.5497 57.2449C36.2108 57.0384 35.9523 56.7568 35.7734 56.399C35.5954 56.0413 35.5139 55.6292 35.5291 55.1621C35.5405 54.8109 35.6058 54.4931 35.7232 54.2096C35.8415 53.926 36.0053 53.6843 36.2146 53.4855C36.4238 53.2866 36.6709 53.1372 36.9559 53.0364C37.2125 52.9469 37.4908 52.9012 37.7929 52.9012M37.8203 56.5874C38.0267 56.5874 38.2056 56.5399 38.3562 56.4447C38.5171 56.3429 38.644 56.1925 38.7358 55.9937C38.8277 55.7948 38.8788 55.5541 38.8873 55.2715C38.9015 54.8471 38.8182 54.5141 38.6383 54.2724C38.4584 54.0307 38.2 53.9041 37.8629 53.8927C37.8478 53.8927 37.8326 53.8927 37.8175 53.8927C37.6149 53.8927 37.4369 53.9394 37.2854 54.0326C37.1216 54.1325 36.9947 54.28 36.9029 54.477C36.811 54.6739 36.7609 54.9156 36.7514 55.202C36.7372 55.6264 36.8205 55.9604 37.0004 56.2049C37.1803 56.4485 37.4388 56.577 37.7758 56.5874C37.791 56.5874 37.8061 56.5874 37.8213 56.5874M37.7938 52.7109C37.4728 52.7109 37.1699 52.7595 36.8944 52.8565C36.5848 52.965 36.313 53.1306 36.0849 53.3466C35.8576 53.5625 35.6777 53.828 35.549 54.1354C35.4221 54.4389 35.352 54.7824 35.3397 55.1554C35.3236 55.6521 35.4126 56.0993 35.6039 56.4847C35.797 56.8729 36.082 57.184 36.4513 57.4086C36.8167 57.6312 37.2494 57.7521 37.736 57.7683C37.773 57.7692 37.8089 57.7702 37.8449 57.7702C38.1668 57.7702 38.4689 57.7216 38.7444 57.6246C39.054 57.5161 39.3266 57.3496 39.5548 57.1307C39.782 56.9128 39.9619 56.6464 40.0897 56.3391C40.2166 56.0355 40.2867 55.693 40.299 55.3191C40.3151 54.8176 40.2251 54.3685 40.031 53.986C39.8351 53.5997 39.5501 53.2923 39.1837 53.0697C38.8201 52.8499 38.3893 52.73 37.9017 52.7138C37.8648 52.7128 37.8288 52.7119 37.7929 52.7119L37.7938 52.7109ZM37.8213 56.3971C37.808 56.3971 37.7957 56.3971 37.7824 56.3971C37.5041 56.3876 37.2977 56.2877 37.1528 56.0917C36.9994 55.8843 36.9284 55.5874 36.9407 55.2087C36.9493 54.9489 36.9947 54.7301 37.0742 54.5578C37.15 54.3951 37.2513 54.2762 37.3838 54.1953C37.5069 54.1201 37.6489 54.084 37.8184 54.084C37.8317 54.084 37.844 54.084 37.8572 54.084C38.1356 54.0935 38.342 54.1925 38.4868 54.3875C38.6393 54.593 38.7103 54.888 38.698 55.2667C38.6895 55.5227 38.645 55.7406 38.5635 55.9147C38.4868 56.0812 38.3855 56.2021 38.2549 56.2848C38.1337 56.361 37.9917 56.3981 37.8203 56.3981L37.8213 56.3971Z" fill="black"/>
</g>
<g id="Group_13">
<path id="Vector_32" d="M42.6025 57.2046C42.5409 57.2046 42.4794 57.2017 42.4207 57.1969C42.1433 57.1741 41.8924 57.098 41.6737 56.9705C41.454 56.842 41.2665 56.6584 41.1151 56.4234C40.9655 56.1921 40.85 55.9076 40.7695 55.5784L40.2828 53.5726C40.2308 53.3557 40.2488 53.173 40.3387 53.0283C40.4277 52.8847 40.5773 52.7867 40.7837 52.7362C40.8613 52.7172 40.9361 52.7077 41.0052 52.7077C41.1226 52.7077 41.2268 52.7353 41.3167 52.7905C41.4597 52.878 41.5591 53.0321 41.6112 53.2481L42.1007 55.2673C42.1726 55.5632 42.29 55.7716 42.451 55.8858C42.5542 55.959 42.6725 55.9952 42.8117 55.9952C42.8855 55.9952 42.9651 55.9847 43.0493 55.9638C43.2889 55.9048 43.4489 55.7925 43.5379 55.6193C43.6278 55.4442 43.6373 55.2054 43.5653 54.9085L43.0758 52.8904C43.0238 52.6744 43.0408 52.4917 43.1279 52.348C43.215 52.2043 43.3637 52.1063 43.571 52.0549C43.6458 52.0369 43.7187 52.0273 43.785 52.0273C43.9014 52.0273 44.0065 52.0559 44.0955 52.1111C44.2356 52.1996 44.3332 52.3528 44.3862 52.5688L44.8728 54.5746C44.9798 55.0161 44.994 55.4119 44.9135 55.7516C44.8321 56.096 44.6541 56.3863 44.3833 56.6127C44.1182 56.8363 43.7632 57.0028 43.3277 57.1094C43.0711 57.1722 42.8278 57.2046 42.6043 57.2046H42.6025Z" fill="white"/>
<path id="Vector_33" d="M43.785 52.122C43.8844 52.122 43.9715 52.1448 44.0453 52.1915C44.1646 52.2657 44.247 52.3989 44.2934 52.5911L44.78 54.5969C44.8842 55.026 44.8974 55.4038 44.8208 55.7292C44.7441 56.0546 44.5774 56.3249 44.3218 56.5399C44.0662 56.7549 43.7272 56.9139 43.305 57.0176C43.0541 57.0794 42.8202 57.1099 42.6034 57.1099C42.5437 57.1099 42.486 57.108 42.4292 57.1032C42.165 57.0823 41.9293 57.0109 41.7219 56.8891C41.5146 56.7673 41.3385 56.596 41.1946 56.3724C41.0507 56.1498 40.9399 55.8776 40.8623 55.557L40.3756 53.5512C40.3292 53.3599 40.3434 53.2029 40.4201 53.0802C40.4959 52.9584 40.6246 52.8747 40.8073 52.8299C40.8784 52.8128 40.9446 52.8042 41.0062 52.8042C41.1065 52.8042 41.1936 52.8271 41.2684 52.8727C41.3896 52.947 41.4729 53.0802 41.5203 53.2714L42.0098 55.2896C42.0874 55.6103 42.2171 55.8348 42.397 55.9623C42.5163 56.047 42.6545 56.0889 42.8126 56.0889C42.8941 56.0889 42.9802 56.0775 43.072 56.0556C43.3371 55.9909 43.5208 55.8596 43.6221 55.6626C43.7234 55.4656 43.7357 55.2068 43.6581 54.8862L43.1686 52.868C43.1222 52.6767 43.1355 52.5197 43.2093 52.3979C43.2832 52.2761 43.411 52.1934 43.5937 52.1486C43.6619 52.1315 43.7263 52.1239 43.785 52.1239M43.785 51.9336C43.7111 51.9336 43.6316 51.9441 43.5483 51.964C43.3163 52.0211 43.1478 52.1334 43.0474 52.2999C42.9471 52.4655 42.9253 52.6729 42.984 52.9146L43.4735 54.9328C43.5398 55.2059 43.5331 55.4228 43.4536 55.577C43.3779 55.7235 43.2377 55.8206 43.0266 55.8729C42.9499 55.8919 42.878 55.9014 42.8117 55.9014C42.6924 55.9014 42.593 55.871 42.5059 55.8091C42.3648 55.7092 42.2597 55.5199 42.1934 55.2468L41.7039 53.2286C41.6452 52.9869 41.5316 52.8137 41.3669 52.7129C41.2618 52.6491 41.1406 52.6168 41.0062 52.6168C40.9295 52.6168 40.8481 52.6273 40.7619 52.6482C40.5299 52.7053 40.3614 52.8176 40.2592 52.9831C40.156 53.1496 40.1332 53.3571 40.1919 53.5997L40.6786 55.6055C40.761 55.9462 40.8812 56.2402 41.0365 56.48C41.1955 56.7274 41.3944 56.9215 41.6273 57.0575C41.8583 57.1926 42.1234 57.2735 42.415 57.2973C42.4765 57.3021 42.54 57.3049 42.6043 57.3049C42.8354 57.3049 43.0862 57.2726 43.3504 57.2079C43.8001 57.0975 44.1675 56.9243 44.4449 56.6912C44.7308 56.4505 44.9202 56.1431 45.0063 55.7787C45.0896 55.4247 45.0764 55.0146 44.9656 54.5579L44.479 52.5521C44.4203 52.3113 44.3085 52.1382 44.1466 52.0364C44.0416 51.9707 43.9204 51.9374 43.7859 51.9374L43.785 51.9336Z" fill="black"/>
</g>
<g id="Group_14">
<path id="Vector_34" d="M46.6217 55.8793C46.5564 55.8793 46.4929 55.8688 46.4323 55.8469C46.2704 55.7899 46.1407 55.6642 46.047 55.473L44.5482 52.4291C44.4517 52.2331 44.4318 52.0504 44.4886 51.8877C44.5454 51.725 44.6704 51.5946 44.8607 51.5004L46.2723 50.7982C46.6028 50.6336 46.9152 50.5508 47.2002 50.5508C47.327 50.5508 47.452 50.567 47.5704 50.6003C47.9566 50.7078 48.2587 50.9761 48.467 51.3995C48.6005 51.6717 48.6582 51.9419 48.6383 52.2045C48.6175 52.469 48.52 52.7155 48.3467 52.9362C48.3401 52.9448 48.3335 52.9534 48.3259 52.9619H48.3373C48.5181 52.981 48.6999 53.0552 48.8769 53.1836L49.4175 53.5585C49.5472 53.6489 49.641 53.7574 49.6968 53.8801C49.7565 54.0124 49.7574 54.1466 49.7016 54.2779C49.6476 54.4054 49.534 54.512 49.3645 54.5966C49.2282 54.6642 49.0966 54.6994 48.9763 54.6994C48.9508 54.6994 48.9262 54.6975 48.9025 54.6946C48.7633 54.6785 48.6175 54.6176 48.4689 54.5148L47.4719 53.8107C47.4047 53.7631 47.3384 53.7393 47.275 53.7393C47.1945 53.7412 47.1169 53.7631 47.0392 53.8021L46.8082 53.9173L47.274 54.864C47.3678 55.0543 47.3905 55.2332 47.3422 55.394C47.293 55.5577 47.167 55.6909 46.9673 55.7898C46.848 55.8488 46.7325 55.8793 46.6236 55.8793H46.6217ZM46.3528 52.9971L46.9682 52.6917C47.1509 52.6004 47.2731 52.4966 47.3308 52.3825C47.3848 52.2759 47.3763 52.155 47.3062 52.0133C47.2399 51.8791 47.15 51.802 47.0316 51.7782C47.0042 51.7725 46.9758 51.7706 46.9455 51.7706C46.8366 51.7706 46.7088 51.8068 46.5658 51.8782L45.9504 52.1836L46.3519 52.999L46.3528 52.9971Z" fill="white"/>
<path id="Vector_35" d="M47.1988 50.6463C47.3181 50.6463 47.4326 50.6615 47.5434 50.692C47.9051 50.7919 48.1834 51.0421 48.3803 51.4417C48.5072 51.6996 48.5612 51.9508 48.5422 52.1973C48.5233 52.4437 48.4324 52.6702 48.2705 52.8776C48.2184 52.9442 48.1579 53.008 48.0906 53.0689C48.1436 53.0593 48.1967 53.0536 48.2487 53.0536C48.2743 53.0536 48.3008 53.0546 48.3264 53.0574C48.4911 53.0736 48.6559 53.1412 48.8197 53.2611L49.3622 53.6379C49.4786 53.7187 49.56 53.8129 49.6083 53.9205C49.6566 54.028 49.6576 54.1346 49.6131 54.2411C49.5676 54.3477 49.471 54.4371 49.3214 54.5114C49.1974 54.5732 49.0819 54.6037 48.9749 54.6037C48.9531 54.6037 48.9323 54.6027 48.9115 54.5998C48.7875 54.5846 48.6568 54.5304 48.5195 54.4352L47.5235 53.7321C47.4392 53.6731 47.3559 53.6426 47.2726 53.6426C47.2688 53.6426 47.266 53.6426 47.2622 53.6426C47.1751 53.6455 47.0861 53.6693 46.9943 53.7149L46.679 53.8719L47.1874 54.9043C47.2707 55.0737 47.2915 55.2269 47.2499 55.3649C47.2082 55.5028 47.0994 55.6151 46.9232 55.7027C46.8163 55.7559 46.7159 55.7826 46.6212 55.7826C46.5663 55.7826 46.5142 55.774 46.4631 55.7559C46.3249 55.7074 46.2141 55.5989 46.1308 55.4296L44.632 52.3857C44.5468 52.2125 44.5279 52.0564 44.5771 51.9175C44.6254 51.7786 44.7333 51.6673 44.9019 51.5835L46.3135 50.8813C46.6326 50.7224 46.927 50.6434 47.1988 50.6434M46.3097 53.1221L47.0094 52.7739C47.212 52.673 47.3474 52.556 47.4146 52.4218C47.4819 52.2877 47.4743 52.1364 47.391 51.967C47.3114 51.8052 47.1978 51.7101 47.0501 51.6806C47.017 51.6739 46.9819 51.6711 46.946 51.6711C46.8219 51.6711 46.6818 51.7101 46.5247 51.7881L45.825 52.1364L46.3107 53.1221M47.1997 50.4531C46.8996 50.4531 46.5739 50.5397 46.2302 50.711L44.8195 51.4132C44.6065 51.5188 44.4654 51.6673 44.4001 51.8547C44.3348 52.0431 44.3565 52.2496 44.4645 52.4694L45.9632 55.5133C46.0683 55.7283 46.217 55.8701 46.4025 55.9348C46.4726 55.9596 46.5474 55.9719 46.6231 55.9719C46.7462 55.9719 46.8759 55.9386 47.0085 55.873C47.2319 55.7616 47.3749 55.6094 47.4317 55.4201C47.4875 55.2345 47.4629 55.0328 47.3578 54.8196L46.9337 53.9585L47.0795 53.8862C47.1457 53.8529 47.2101 53.8358 47.2688 53.8339H47.2736C47.3171 53.8339 47.3644 53.8519 47.4156 53.8881L48.4116 54.5913C48.5754 54.7045 48.7354 54.7702 48.8897 54.7882C48.9181 54.7921 48.9465 54.793 48.9749 54.793C49.1103 54.793 49.2552 54.7549 49.4057 54.6807C49.5951 54.5865 49.7238 54.4628 49.7873 54.3144C49.8535 54.1602 49.8516 53.9956 49.7816 53.8405C49.7191 53.7016 49.6149 53.5798 49.4701 53.4799L48.9276 53.1031C48.7875 53.0003 48.6407 52.9299 48.493 52.8928C48.6322 52.6835 48.7127 52.4542 48.7316 52.2106C48.7534 51.9299 48.6928 51.6425 48.5508 51.3552C48.3302 50.907 48.0083 50.6206 47.5945 50.5064C47.4686 50.4712 47.3351 50.4531 47.1997 50.4531ZM46.0787 52.2229L46.6089 51.9594C46.7386 51.8947 46.8522 51.8623 46.9469 51.8623C46.9706 51.8623 46.9933 51.8642 47.0141 51.869C47.07 51.8804 47.1524 51.9109 47.2224 52.0526C47.2963 52.2039 47.2717 52.2877 47.247 52.3371C47.1988 52.4332 47.0908 52.5227 46.927 52.6045L46.3968 52.8681L46.0797 52.2229H46.0787Z" fill="black"/>
</g>
<g id="Group_15">
<path id="Vector_36" d="M50.533 53.53C50.4421 53.53 50.3588 53.511 50.2849 53.4739C50.176 53.4187 50.0908 53.3369 50.0312 53.2294C49.9734 53.1247 49.9441 53.0124 49.946 52.8963C49.9479 52.7764 49.9867 52.6661 50.0624 52.569C50.1391 52.47 50.2565 52.4034 50.4108 52.3701C50.5813 52.3368 50.7583 52.2788 50.941 52.1951C51.1247 52.1113 51.2885 52.0162 51.4267 51.9144C51.689 51.7212 51.778 51.5908 51.8054 51.5157C51.8528 51.3872 51.8197 51.3187 51.7903 51.2787C51.7496 51.2235 51.6985 51.1969 51.6293 51.196C51.5678 51.196 51.4532 51.2159 51.2412 51.312L50.5424 51.6279C50.2404 51.7659 49.9611 51.8363 49.7121 51.8363C49.6335 51.8363 49.5568 51.8297 49.483 51.8154C49.1724 51.7574 48.9064 51.5804 48.6934 51.2883C48.5542 51.097 48.4652 50.8905 48.4292 50.6755C48.3933 50.4604 48.4084 50.2416 48.4728 50.0246C48.5362 49.8105 48.6451 49.5993 48.7966 49.3957C48.9481 49.194 49.144 49.0027 49.3807 48.8286C49.5635 48.6935 49.767 48.5755 49.9857 48.4765C50.2073 48.3766 50.4213 48.3157 50.6229 48.2957C50.6513 48.291 50.6845 48.2891 50.7167 48.2891C50.8085 48.2891 50.8946 48.3109 50.9732 48.3528C51.0755 48.408 51.1569 48.4851 51.2156 48.5821C51.2753 48.6811 51.3027 48.7877 51.2989 48.899C51.2942 49.0132 51.2535 49.1178 51.1758 49.2101C51.0991 49.3015 50.9799 49.3681 50.8208 49.4061C50.6949 49.4337 50.5633 49.4804 50.4288 49.547C50.2925 49.6145 50.1666 49.6907 50.0549 49.7725C49.9365 49.86 49.8447 49.9485 49.7831 50.0351C49.7263 50.115 49.6941 50.1921 49.6894 50.2635C49.6847 50.331 49.7017 50.39 49.7415 50.4443C49.7774 50.4937 49.8267 50.5194 49.8958 50.5232H49.909C49.9659 50.5232 50.0757 50.5042 50.2764 50.4129L50.9704 50.1017C51.2895 49.959 51.5811 49.8867 51.8376 49.8867C51.9049 49.8867 51.9702 49.8914 52.0327 49.9009C52.3432 49.9495 52.6064 50.1188 52.8157 50.4043C52.9548 50.5955 53.0438 50.7992 53.0798 51.0123C53.1158 51.2245 53.1016 51.4414 53.0382 51.6546C52.9757 51.8658 52.8649 52.0761 52.7096 52.2788C52.5553 52.4796 52.3546 52.6727 52.1113 52.8525C51.9711 52.9553 51.8159 53.0552 51.6492 53.1475C51.4816 53.2408 51.3131 53.3197 51.1484 53.3816C50.9817 53.4444 50.8217 53.4901 50.6721 53.5177C50.6248 53.5262 50.5775 53.531 50.5339 53.531L50.533 53.53Z" fill="white"/>
<path id="Vector_37" d="M50.7178 48.3827C50.7945 48.3827 50.8646 48.3998 50.929 48.435C51.0161 48.4826 51.0852 48.5473 51.1344 48.6301C51.1846 48.7128 51.2073 48.8013 51.2035 48.8936C51.1998 48.9859 51.1666 49.0716 51.1032 49.1477C51.0398 49.2238 50.9384 49.279 50.7983 49.3123C50.6658 49.3408 50.5285 49.3903 50.3865 49.4598C50.2445 49.5302 50.1148 49.6082 49.9983 49.6939C49.8714 49.7881 49.7739 49.8823 49.7057 49.9774C49.6376 50.0726 49.6006 50.1649 49.595 50.2543C49.5883 50.3437 49.612 50.4246 49.665 50.4979C49.718 50.5702 49.7928 50.6102 49.8894 50.6159C49.896 50.6159 49.9017 50.6159 49.9084 50.6159C50.004 50.6159 50.1403 50.5759 50.3145 50.4969L51.0076 50.1858C51.3153 50.0478 51.5917 49.9784 51.836 49.9784C51.8985 49.9784 51.9591 49.9831 52.0168 49.9917C52.3028 50.0364 52.5432 50.1915 52.7373 50.4579C52.8689 50.6378 52.9513 50.8271 52.9844 51.025C53.0185 51.2239 53.0053 51.4237 52.9456 51.6245C52.886 51.8253 52.7818 52.0232 52.6322 52.2182C52.4836 52.4133 52.2904 52.5979 52.0528 52.773C51.9155 52.8748 51.764 52.9709 51.6012 53.0622C51.4374 53.1536 51.2746 53.2297 51.1127 53.2906C50.9508 53.3515 50.7974 53.3953 50.6525 53.4219C50.6099 53.4295 50.5701 53.4333 50.5313 53.4333C50.4556 53.4333 50.3865 53.4181 50.3259 53.3867C50.234 53.3401 50.163 53.2716 50.1129 53.1812C50.0627 53.0908 50.0381 52.9956 50.04 52.8957C50.0418 52.7968 50.074 52.7064 50.1365 52.6255C50.199 52.5446 50.2965 52.4904 50.43 52.4618C50.6061 52.4276 50.7898 52.3676 50.9801 52.2801C51.1704 52.1925 51.338 52.0964 51.4828 51.9899C51.7101 51.8224 51.8474 51.6749 51.8937 51.5474C51.9411 51.4199 51.9316 51.3114 51.8663 51.221C51.8085 51.1411 51.73 51.1012 51.6305 51.0992C51.6287 51.0992 51.6268 51.0992 51.6258 51.0992C51.5273 51.0992 51.3863 51.1411 51.2017 51.2239L50.5029 51.5389C50.2123 51.6721 49.9481 51.7387 49.7114 51.7387C49.6385 51.7387 49.5675 51.732 49.5003 51.7196C49.2125 51.6664 48.9691 51.5027 48.7694 51.2296C48.6378 51.0498 48.5563 50.8595 48.5232 50.6577C48.4901 50.456 48.5033 50.2533 48.5639 50.0497C48.6245 49.8461 48.7268 49.6463 48.8735 49.4512C49.0193 49.2562 49.2077 49.0735 49.4378 48.9031C49.6167 48.7709 49.8127 48.6576 50.0258 48.5615C50.2388 48.4654 50.4414 48.4084 50.6336 48.3884C50.662 48.3836 50.6904 48.3817 50.7178 48.3817M50.7178 48.1914C50.6828 48.1914 50.6468 48.1943 50.6099 48.199C50.3997 48.2209 50.1772 48.2837 49.9481 48.3874C49.7228 48.4892 49.5135 48.611 49.3251 48.749C49.0809 48.9288 48.8773 49.1267 48.7211 49.3361C48.562 49.5483 48.4484 49.77 48.3821 49.9955C48.314 50.2267 48.2988 50.4598 48.3367 50.6891C48.3746 50.9194 48.4692 51.1392 48.6179 51.3428C48.8461 51.6549 49.132 51.8452 49.4671 51.908C49.5457 51.9223 49.6291 51.9299 49.7133 51.9299C49.9765 51.9299 50.2691 51.8567 50.5834 51.713L51.2812 51.398C51.4885 51.3038 51.587 51.2905 51.6277 51.2905C51.6694 51.2905 51.693 51.3029 51.7158 51.3343C51.7281 51.3514 51.7536 51.3866 51.7186 51.4818C51.6997 51.5331 51.6296 51.6483 51.373 51.8367C51.2395 51.9347 51.0824 52.026 50.9044 52.1079C50.7283 52.1887 50.5578 52.2449 50.3969 52.2763C50.2161 52.3153 50.0807 52.3933 49.9907 52.5104C49.9027 52.6245 49.8563 52.7539 49.8544 52.8948C49.8525 53.028 49.8847 53.1555 49.9519 53.2754C50.0201 53.3991 50.1195 53.4942 50.2454 53.558C50.3325 53.6017 50.431 53.6246 50.5361 53.6246C50.5862 53.6246 50.6383 53.6198 50.6923 53.6094C50.8476 53.5808 51.0123 53.5332 51.1837 53.4685C51.3531 53.4048 51.5264 53.3239 51.6978 53.2288C51.8682 53.1336 52.0263 53.0318 52.1693 52.9271C52.4202 52.7425 52.6275 52.5437 52.7866 52.3353C52.9485 52.1231 53.0649 51.9023 53.1312 51.6806C53.1994 51.4523 53.2145 51.222 53.1757 50.9946C53.1369 50.7672 53.0422 50.5493 52.8945 50.3466C52.6701 50.0393 52.3861 49.8575 52.05 49.8052C51.9827 49.7947 51.9117 49.789 51.8398 49.789C51.5699 49.789 51.2651 49.8642 50.9337 50.0126L50.2407 50.3238C50.0437 50.4132 49.95 50.4265 49.9112 50.4265H49.9036C49.8572 50.4237 49.8364 50.4084 49.8203 50.3856C49.7938 50.3495 49.7834 50.3123 49.7862 50.2686C49.79 50.2153 49.8156 50.1544 49.862 50.0887C49.9178 50.0107 50.003 49.9289 50.1129 49.848C50.2198 49.769 50.341 49.6958 50.4726 49.6311C50.6004 49.5683 50.7245 49.5235 50.8409 49.4988C51.0246 49.455 51.1609 49.378 51.2509 49.2704C51.3418 49.162 51.3901 49.0373 51.3957 48.9022C51.4005 48.7718 51.3683 48.6472 51.2992 48.532C51.232 48.4198 51.1382 48.3313 51.0208 48.2675C50.929 48.218 50.8277 48.1924 50.7197 48.1924L50.7178 48.1914Z" fill="black"/>
</g>
</g>
</g>
</g>
<defs>
<clipPath id="clip0_6_1937">
<rect width="76" height="66.6301" fill="white" transform="translate(0 0.90625)"/>
</clipPath>
</defs>
</svg>
