<svg width="16" height="17" viewBox="0 0 16 17" fill="none" xmlns="http://www.w3.org/2000/svg">
<g id="Search results for Bus - Flaticon-12 1" clip-path="url(#clip0_6258_8199)">
<g id="Group">
<rect id="Rectangle 34624865" x="2.28906" y="2.57422" width="10.9688" height="8.44922" fill="white"/>
<circle id="Ellipse 1987" cx="3.99805" cy="12.3281" r="2" fill="white"/>
<circle id="Ellipse 1988" cx="11.998" cy="12.3281" r="2" fill="white"/>
<path id="Vector" d="M8.00053 0.957031C4.2784 0.957031 1.26367 1.3781 1.26367 4.32544V12.7465C1.26367 13.4918 1.59209 14.1528 2.10576 14.616V16.1149C2.10576 16.5781 2.48471 16.957 2.94786 16.957H3.78999C4.25736 16.957 4.63208 16.5781 4.63208 16.1149V15.2728H11.3689V16.1149C11.3689 16.5781 11.7437 16.957 12.211 16.957H13.0531C13.5163 16.957 13.8952 16.5781 13.8952 16.1149V14.616C14.4089 14.1529 14.7373 13.4918 14.7373 12.7465V4.32544C14.7374 1.3781 11.7226 0.957031 8.00053 0.957031ZM4.21106 13.5886C3.51209 13.5886 2.9479 13.0244 2.9479 12.3255C2.9479 11.6265 3.51209 11.0623 4.21106 11.0623C4.91002 11.0623 5.47422 11.6265 5.47422 12.3255C5.47422 13.0244 4.90998 13.5886 4.21106 13.5886ZM11.79 13.5886C11.091 13.5886 10.5268 13.0244 10.5268 12.3255C10.5268 11.6265 11.091 11.0623 11.79 11.0623C12.489 11.0623 13.0532 11.6265 13.0532 12.3255C13.0532 13.0244 12.4889 13.5886 11.79 13.5886ZM13.0532 8.53598H2.9479V4.32544H13.0532V8.53598Z" fill="#F6B900"/>
</g>
</g>
<defs>
<clipPath id="clip0_6258_8199">
<rect width="16" height="16" fill="white" transform="translate(0 0.953125)"/>
</clipPath>
</defs>
</svg>
