<svg width="16" height="17" viewBox="0 0 16 17" fill="none" xmlns="http://www.w3.org/2000/svg">
<g id="Search results for Location - Flaticon-12 1" clip-path="url(#clip0_6258_8222)">
<g id="Group">
<path id="Vector" d="M15.7897 7.41179L13.5085 5.48922V2.76001C13.5086 2.69298 13.4955 2.6266 13.4699 2.56465C13.4443 2.5027 13.4068 2.4464 13.3594 2.39897C13.312 2.35155 13.2558 2.31392 13.1939 2.28825C13.1319 2.26258 13.0656 2.24937 12.9985 2.24937H11.382C11.3149 2.24928 11.2484 2.26243 11.1864 2.28806C11.1244 2.31369 11.0681 2.3513 11.0207 2.39874C10.9732 2.44617 10.9356 2.5025 10.91 2.56449C10.8844 2.62649 10.8712 2.69293 10.8713 2.76001V3.26599L8.44476 1.22075C8.32355 1.10656 8.16331 1.04297 7.99678 1.04297C7.83026 1.04297 7.67002 1.10656 7.54881 1.22075L0.210487 7.41179C0.113394 7.50218 0.0457616 7.61971 0.0163935 7.74907C-0.0129747 7.87843 -0.00271825 8.01364 0.0458277 8.13709C0.094701 8.25978 0.179294 8.36496 0.288645 8.43901C0.397997 8.51306 0.527067 8.55257 0.659132 8.5524H1.72041V16.2067C1.72041 16.5687 2.01707 16.866 2.38038 16.866H13.6199C13.7948 16.8657 13.9624 16.796 14.0861 16.6723C14.2098 16.5486 14.2795 16.381 14.2798 16.206V8.55307H15.3411C15.4741 8.55326 15.604 8.513 15.7135 8.43763C15.823 8.36226 15.9071 8.25535 15.9544 8.13109C16.0025 8.00865 16.0125 7.87455 15.9831 7.74633C15.9538 7.61811 15.8864 7.50107 15.7897 7.41179ZM8.49809 14.4688C8.43158 14.5593 8.34469 14.6329 8.24446 14.6837C8.14423 14.7344 8.03346 14.7608 7.92112 14.7608C7.80878 14.7608 7.69802 14.7344 7.59778 14.6837C7.49755 14.6329 7.41067 14.5593 7.34415 14.4688C6.43419 13.2162 4.7596 10.7503 4.7596 9.48503C4.76102 8.64673 5.09507 7.84326 5.68839 7.25106C6.28172 6.65885 7.08582 6.32633 7.92412 6.32651C8.76242 6.32633 9.56652 6.65885 10.1598 7.25106C10.7532 7.84326 11.0872 8.64673 11.0886 9.48503C11.0886 10.7503 9.41405 13.2162 8.49809 14.4688Z" fill="#F6B900"/>
<path id="Vector_2" d="M8 11.2656C9.10457 11.2656 10 10.3702 10 9.26563C10 8.16106 9.10457 7.26562 8 7.26562C6.89543 7.26562 6 8.16106 6 9.26563C6 10.3702 6.89543 11.2656 8 11.2656Z" fill="white"/>
</g>
</g>
<defs>
<clipPath id="clip0_6258_8222">
<rect width="16" height="16" fill="white" transform="translate(0 0.953125)"/>
</clipPath>
</defs>
</svg>
