<svg width="28" height="28" viewBox="0 0 28 28" fill="none" xmlns="http://www.w3.org/2000/svg">
<g clip-path="url(#clip0_6691_639)">
<path d="M14 0C14.7029 0 15.2727 0.569841 15.2727 1.27271V3.81817C15.2727 4.52109 14.7029 5.09088 14 5.09088C13.2971 5.09088 12.7273 4.52104 12.7273 3.81817V1.27271C12.7273 0.569841 13.2971 0 14 0ZM5.93025 4.13007C5.43321 3.63303 4.62736 3.63303 4.13037 4.13007C3.63333 4.62711 3.63333 5.43296 4.13037 5.93L5.94855 7.74818C6.44559 8.24522 7.25144 8.24522 7.74843 7.74818C8.24547 7.25114 8.24547 6.44529 7.74843 5.94825L5.93025 4.13007ZM0 14C0 13.2971 0.569841 12.7273 1.27271 12.7273H3.81817C4.52109 12.7273 5.09088 13.2971 5.09088 14C5.09088 14.7029 4.52109 15.2727 3.81817 15.2727H1.27271C0.569841 15.2727 0 14.7029 0 14ZM7.74843 22.0515C8.24547 21.5545 8.24547 20.7488 7.74843 20.2516C7.25139 19.7546 6.44554 19.7546 5.94855 20.2516L4.13037 22.0698C3.63333 22.5668 3.63333 23.3727 4.13037 23.8697C4.62741 24.3667 5.43321 24.3667 5.93025 23.8697L7.74843 22.0515ZM14 22.9091C14.7029 22.9091 15.2727 23.4789 15.2727 24.1818V26.7272C15.2727 27.4302 14.7029 28 14 28C13.2971 28 12.7273 27.4302 12.7273 26.7272V24.1818C12.7273 23.4789 13.2971 22.9091 14 22.9091ZM22.0515 20.2516C21.5544 19.7546 20.7486 19.7546 20.2516 20.2516C19.7545 20.7488 19.7545 21.5545 20.2516 22.0515L22.0697 23.8697C22.5668 24.3667 23.3726 24.3667 23.8696 23.8697C24.3667 23.3727 24.3667 22.5668 23.8696 22.0698L22.0515 20.2516ZM22.9091 14C22.9091 13.2971 23.4789 12.7273 24.1818 12.7273H26.7272C27.4302 12.7273 28 13.2971 28 14C28 14.7029 27.4302 15.2727 26.7272 15.2727H24.1818C23.4789 15.2727 22.9091 14.7029 22.9091 14ZM23.8696 5.92995C24.3668 5.43291 24.3668 4.62706 23.8696 4.13002C23.3726 3.63298 22.5669 3.63298 22.0698 4.13002L20.2517 5.9482C19.7545 6.44524 19.7545 7.25109 20.2517 7.74813C20.7487 8.24517 21.5544 8.24517 22.0515 7.74813L23.8696 5.92995Z" fill="#2E2E2E"/>
<path fill-rule="evenodd" clip-rule="evenodd" d="M20.6027 17.3002C20.7722 16.9945 20.5049 16.6458 20.1556 16.661C20.0522 16.6655 19.9482 16.6678 19.8437 16.6678C15.9438 16.6678 12.7822 13.5062 12.7822 9.60628C12.7822 8.93076 12.8771 8.2774 13.0542 7.65879C13.1504 7.32275 12.8739 6.98101 12.537 7.07414C9.55265 7.89912 7.36133 10.6342 7.36133 13.881C7.36133 17.781 10.5229 20.9425 14.4228 20.9425C17.0823 20.9425 19.3984 19.4723 20.6027 17.3002Z" fill="#F6B900"/>
</g>
<defs>
<clipPath id="clip0_6691_639">
<rect width="28" height="28" fill="white"/>
</clipPath>
</defs>
</svg>
