<svg width="14" height="17" viewBox="0 0 14 17" fill="none" xmlns="http://www.w3.org/2000/svg">
<g id="Group">
<path id="Vector" d="M11.6955 2.90109C9.09822 0.303804 4.90258 0.303804 2.3386 2.90109C-0.258699 5.49838 -0.258699 9.66068 2.3386 12.258L7.0004 16.9531L11.6622 12.2913C14.2595 9.69399 14.2595 5.49838 11.6955 2.90109Z" fill="#F6B900"/>
<path id="Vector_2" d="M10.1954 10.7578C8.43055 12.5227 5.60015 12.5227 3.83533 10.7578C2.07051 8.99303 2.07051 6.16264 3.83533 4.39783C5.60015 2.63302 8.43055 2.63302 10.1954 4.39783C11.9269 6.16264 11.9269 9.02634 10.1954 10.7578Z" fill="white"/>
<path id="Vector_3" d="M3.33594 7.66348L6.33282 8.26285L6.93219 11.2597L9.4629 5.13281L3.33594 7.66348Z" fill="#F6B900"/>
</g>
</svg>
