<svg xmlns="http://www.w3.org/2000/svg" width="16" height="16" viewBox="0 0 16 16" fill="none">
  <path d="M13.1875 8C11.6406 8 10.375 9.26559 10.375 10.8125C10.375 12.3594 11.6406 13.625 13.1875 13.625C14.7344 13.625 16 12.3594 16 10.8125C16 9.26559 14.7344 8 13.1875 8ZM13.1875 12.6875C12.1563 12.6875 11.3125 11.8437 11.3125 10.8125C11.3125 9.78128 12.1563 8.9375 13.1875 8.9375C14.2187 8.9375 15.0625 9.78128 15.0625 10.8125C15.0625 11.8437 14.2187 12.6875 13.1875 12.6875Z" fill="#B34B1E"/>
  <path d="M2.8125 8C1.26559 8 0 9.26559 0 10.8125C0 12.3594 1.26559 13.625 2.8125 13.625C4.35941 13.625 5.625 12.3594 5.625 10.8125C5.625 9.26559 4.35941 8 2.8125 8ZM2.8125 12.6875C1.78128 12.6875 0.9375 11.8437 0.9375 10.8125C0.9375 9.78128 1.78128 8.9375 2.8125 8.9375C3.84372 8.9375 4.6875 9.78128 4.6875 10.8125C4.6875 11.8437 3.84372 12.6875 2.8125 12.6875Z" fill="#B34B1E"/>
  <path d="M3.75 5.1875H8.5V8H3.75V5.1875ZM10.8438 3.3125H9.90625C9.64716 3.3125 9.4375 3.10284 9.4375 2.84375C9.4375 2.58466 9.64716 2.375 9.90625 2.375H10.8438C11.1028 2.375 11.3125 2.58466 11.3125 2.84375C11.3125 3.10284 11.1028 3.3125 10.8438 3.3125Z" fill="#F6B900"/>
  <path d="M13.45 11.2044C13.3656 11.2513 13.2812 11.2795 13.1875 11.2795C13.0375 11.2795 12.8875 11.2044 12.7938 11.0733L10.6 7.792C10.45 7.57635 10.5157 7.28572 10.7219 7.13575C10.9375 6.9951 11.2281 7.05135 11.3781 7.26697L13.1875 9.95766L13.5812 10.5482C13.7219 10.7638 13.6656 11.0545 13.45 11.2044ZM8.03125 9.87322V11.7482H2.8125C2.29688 11.7482 1.875 11.3263 1.875 10.8107C1.875 10.2951 2.29688 9.87322 2.8125 9.87322H8.03125Z" fill="#F6B900"/>
  <path d="M10.8438 2.375C10.5812 2.375 10.375 2.58122 10.375 2.84375V4.25H8.96875C8.80941 4.25 8.66875 4.32503 8.57503 4.45622L6.80934 7.0625H5.40938L3.91875 4.83125C3.675 4.46563 3.27187 4.25 2.83128 4.25H0.46875C0.206219 4.25 0 4.45622 0 4.71875C0 5.91878 0.909344 6.92184 2.08122 7.04372L3.58125 9.29375C3.825 9.65937 4.22813 9.875 4.66872 9.875H5.80312L6.125 10.4656L6.40625 11.0281C6.63122 11.4688 7.08128 11.75 7.5875 11.75H8.275C8.90309 11.75 9.4375 11.3094 9.55937 10.6906L9.63441 10.3625C10.0094 8.44997 11.7062 7.0625 13.6562 7.0625C13.9188 7.0625 14.125 6.85628 14.125 6.59375V5.65625C14.125 3.84687 12.6531 2.375 10.8438 2.375Z" fill="#B34B1E"/>
</svg>