<svg width="16" height="16" viewBox="0 0 16 16" fill="none" xmlns="http://www.w3.org/2000/svg">
<g id="Group">
<path id="Vector" d="M8 16C12.4183 16 16 12.4183 16 8C16 3.58172 12.4183 0 8 0C3.58172 0 0 3.58172 0 8C0 12.4183 3.58172 16 8 16Z" fill="#B34B1E"/>
<path id="Vector_2" d="M8.2017 9.79214C8.55501 10.1455 8.55501 10.7511 8.2017 11.1044L7.46983 11.8363C7.11652 12.1896 6.51084 12.1896 6.15753 11.8363L2.95248 8.60602C2.59917 8.25271 2.59917 7.64703 2.95248 7.29372L3.68435 6.56186C4.03766 6.20855 4.64334 6.20855 4.99665 6.56186L8.2017 9.79214Z" fill="#F6B900"/>
<path id="Vector_3" d="M11.0045 4.2142C11.3578 3.86089 11.9635 3.86089 12.3168 4.2142L13.0487 4.94606C13.402 5.29938 13.402 5.90505 13.0487 6.25837L7.49665 11.7852C7.14334 12.1385 6.53766 12.1385 6.18435 11.7852L5.45248 11.0533C5.09917 10.7 5.09917 10.0943 5.45248 9.74102L11.0045 4.2142Z" fill="#F6B900"/>
</g>
</svg>
