<svg width="776" height="564" viewBox="0 0 776 564" fill="none" xmlns="http://www.w3.org/2000/svg">
<path fill-rule="evenodd" clip-rule="evenodd" d="M-304.089 555.034C-303.183 570.08 -302.277 584.879 -301.454 599.182C-301.206 602.737 -300.959 606.292 -300.712 609.764C-300.218 613.236 -299.806 616.708 -299.312 620.098C-298.323 626.877 -297.417 633.491 -296.511 639.857C-293.134 644.983 -293.711 664.329 -287.121 668.711C-286.792 676.399 -286.71 679.128 -283.415 686.155C-287.945 684.171 -281.603 694.422 -284.98 693.761C-281.932 699.465 -283.168 707.568 -279.955 709.552C-281.52 701.119 -284.815 696.406 -282.262 693.017C-281.026 701.036 -276.908 708.725 -278.473 714.926C-276.084 720.878 -269.247 731.047 -270.153 736.834C-266.941 736.338 -268.177 744.027 -265.047 746.59C-263.729 746.59 -264.141 744.027 -263.152 745.763C-259.94 750.227 -260.352 757.585 -257.304 761.058C-257.798 759.487 -258.292 757.999 -256.975 757.916C-254.998 761.636 -256.645 762.133 -254.668 765.853C-252.362 765.357 -255.739 759.9 -255.657 757.337C-258.704 755.601 -264.388 740.968 -263.482 738.488C-260.763 742.456 -258.622 743.2 -259.034 748.409C-256.892 748.574 -258.704 745.35 -257.386 744.771C-258.951 740.555 -261.093 741.299 -262.658 736.669C-260.599 736.834 -258.869 739.314 -256.892 740.224C-258.375 735.594 -260.763 737.826 -262.328 733.61C-261.587 731.956 -258.787 736.586 -259.693 732.618C-260.269 732.204 -260.681 731.708 -260.928 731.13C-260.516 731.047 -260.105 730.964 -259.693 730.799C-258.869 730.386 -257.963 729.89 -257.139 729.476C-257.304 730.055 -257.633 730.468 -258.21 730.716C-256.068 734.189 -256.48 734.933 -256.069 738.57C-254.503 737.909 -255.739 732.204 -256.645 729.228C-254.833 728.236 -253.021 727.327 -251.126 726.417C-250.962 726.417 -250.632 726.583 -250.303 726.913C-249.973 728.153 -249.561 729.311 -249.149 730.551C-249.067 731.956 -248.82 733.362 -247.502 734.437C-245.937 738.157 -244.702 741.795 -246.349 744.606C-241.983 746.755 -236.959 763.703 -237.536 768.25C-235.888 767.92 -233.994 770.152 -232.346 772.797C-232.346 773.79 -232.346 774.699 -232.511 775.691C-232.676 777.014 -231.605 777.51 -230.205 777.179C-229.216 779.659 -228.804 781.644 -229.381 781.974C-227.322 783.876 -225.345 785.86 -223.286 788.01C-222.627 789.663 -221.968 791.316 -221.227 792.97C-221.391 792.97 -221.556 792.887 -221.721 792.805C-219.167 798.344 -216.532 803.47 -213.731 808.43L-213.566 808.678C-207.471 820.004 -200.387 831 -192.562 841.169C-189.844 845.799 -187.044 850.677 -184.078 856.05C-183.172 855.306 -182.019 855.802 -180.866 856.96C-180.289 862.251 -174.853 867.625 -170.405 872.42C-169.334 876.058 -167.605 879.53 -165.381 882.92C-165.545 883.168 -165.71 883.416 -166.04 883.664C-164.475 885.73 -163.816 885.978 -163.321 885.73C-162.662 886.64 -161.921 887.467 -161.262 888.293C-158.297 891.931 -155.002 895.486 -151.955 899.041C-148.742 902.513 -145.695 905.986 -143.306 909.623C-135.893 921.28 -128.48 933.268 -120.078 944.677C-111.429 955.673 -101.545 966.007 -88.6132 972.538C-86.0598 974.605 -85.895 970.968 -83.5887 972.621C-76.0108 979.731 -65.9619 986.18 -55.8305 993.042C-45.2874 999.242 -34.7441 1006.02 -24.6952 1011.81C-10.6926 1020.57 1.49798 1031.73 17.2303 1037.6C26.4556 1040.74 34.7748 1042.98 42.5999 1043.64C50.4249 1044.22 57.6733 1043.56 64.5099 1041.41C78.1831 1047.19 97.5397 1040.83 109.813 1050.33C112.86 1049.92 113.19 1046.78 118.214 1048.43C121.838 1049.18 121.427 1050.83 123.156 1051.99C123.98 1048.19 121.921 1048.6 124.804 1045.87C114.178 1044.96 109.565 1043.06 99.9283 1044.05C97.5397 1042.98 96.9631 1041.57 93.0917 1040.66C71.676 1040.33 46.1417 1038.35 19.2072 1029.25C-6.6565 1020.16 -28.1547 1001.39 -47.0994 996.018C-50.559 993.207 -46.8524 991.057 -48.994 988.412C-59.3724 985.601 -63.5732 976.093 -73.8692 969.81C-80.9529 965.098 -89.7664 964.436 -97.4266 958.401C-105.005 952.035 -110.194 945.752 -115.63 939.138C-120.819 932.359 -126.173 925.249 -133.998 917.064C-133.998 916.568 -134.163 916.155 -134.245 915.659C-130.456 918.8 -127.821 921.776 -121.808 926.406C-122.631 927.894 -124.938 924.257 -125.926 925.083C-121.561 929.63 -117.689 932.441 -114.395 935.335C-111.1 938.229 -108.382 941.288 -105.993 945.917C-104.181 943.106 -99.3211 948.728 -97.0148 947.405C-102.122 942.528 -108.711 936.41 -108.629 931.284C-103.604 934.012 -104.428 938.559 -101.463 938.725C-104.593 932.772 -108.299 929.548 -112.665 926.489C-117.03 923.43 -121.396 920.04 -126.338 914.418C-125.679 913.674 -124.855 913.757 -123.949 913.922C-126.503 909.375 -131.61 906.316 -135.399 903.588C-136.222 902.265 -137.211 901.025 -138.117 899.785C-137.458 900.198 -136.799 900.529 -135.975 900.695C-136.799 898.958 -137.87 897.14 -138.529 895.403C-137.787 895.817 -137.128 896.065 -136.716 895.982C-137.622 895.073 -138.446 894.163 -139.187 893.254C-139.352 892.344 -139.435 891.435 -139.187 890.691C-132.598 894.329 -126.503 896.065 -120.572 897.47C-119.666 898.793 -119.007 900.116 -118.513 901.273L-117.03 899.785C-117.936 899.041 -118.513 898.38 -119.007 897.801C-118.101 897.966 -117.277 898.214 -116.371 898.38C-115.96 898.793 -115.548 899.206 -115.218 899.702C-115.96 900.446 -114.559 903.836 -113.488 901.521C-114.642 900.364 -114.889 899.537 -114.477 898.876C-112.418 900.116 -110.029 900.86 -108.382 902.513C-106.57 904.332 -105.911 907.226 -104.428 909.293C-102.369 912.104 -96.1911 912.104 -94.7908 908.879C-94.2966 907.804 -93.8024 906.895 -93.2258 905.903C-91.3314 906.895 -89.4369 908.053 -87.5424 909.293C-88.2838 912.765 -87.7895 916.32 -86.2245 919.875C-85.9774 920.371 -84.33 920.454 -83.3416 920.454C-82.9298 920.454 -82.2708 920.04 -82.1061 919.627L-81.859 919.048C-78.9761 920.288 -76.0108 921.942 -75.2695 925.414C-74.4458 924.505 -74.0339 923.595 -74.3634 922.438C-76.5874 920.95 -78.729 919.71 -81.2824 917.147C-81.2824 916.899 -81.2824 916.651 -81.3648 916.568C-82.6004 915.328 -83.1769 913.922 -83.6711 912.517C-77.8229 918.139 -72.3866 922.851 -67.0326 926.406C-65.7971 927.233 -64.5616 927.894 -63.4085 928.638L-63.9027 929.134L-62.9142 930.375C-62.9142 930.375 -62.2553 929.796 -62.0081 929.465C-58.1369 931.697 -54.4302 933.433 -50.806 934.922C-49.4881 936.244 -48.2526 937.567 -47.2642 938.725C-45.9463 939.717 -44.4637 940.543 -42.981 941.453C-21.2357 961.377 7.26379 980.64 38.4814 994.778C72.582 1010.57 109.236 1020.16 139.877 1023.47C146.878 1026.77 153.468 1029.25 160.716 1030.74C167.965 1032.31 175.625 1033.47 184.933 1033.47C194.405 1041.98 213.02 1043.22 231.141 1042.23C235.672 1041.98 240.202 1041.74 244.568 1041.49C248.933 1041.16 253.216 1040.74 257.17 1040.58C265.16 1040.33 272.079 1040.58 277.185 1042.32C285.834 1031.49 314.993 1034.13 325.206 1037.77C326.442 1033.88 330.725 1032.15 335.749 1031.49C340.774 1030.74 346.622 1030.82 351.235 1031.15C351.564 1032.64 344.48 1035.87 351.894 1034.21C355.436 1033.8 355.106 1032.15 356.753 1031.07C360.378 1032.73 364.908 1033.47 367.132 1036.28C373.804 1035.37 374.216 1032.64 380.887 1031.73C379.652 1034.21 378.993 1036.86 375.122 1038.6C365.896 1042.32 363.837 1039.42 358.483 1039.26C359.225 1041.82 362.602 1041.82 357.577 1043.72C353.871 1037.77 346.375 1047.61 340.692 1042.73C343.986 1041.9 346.54 1040.91 347.446 1039.26C340.692 1041.65 332.455 1043.97 326.524 1045.95C328.419 1045.62 331.219 1045.79 328.501 1046.7C361.201 1047.94 391.76 1041.98 420.507 1031.9C449.336 1021.73 476.435 1007.51 503.699 990.561C507.982 991.057 514.16 988.164 520.173 985.766C534.587 973.53 545.624 966.007 543.153 954.019C525.527 966.834 512.348 978.656 480.965 994.53C473.305 995.522 466.551 994.364 462.597 989.569C485.495 974.357 514.572 965.676 534.258 947.571C537.058 944.925 537.388 942.858 540.188 940.626C557.238 926.985 567.205 921.859 579.148 912.848C602.376 895.321 621.898 870.766 640.76 848.858C644.879 843.98 652.704 841.83 653.198 833.728C647.514 839.35 641.666 845.303 636.806 851.255C631.782 857.125 627.252 862.664 624.369 867.625C617.944 872.833 609.295 879.943 601.058 887.88C592.327 895.321 583.843 903.588 576.348 909.706C572.065 912.104 568.029 914.584 564.157 917.064C560.204 919.462 556.497 921.859 552.873 924.339C545.707 929.465 538.705 934.426 531.539 939.634C517.207 950.051 501.64 960.716 480.306 969.975C475.611 966.172 471.246 969.645 464.162 972.538C461.856 966.751 455.678 966.917 447.853 969.81C444.229 973.2 452.301 972.456 448.512 975.267C443.323 975.597 438.381 975.597 435.91 971.712C440.028 969.975 444.394 967.413 447.029 967.826C443.57 963.94 434.592 968.653 432.203 963.031C439.369 959.145 446.041 954.681 452.466 950.299C458.726 945.587 464.821 940.957 470.751 936.244C482.613 926.654 494.226 917.477 507.817 909.706C512.842 909.623 517.043 911.773 522.479 910.698C522.561 905.159 511.689 910.037 507.9 907.06C510.7 902.927 515.066 898.876 519.019 894.659C520.173 893.336 521.326 892.014 522.479 890.774C522.726 890.774 522.973 890.608 523.303 890.526C528.409 889.285 534.34 887.549 536.646 882.175C537.058 881.266 537.552 880.439 537.964 879.613C541.835 876.636 545.377 873.66 548.59 870.684C548.754 870.684 548.919 870.518 549.166 870.436C549.496 869.94 549.908 869.609 550.237 869.196C550.814 868.617 551.555 868.038 552.132 867.377C556.25 864.152 561.522 863.987 566.876 864.07C568.77 864.07 569.758 862.995 570.253 861.259C570.582 860.267 571.076 859.192 571.735 858.448C573.383 856.629 574.865 853.405 577.995 856.794C580.878 856.133 582.361 853.901 583.349 851.503C585.161 847.039 587.632 843.897 592.986 844.228C593.975 844.228 595.293 843.897 595.952 843.236C599.658 839.267 605.095 836.787 606.824 831.165C607.895 827.528 610.86 828.272 613.249 827.858C613.661 826.949 613.99 825.709 614.567 825.461C622.639 822.981 628.817 817.772 634.582 811.82C637.63 808.678 640.431 805.619 644.796 803.883C650.644 801.485 657.563 799.336 656.41 790.324C656.245 789.167 658.222 787.679 659.375 786.439C661.352 784.454 663.329 782.636 665.471 780.817C666.541 779.907 667.53 777.758 669.26 779.825C670.413 781.23 673.378 782.057 671.072 784.868C670.413 785.695 669.919 786.769 669.919 787.844C669.919 788.836 670.578 789.828 670.907 790.738C671.401 790.407 671.813 790.159 672.307 789.828C675.931 787.1 678.155 783.132 677.908 778.998C677.744 776.848 677.167 775.278 678.814 773.624C681.533 770.979 684.004 767.92 688.369 768.002C693.641 768.002 689.769 765.109 690.181 763.29C691.005 759.818 692.982 755.27 695.865 753.782C698.83 752.212 700.889 750.145 702.454 747.83C701.795 750.971 701.054 754.113 699.818 757.172C693.064 775.856 676.755 795.946 670.083 814.465C661.929 817.193 668.436 820.004 659.458 826.784C660.529 829.181 661.846 833.728 664.482 832.406C665.635 832.736 666.953 831.661 668.271 830.587C672.225 820.17 678.567 814.135 681.121 804.296C700.642 784.289 711.762 760.479 719.834 734.767C720.575 734.685 721.234 734.602 722.058 734.767C721.975 733.692 721.399 732.866 720.658 732.37C720.822 731.791 720.987 731.295 721.152 730.716C721.893 728.236 722.552 725.756 723.211 723.276C724.611 722.366 726.012 721.539 727.577 720.795C730.377 719.555 732.272 717.075 732.354 713.189C732.519 702.111 732.766 702.028 742.815 696.241C743.638 695.745 744.544 695.497 745.45 695.249C745.698 693.265 746.768 692.107 748.663 691.859C748.416 689.214 744.297 686.734 748.663 683.84C750.887 682.352 752.864 680.202 754.264 677.887C754.84 676.895 755.417 675.986 756.076 675.076C756.076 675.49 756.076 675.821 756.241 676.151C756.405 675.49 756.653 674.663 756.9 673.919C757.806 672.844 758.877 671.852 760.442 671.025C763.572 669.372 760.606 666.313 759.371 664.081C764.478 657.88 759.288 648.703 765.301 642.751C765.301 638.369 764.642 633.739 765.713 629.606C766.949 624.893 769.255 620.677 768.514 615.468C767.937 611.665 769.996 609.35 773.621 608.276C774.279 608.11 775.103 606.043 774.774 605.547C772.467 601.992 773.95 598.685 774.856 595.296C770.655 590.087 771.644 583.804 771.891 577.852C772.138 571.982 770.326 565.698 774.774 560.407C775.597 559.415 774.774 557.1 772.962 556.439C770.902 555.612 768.761 555.116 768.926 552.223C768.926 549.99 768.926 547.841 768.761 545.609C768.184 536.514 769.996 527.09 765.466 518.326C764.889 517.251 765.795 515.184 766.29 513.696C766.784 512.374 768.596 511.464 766.949 509.645C764.395 506.917 765.054 503.445 765.301 500.22C765.795 493.276 765.713 490.134 764.148 487.323C761.842 483.107 760.03 478.477 755.994 475.253C754.429 474.013 752.534 471.863 752.452 470.044C752.205 465.001 751.216 460.371 748.828 456.072C749.816 447.474 745.698 440.364 741.991 433.172C741.497 432.262 740.673 430.609 740.344 430.691C734.001 432.345 733.013 425.731 729.141 423.664C725.27 421.597 721.234 419.696 717.198 417.794C716.457 415.975 715.715 414.074 714.974 412.172C715.221 411.594 714.974 411.098 714.398 410.767C713.739 408.948 713.08 407.047 712.421 405.062C714.727 402.665 716.292 400.433 713.821 396.216C711.185 391.752 710.279 386.213 708.961 381.087C708.549 379.351 708.055 377.863 706.49 377.367C704.184 376.622 702.784 376.126 704.349 373.15C705.502 370.835 704.925 367.28 706.49 365.461C710.361 361.08 705.255 358.682 704.843 355.293C704.678 353.556 701.878 353.722 700.724 354.631C697.677 357.029 695.206 360.005 692.24 362.402C689.357 364.717 691.005 366.371 691.911 369.016C693.723 374.225 692.652 379.764 691.911 385.221C691.911 385.634 691.252 385.965 690.922 386.378C690.511 385.965 689.852 385.551 689.852 385.138C689.605 380.756 685.321 379.103 683.674 375.796C682.85 374.225 686.886 371.662 683.674 370.753C678.732 369.347 676.755 365.957 675.19 361.658C673.296 356.615 671.484 351.572 669.26 346.694C666.871 341.321 663.988 336.029 661.435 330.738C660.776 329.333 659.54 327.679 659.705 326.357C660.446 320.735 657.81 316.601 653.857 313.542C649.656 310.318 649.656 306.267 649.738 301.72C649.821 298.991 650.232 296.098 647.926 294.031C643.396 289.98 641.831 284.027 638.618 279.149C637.218 277 636.889 280.142 636.312 281.216C635.9 282.043 635.159 282.705 634.582 283.449C634.253 283.035 633.594 282.539 633.594 282.126C633.759 275.677 631.947 269.311 635.406 262.945C637.795 258.564 636.312 253.686 633.512 249.056C628.817 241.367 628.24 240.21 620.909 237.73C614.732 235.663 613.661 234.505 613.496 228.801C613.331 223.84 613.908 218.797 609.131 215.325C608.307 214.746 607.236 213.589 607.236 212.679C607.236 204.991 601.553 201.105 596.94 196.558C593.481 193.168 590.68 188.704 585.408 187.547C583.02 182.503 578.737 179.031 575.442 174.732C571.818 169.937 564.487 169.606 562.675 162.992C562.428 161.917 561.11 162.248 560.533 163.654C560.121 164.646 560.204 165.803 559.709 166.795C559.545 167.126 559.298 167.457 559.133 167.787C556.579 165.721 553.697 163.654 550.896 161.669C552.873 163.654 555.179 167.209 557.568 170.268C557.485 170.516 557.321 170.681 557.321 170.929C556.827 173.575 558.803 174.401 561.11 175.063C562.51 175.476 564.322 176.799 564.816 178.039C565.146 178.948 565.64 179.692 566.052 180.519C565.805 180.519 565.558 180.519 565.146 180.354C565.722 181.098 566.217 181.429 566.711 181.759C569.511 186.141 573.712 189.365 576.595 193.664C578.654 196.806 582.196 199.948 582.196 203.172C582.196 207.14 579.395 211.109 577.83 215.077C577.254 216.565 576.76 218.053 576.101 219.541C575.936 220.037 575.442 220.451 575.03 220.782C573.218 222.022 574.536 221.36 574.124 219.541C573.218 215.408 570.994 214.416 567.205 214.498C563.663 214.581 564.652 212.845 565.558 210.53C566.958 206.81 562.922 208.628 561.686 207.471C560.451 206.396 560.204 205.321 561.769 205.156C567.04 204.825 565.558 202.014 564.322 199.121C567.04 196.558 567.123 193.334 566.299 190.027C566.217 189.531 565.805 188.869 565.393 188.704C565.063 188.539 564.404 189.035 564.075 189.365C562.922 190.523 561.192 191.597 560.863 193.003C559.298 199.286 555.509 201.684 549.166 201.684C546.778 200.444 544.389 199.782 542.494 200.361C543.153 198.873 543.483 197.467 542.989 195.897C543.4 196.145 543.648 196.31 543.73 196.393C543.4 195.979 542.989 195.649 542.659 195.235C542.33 194.491 541.835 193.83 540.929 193.086C540.023 192.342 540.353 190.688 540.929 189.2C541.753 189.779 542.577 190.44 543.565 191.019C542.33 193.747 547.848 199.534 548.178 196.227C542.577 195.566 548.343 193.168 547.189 192.011C545.295 191.019 543.73 188.952 542 186.968C543.565 183.578 544.965 180.188 546.036 176.716C547.848 171.177 547.766 165.886 542.33 162.083C537.223 158.528 535.905 153.567 536.893 147.698C537.14 146.127 536.893 144.391 537.058 142.737C537.14 141.993 537.058 141.332 537.058 140.67C537.882 140.836 538.788 141.001 539.776 141.332C538.788 140.339 537.799 139.595 536.811 138.934C536.729 138.438 536.564 137.942 536.399 137.529C542.906 140.753 549.578 146.127 556.332 151.914C561.604 156.544 566.958 161.339 571.982 165.803C576.842 170.433 581.29 174.897 585.655 178.039C584.008 176.551 590.68 179.94 592.492 183.247C592.492 177.543 583.02 167.374 581.537 159.52C577.583 155.882 575.195 152.823 574.7 149.847C572.971 148.524 571.488 147.615 570.253 147.367C572.229 141.58 547.684 125.541 552.543 123.97C548.178 122.151 544.224 121.572 538.294 117.935C536.976 119.092 539.447 120.415 537.552 121.572C534.505 119.588 531.951 118.431 530.386 118.844C536.811 123.143 539.447 120.663 545.13 123.805C542.989 125.293 545.46 128.269 548.095 128.517C551.061 127.608 544.801 125.623 546.119 124.549C547.766 125.623 547.848 123.639 549.99 125.623C545.789 127.277 558.721 131.576 559.709 136.123C558.803 137.115 557.733 137.529 556.085 136.95C549.249 130.749 551.39 135.296 547.436 134.139C544.059 132.155 545.789 130.584 543.483 128.682C541.094 131.08 535.411 127.608 531.375 124.383C525.691 122.399 519.761 121.986 514.242 121.324L513.336 120.58C510.206 117.769 506.499 115.537 502.957 113.14C502.134 112.561 500.981 113.14 500.898 114.462C500.734 117.687 499.333 121.407 501.64 123.97C504.77 127.442 507.158 132.32 513.254 131.824C514.571 131.741 516.548 132.733 517.372 133.891C518.525 135.544 519.596 137.281 520.749 138.934C520.502 139.099 520.09 139.182 519.596 139.347C520.502 139.761 521.161 140.174 521.82 140.588C523.55 143.233 525.197 145.961 526.927 148.69C525.279 153.154 523.797 157.701 521.902 162.083C521.161 163.654 520.749 165.059 521.243 166.63C521.408 167.043 522.149 167.705 522.149 167.705C528.162 162.827 529.151 169.854 531.951 172.004C534.093 173.575 534.175 176.22 534.01 178.7C530.469 179.94 529.068 173.079 525.032 174.732C524.703 174.401 524.291 173.988 523.879 173.657C521.655 170.433 517.784 166.465 513.418 163.406C508.888 160.099 504.605 157.205 502.546 155.386C502.875 156.13 500.486 157.122 499.663 156.792C497.439 153.319 485.742 151.749 491.179 150.922C487.637 148.442 485.99 149.599 483.93 149.93C492.661 153.319 499.498 159.024 505.84 159.768C506.911 163.736 512.43 166.217 516.548 168.862C518.113 169.937 519.514 170.846 520.584 171.838C519.925 171.921 519.102 172.334 518.443 172.582C518.196 172.582 518.031 173.492 518.196 173.74C518.69 174.732 519.596 175.476 519.925 176.551C520.42 178.039 520.914 179.858 519.102 180.85C517.701 181.594 516.136 181.925 514.571 180.767C513.336 179.858 512.018 179.196 510.7 178.452C510.535 176.799 510.7 174.897 509.959 173.74C509.218 172.665 507.323 172.169 505.84 171.921C503.616 171.59 501.393 171.921 499.251 171.177C500.322 170.764 501.475 170.929 498.839 169.441C497.851 169.441 496.697 169.275 495.544 168.945C495.132 168.697 494.721 168.614 494.309 168.531C488.131 166.382 480.8 160.843 476.105 160.016C478.988 161.918 481.789 163.654 484.507 165.472C482.86 165.472 481.212 165.472 479.482 165.472C479.071 165.472 478.576 166.051 478.412 166.465C478.329 166.63 478.659 167.291 478.906 167.457C481.212 169.027 483.601 168.945 485.907 167.457C486.154 167.291 486.237 166.961 486.401 166.63C487.966 167.622 489.449 168.697 490.932 169.689C489.449 170.764 488.049 172.004 486.237 171.673C484.342 171.342 482.365 171.425 480.389 171.673C478.659 169.937 476.764 168.283 474.623 167.291C474.046 169.11 470.751 165.638 470.504 168.118C470.257 168.697 470.504 169.276 470.751 169.854C467.457 168.118 464.244 168.366 460.867 168.449C457.325 168.531 455.101 167.953 453.783 163.736C453.125 161.587 451.56 159.933 449.418 159.024C449.747 157.784 448.512 156.296 446.947 154.808C450.489 154.973 451.807 151.583 456.172 152.989C454.36 151.997 453.042 151.004 452.795 149.847C454.195 148.772 457.243 150.26 458.231 148.607C454.195 147.615 449.747 144.887 445.711 141.166C444.311 144.556 438.463 140.505 436.816 139.347C438.792 138.107 441.84 139.099 444.393 141.332C443.735 137.529 448.759 142.324 448.841 139.513C445.052 136.785 431.05 139.182 427.92 131.741C436.898 136.288 439.863 133.974 445.876 135.048C448.924 131.989 447.935 129.509 445.464 127.277L444.723 129.096C442.417 128.352 442.17 127.36 440.852 126.533C441.758 126.285 442.581 125.954 441.346 125.21C442.252 123.722 442.746 126.698 445.217 127.112C442.087 124.383 436.898 121.986 433.933 119.092C424.378 116.612 411.776 107.848 403.786 107.6C406.916 109.585 414.741 111.073 414.576 115.124C411.199 117.604 408.728 111.238 406.586 113.801C411.034 116.364 413.588 115.537 414.494 118.844C413.093 118.348 413.176 119.671 411.94 119.423C407.904 117.108 403.621 113.47 404.857 111.734C404.527 113.966 402.303 108.923 401.397 111.238C402.797 112.396 402.303 113.966 402.55 115.372C407.822 117.025 410.952 119.258 411.034 122.068C404.115 122.647 399.503 119.175 394.313 118.679C393.325 116.695 392.089 114.876 390.524 113.305C389.124 111.9 387.642 112.23 386.077 112.809C384.759 113.305 384.017 115.372 382.04 114.132C379.322 112.478 376.028 111.404 373.804 109.254C368.779 104.128 362.931 100.656 356.341 98.093C356.341 98.093 356.342 98.0103 356.259 97.9276C356.424 97.6796 356.671 97.4316 356.753 97.1009C363.013 98.093 367.461 96.5222 373.721 99.8291C373.474 99.2505 372.98 99.0024 372.568 98.589C376.522 99.4157 380.558 100.16 384.676 100.904C387.477 96.6048 379.981 100.987 380.311 97.4316C382.947 96.7702 391.595 98.6717 391.76 101.648C389.783 100.739 387.724 99.8291 385.829 99.2505C386.406 100.821 389.042 101.813 391.348 102.805C391.348 102.805 391.595 102.888 391.678 102.971C393.078 103.632 394.396 104.294 394.972 105.286C395.796 104.872 401.315 105.699 398.844 104.376C398.761 104.376 398.514 104.294 398.432 104.211C406.669 106.03 414.329 108.841 421.66 110.99C430.967 114.132 439.863 116.612 449.088 116.612C450.901 120.498 454.525 121.986 458.314 122.317C468.116 125.21 475.693 131.163 480.8 136.206C483.93 132.485 488.543 142.489 493.156 142.654C493.073 143.729 493.815 144.391 492.167 144.473C501.969 145.135 502.628 155.882 512.924 159.355C508.97 156.378 518.607 158.362 510.782 153.981C508.641 154.559 511.936 157.784 509.3 156.378C511.771 152.906 503.122 148.69 501.887 143.729C494.391 143.729 490.602 137.115 482.695 132.485C482.53 130.915 482.53 126.12 478.988 126.781C483.436 128.6 477.094 128.6 476.352 129.427C472.069 127.442 468.61 124.549 465.068 121.986C467.539 121.49 469.598 120.746 470.751 120.002C469.763 119.588 468.857 119.258 467.869 118.844C467.869 118.1 467.869 117.687 469.186 116.777C464.574 113.636 463.421 115.455 460.785 115.124C464.162 111.569 449.088 107.683 446.206 103.715C445.876 105.203 444.558 105.286 442.087 104.376C442.911 103.632 443.899 103.798 442.828 102.392C421.166 94.8687 401.15 89.0815 381.299 83.1289C373.968 83.625 354.035 80.8968 356.341 74.1175C332.208 66.4287 306.344 64.858 279.245 62.5431C270.102 65.7674 258.9 64.1139 250.58 63.3698C251.816 63.5351 248.109 65.1059 245.803 64.2792C237.237 61.4683 251.651 58.6574 258.817 58.9881C252.557 59.0707 258.652 54.3584 259.888 52.7049C273.561 51.3821 284.681 51.9607 296.707 50.7206C299.919 51.134 300.249 52.9529 303.955 53.2009C309.309 50.7207 314.663 55.8464 320.923 56.0118C324.547 56.1772 327.513 53.4489 331.054 53.9449C335.09 54.441 338.303 57.8306 341.68 58.3266C343.739 58.6573 347.446 57.9133 349.175 58.0787C349.011 58.0787 348.105 59.3188 347.775 59.2361C351.399 59.8148 353.541 58.1614 356.671 58.492C357.248 58.492 357.248 60.7242 357.495 60.8069C361.613 62.9565 367.626 60.6415 372.403 61.5509C375.451 64.3619 367.708 63.7005 372.898 65.2713C373.721 63.0391 378.746 64.6925 380.887 63.6178C383.441 68.2475 394.478 66.6768 392.089 70.0664C396.29 70.5625 402.138 70.9758 407.739 72.2986C413.258 73.6214 418.694 75.1095 422.319 76.515C421.001 75.9363 421.413 75.0269 421.742 74.1175C430.556 77.2591 433.438 78.2511 438.628 78.6645C438.381 79.3259 437.392 79.0778 436.98 79.5739C443.652 81.8888 449.912 83.625 455.266 86.0225C460.62 88.4201 465.315 90.735 469.104 92.9672C470.587 92.6364 471.822 91.8924 473.634 91.9751C475.776 94.9513 476.764 94.6206 479.565 94.0419C481.295 96.2741 479.153 98.4237 482.942 98.7544C479.894 95.1167 488.378 98.7544 490.932 99.4984C490.355 100.739 493.65 101.813 492.002 103.136C491.591 104.707 488.378 102.227 487.719 103.384C495.132 106.774 496.039 104.872 498.098 102.144C495.874 99.8291 491.344 97.5969 488.79 95.282C485.001 97.8449 473.799 89.9082 471.74 87.18C473.222 87.8414 473.222 86.5186 474.54 87.0146C474.376 87.8413 473.552 88.7508 474.87 89.4948C483.271 88.6681 489.449 94.2899 498.18 99.085C496.78 95.282 501.31 98.2583 502.628 95.8607C493.567 91.479 484.342 87.2627 476.188 83.2116C479.235 86.1879 471.987 83.5423 470.504 83.625C468.692 81.6408 462.926 76.763 460.95 76.8457C462.267 77.5898 461.773 78.4165 461.361 79.3259C457.82 73.9521 449.912 72.7119 443.405 69.2397C450.818 72.3813 447.935 69.4877 453.701 70.8105C448.759 67.9995 446.123 66.0154 441.428 67.0902L442.087 65.1059C436.074 64.1139 428.991 61.0549 421.495 57.8306C417.706 56.2598 413.917 54.5237 410.046 53.2009C406.092 52.0434 402.138 51.2166 398.267 50.8033C398.267 49.9765 398.926 48.9018 397.526 48.4058C383.935 47.6617 365.732 38.1542 358.648 39.8077C358.648 36.9968 365.073 37.3274 367.791 39.6423C367.791 34.6819 359.883 36.5833 356.589 36.6661C356.753 36.6661 356.589 35.2606 356.836 35.2606C351.647 35.2606 348.928 37.9887 343.492 37.4927C336.573 36.914 335.09 32.9457 325.948 32.863C328.254 36.5006 316.558 31.7883 313.016 33.1938C319.852 34.2685 315.899 34.5991 310.38 34.0204C304.861 33.607 297.613 33.0284 297.777 30.6308C301.978 31.0442 302.72 29.308 305.602 28.9773C298.519 28.8946 301.896 28.0679 300.66 25.1744C294.895 25.6703 294.318 23.6862 290.364 23.2729C290.859 25.505 296.048 25.5049 297.942 27.1585C296.212 27.0757 295.142 27.3239 294.071 27.6546C291.106 26.6625 289.294 23.0248 286.411 25.9184C286.575 24.6783 286.164 23.6861 285.175 23.0247C295.636 22.694 302.802 22.3634 309.803 22.6115C316.722 23.3555 323.476 24.6783 333.031 27.4065C338.962 27.1586 344.892 28.6466 350.823 29.9695C356.836 31.2922 362.849 32.2843 369.191 32.0363C369.109 33.3591 373.309 33.5244 372.568 35.0126C388.795 36.9967 403.951 47.827 417.953 46.9176C414.494 45.5121 409.304 44.8508 409.634 42.8666C413.588 43.776 431.544 47.9097 426.19 51.2166C429.238 51.878 432.121 52.2087 436.239 54.0276C439.039 51.878 429.897 51.63 430.72 49.8112C436.404 51.4647 449.336 54.6889 452.136 59.7321C463.421 63.4524 472.811 68.1649 481.295 72.2159C489.696 76.4323 497.027 80.7313 503.122 85.8572C505.429 82.9636 504.77 88.4201 507.158 89.4122C510.453 90.2389 507.652 85.7745 509.876 86.9319C511.03 87.5933 511.441 87.18 512.43 87.5933C517.043 89.5775 515.642 91.479 518.196 93.3806C520.502 92.4712 525.691 96.2741 530.057 98.7544C528.327 103.88 537.964 105.782 542.33 108.675C551.39 114.214 560.615 122.565 569.841 129.923C578.819 137.529 587.797 144.225 594.057 149.764C585.326 139.678 580.384 138.851 573.63 129.592C566.628 126.12 559.792 120.746 552.873 115.041C545.789 109.585 538.294 104.294 530.88 100.077C531.951 98.6717 530.221 97.1836 530.386 95.6955C532.198 95.6128 535.164 97.2662 537.058 97.2662C533.434 93.2978 519.349 89.9909 513.995 81.9715C512.348 83.625 509.217 80.4007 506.664 78.9126C500.734 81.3101 483.189 72.5467 476.764 68.5783C477.588 67.5035 487.555 73.5387 484.425 70.6452C480.883 68.9917 477.176 67.3382 478.082 65.354C480.306 65.9327 484.754 69.405 485.495 68.0822C482.118 65.354 473.799 62.8737 477.588 59.7321C472.728 56.9212 478.165 62.9564 472.893 60.6415C472.893 59.9801 472.152 59.4015 470.751 58.9054C470.422 55.1851 474.211 56.7558 476.188 56.0117C471.493 51.7954 470.092 54.2755 469.351 55.185C466.304 51.7127 473.47 54.193 470.916 51.2994C466.221 47.7444 460.455 45.5948 457.655 44.6027C459.055 45.2641 459.385 46.0908 459.714 46.8349C457.655 45.5948 453.783 46.8349 453.454 44.52C454.937 44.9334 456.996 45.9255 457.49 45.2641C451.065 40.8824 439.04 38.3195 435.827 33.6898C432.45 33.4417 437.474 36.5007 433.686 35.922C426.108 34.3512 427.837 31.2921 423.06 29.2253C422.072 29.9693 423.554 33.1937 420.836 32.1189C416.471 30.1347 408.069 29.8041 409.799 26.7451C411.281 26.5799 419.848 28.7293 416.718 27.0758C409.057 26.4145 404.28 23.6034 400.409 25.753C395.384 23.6034 402.221 22.3633 397.443 20.7099C395.549 20.7099 396.62 23.2727 394.231 22.7766C392.831 21.1232 379.569 14.7574 385.418 19.1392C379.981 17.1549 378.91 16.9897 371.085 15.0054C370.674 15.9975 371.085 17.6509 369.273 17.4855C358.483 13.9306 348.022 12.8559 337.973 11.4504C327.924 10.2929 318.205 8.97013 308.403 7.15129C307.826 8.30876 310.297 9.05278 308.238 9.21818C300.825 7.73002 294.73 6.40727 289.623 8.97014C289.623 7.97807 290.282 7.48198 291.023 6.90324C285.505 7.89531 278.586 6.07658 273.643 4.75383C277.35 2.1082 284.187 4.75383 285.834 0.372113C276.444 0.372114 272.326 5.99382 261.618 4.42302C259.806 5.99382 265.077 7.15141 261.618 7.23405C257.582 6.24199 256.428 6.40727 253.628 7.81267C253.628 5.41508 249.592 5.41521 246.874 4.58843C236.413 7.73003 225.787 3.51372 216.397 8.39153C211.043 8.30877 205.113 8.22612 198.935 8.7221C192.758 9.46624 186.415 10.3755 180.238 11.533C167.8 13.7652 156.104 16.5762 148.032 19.3871C146.467 17.8163 140.618 20.3792 140.701 17.4855C133.864 21.8674 128.675 18.7258 124.145 23.1901C125.792 22.8594 127.275 22.6114 127.11 23.8515C124.145 25.257 123.815 25.1743 118.296 26.9105C117.885 25.9184 117.802 24.513 115.084 25.5877C112.201 31.0442 100.67 29.5561 94.2449 30.6309C94.2449 32.0363 96.4688 31.4576 97.5396 31.871C92.5974 33.5244 83.784 37.5754 81.3954 34.5165C84.3606 32.6149 86.8317 35.7566 87.9025 32.863C86.0904 33.3591 85.9256 31.9537 84.6901 31.7883C72.2525 40.5518 53.0606 46.5043 44 49.4806C40.7876 50.7207 40.2935 53.6143 38.8108 54.2757C35.0219 55.9292 30.6563 54.5236 24.6435 58.8227C25.7142 58.0786 22.9137 59.5668 19.8661 61.2203C18.6305 61.7991 6.85184 69.3224 2.40397 68.413C1.0037 67.0902 11.2998 62.7911 7.34604 63.5352C3.14524 65.9327 2.0745 67.4208 -2.29104 68.413C-0.890772 69.7357 -2.12631 71.1412 -4.02078 72.2159C-5.83285 73.3734 -8.38632 74.2828 -9.78658 74.2002C-6.73898 70.9759 -1.46737 68.0823 -0.97317 65.2714C-8.05685 69.8184 -19.5061 81.0621 -21.8948 75.0269C-21.5653 75.6057 -23.4598 77.0111 -24.2011 76.4324C-20.4121 72.0506 -23.0479 71.968 -19.8356 67.9996C-25.7661 75.1923 -33.0145 78.4992 -39.9334 82.1369C-46.77 85.8572 -53.6067 89.2469 -57.2309 97.7623C-58.3017 96.8529 -56.9014 95.6128 -57.8075 94.7034C-61.2669 97.1836 -59.6196 98.7544 -64.5617 101.565C-65.1383 100.325 -66.7032 101.235 -67.3622 100.16C-69.998 102.475 -73.128 104.955 -74.1164 107.022C-69.5037 103.136 -66.5385 102.723 -64.3969 104.046C-72.2219 108.675 -73.7869 113.801 -82.518 116.116C-77.823 113.305 -80.6235 111.982 -75.8462 109.254C-77.9054 108.758 -78.9762 106.03 -82.7651 109.254C-82.2709 110.163 -80.7883 110.99 -82.1062 112.23C-83.2593 109.337 -98.4151 119.175 -103.934 124.466C-103.275 127.36 -100.063 123.639 -99.1565 125.789C-100.886 126.285 -103.275 128.434 -105.664 130.749C-104.675 127.608 -105.252 128.352 -107.476 126.698C-111.182 129.179 -107.311 129.675 -110.111 131.907C-111.759 129.84 -116.371 135.71 -118.595 134.883C-121.396 140.67 -124.032 140.422 -124.608 138.603C-127.079 143.564 -129.056 144.473 -130.209 148.607C-132.845 149.186 -130.786 147.863 -132.186 146.623C-135.975 151.17 -135.728 150.509 -139.682 152.741C-140.67 154.725 -140.67 156.461 -141.494 158.611C-144.212 159.437 -145.612 162.414 -143.965 158.197C-155.249 168.449 -152.614 177.543 -158.627 181.842C-155.249 185.81 -160.933 189.2 -165.628 191.928C-165.628 194.326 -161.262 190.936 -163.486 193.664C-167.11 195.566 -169.17 197.881 -171.888 202.511C-174.359 202.097 -172.3 199.452 -173.041 198.212C-173.947 201.353 -177.571 203.999 -177.407 205.156C-175.924 203.833 -174.524 203.172 -173.288 203.172C-175.265 205.735 -174.771 207.058 -177.654 210.117L-179.301 208.876C-183.09 220.368 -195.363 231.281 -195.692 237.151C-197.669 241.037 -198.822 238.474 -200.634 240.375C-199.893 240.954 -198.987 240.706 -198.081 240.375C-198.987 243.765 -211.507 254.761 -204.012 249.47C-207.553 254.761 -210.93 255.009 -211.507 259.225C-209.695 256.58 -208.295 257.489 -209.695 260.3C-209.613 258.15 -211.095 258.316 -212.907 261.54C-212.578 263.276 -213.731 265.922 -214.555 268.402C-214.308 264.351 -218.838 273.114 -219.25 275.099C-218.591 274.272 -217.849 272.784 -217.273 273.114C-218.426 275.595 -220.815 282.539 -223.451 283.614C-223.862 282.457 -220.897 279.067 -221.968 278.24C-225.345 281.63 -224.192 283.945 -226.169 288.244C-231.028 288.078 -229.299 301.72 -234.653 300.645C-231.028 296.346 -230.617 291.551 -229.793 287.5C-228.887 283.531 -227.898 280.142 -223.862 278.654C-227.24 276.587 -222.792 273.776 -220.815 267.906C-223.533 268.154 -221.227 265.26 -221.886 264.186C-225.592 269.394 -223.203 267.906 -223.451 269.559C-224.768 270.303 -226.169 273.776 -227.404 272.122C-226.663 270.717 -225.345 268.815 -225.922 268.237C-228.31 273.445 -230.534 275.512 -232.593 275.595C-233.664 279.15 -235.312 281.712 -237.453 285.185C-239.43 288.822 -241.819 293.287 -244.702 300.397C-244.702 303.208 -241.901 299.57 -243.384 304.035C-253.845 318.999 -255.492 336.029 -261.258 348.596C-260.187 351.986 -256.645 347.604 -258.704 353.887C-260.763 356.698 -261.834 355.375 -263.152 353.804C-264.799 366.536 -271.471 372.82 -275.178 385.965C-271.06 392.909 -281.273 409.692 -278.637 418.952C-278.061 412.586 -276.084 404.649 -272.954 402.169C-271.801 407.708 -274.766 423.251 -278.967 420.275C-278.308 427.963 -284.98 433.172 -281.356 436.396C-286.38 436.975 -288.686 452.352 -288.439 461.364C-288.439 460.041 -289.51 463.265 -289.922 466.655C-290.993 475.584 -292.475 485.587 -293.546 495.425C-293.958 503.114 -293.876 510.803 -293.217 517.83C-293.958 517.83 -294.782 517.83 -295.77 517.417C-295.193 525.85 -294.617 534.2 -294.04 542.467C-294.205 542.302 -294.37 542.219 -294.782 542.467C-293.628 546.601 -293.958 548.089 -293.381 551.975C-293.134 554.785 -292.97 557.514 -292.722 560.325C-294.123 563.797 -295.194 570.08 -295.523 573.635C-295.688 570.99 -297.5 572.064 -297.17 568.344C-296.182 562.392 -296.594 555.034 -299.23 550.734C-298.735 547.924 -298.076 547.841 -297.088 549.329C-298.818 533.456 -296.594 521.633 -299.559 507.082C-297.17 510.72 -297.088 493.772 -299.724 497.492C-297.747 488.315 -295.688 476.576 -294.617 464.919C-294.04 459.049 -293.628 453.262 -293.546 447.805C-293.546 445.077 -293.546 442.431 -293.546 439.951C-293.546 437.471 -293.464 435.156 -293.546 432.924C-294.452 439.703 -298.406 451.608 -296.511 457.643C-299.065 454.088 -297.912 463.596 -296.841 464.588L-298.9 464.34C-303.842 493.855 -304.254 525.023 -304.583 555.199L-304.089 555.034ZM-107.064 937.319C-109.452 938.477 -110.935 934.839 -111.841 932.937C-110.523 931.945 -107.393 936.492 -107.064 937.319ZM470.587 86.2706C470.34 89.9082 464.574 84.617 464.08 85.5265C461.197 82.8809 467.621 84.369 470.587 86.2706ZM430.638 62.791C428.908 66.4287 426.767 61.6337 421.989 60.4762C422.978 59.1535 428.002 62.295 430.638 62.791ZM420.671 73.3734C420.095 75.1922 414.658 73.0427 413.423 71.5546C413.999 70.1491 418.447 73.0426 420.671 73.3734ZM334.349 37.8235C333.196 38.2369 331.384 38.1542 329.242 37.8235C329.489 36.8314 329.654 35.8393 328.254 35.5086C329.407 34.0205 336.161 35.922 334.431 37.8235L334.349 37.8235ZM293.989 30.0521C294.812 32.0362 291.353 31.3749 291.353 32.6977C301.402 35.178 311.863 33.6898 315.075 39.3943C306.426 36.9141 302.884 38.8982 296.13 39.9729C294.483 39.2289 293.741 37.9888 291.188 37.6581C293.165 36.0873 294.318 36.7486 297.53 37.2447C296.624 34.5165 293.247 32.9457 287.564 32.5323C286.74 29.8868 289.705 29.556 294.071 30.0521L293.989 30.0521ZM-251.456 418.29C-253.021 418.125 -250.632 413.743 -250.55 411.842C-250.138 412.503 -249.726 413.247 -249.561 414.239C-250.056 415.397 -250.55 416.471 -250.962 417.629C-251.126 417.629 -251.291 417.877 -251.456 418.373L-251.456 418.29ZM-240.171 327.762C-237.371 323.05 -238.112 323.628 -235.641 318.006C-233.582 316.436 -231.44 318.668 -234.158 323.05C-236.3 317.759 -236.3 328.589 -240.171 327.762ZM97.7043 68.0822C98.0338 66.3461 104.129 65.1887 106.93 64.1965C105.776 67.9996 102.646 66.5114 97.7043 68.0822ZM163.023 38.7329C170.106 38.0715 173.401 39.0635 181.308 39.3116C177.684 43.0319 170.189 41.3785 162.775 43.7761C162.775 42.1226 164.258 40.8824 163.023 38.7329ZM201.653 38.2369C202.642 35.8393 205.937 38.1542 206.76 38.4849C207.337 40.0557 203.218 39.4769 203.301 40.8824C198.935 41.3785 206.101 37.8235 201.653 38.3195L201.653 38.2369ZM186.415 39.1463C186.992 37.4101 190.287 36.666 190.863 34.9299C192.84 36.7486 201.736 33.3591 202.642 36.0046C196.876 34.7645 193.087 39.725 186.415 39.1463ZM195.805 49.1498C199.841 48.1577 203.466 46.8349 210.137 45.9255C213.02 49.4805 207.254 50.8033 200.006 52.6221C192.758 54.2756 183.862 55.4331 180.402 56.4252C174.966 55.4331 173.483 52.7875 180.649 50.7206C180.485 51.2994 179.496 51.6301 179.661 52.2915C187.486 51.0514 191.769 50.2246 195.723 49.1498L195.805 49.1498ZM207.913 37.6581C217.056 35.2605 238.39 35.1778 233.283 38.8155C226.776 36.2526 218.457 39.8076 207.913 37.6581ZM173.73 53.9449C174.472 55.6811 171.507 56.1772 169.283 56.8386C168.953 54.9371 171.424 53.0355 173.73 53.9449ZM164.423 75.1922C172.907 73.9521 181.473 73.1254 188.063 72.2159C190.946 71.0585 186.58 69.3224 184.027 69.9838C184.85 67.8342 189.051 69.405 191.11 68.8263C191.44 70.0665 189.875 70.4798 190.369 71.8026C191.11 73.2908 196.217 71.1412 198.688 71.2239C191.193 75.8536 183.368 77.5071 174.307 78.5819C169.777 79.0779 164.917 79.574 159.81 80.1526C154.703 80.9794 149.267 82.3022 143.337 83.9557C143.172 82.9636 143.007 81.9715 141.607 82.2195C144.654 80.6487 148.196 79.2433 152.068 78.0032C153.962 77.3418 156.021 76.7631 158.08 76.267C160.14 75.9363 162.281 75.6056 164.423 75.1922ZM444.558 158.445C444.064 158.528 443.487 158.445 442.993 158.197C442.993 158.197 442.993 157.866 443.158 157.701C444.723 158.032 445.464 158.197 445.876 158.445C445.464 158.445 445.052 158.445 444.558 158.445ZM510.782 186.637L511.853 185.645L512.842 186.141L512.348 186.885L511.853 187.629L510.865 186.554L510.782 186.637ZM299.919 959.062C300.825 958.153 302.225 957.657 304.367 957.492C304.696 957.492 305.026 957.492 305.355 957.492C306.262 957.822 307.744 957.574 309.227 957.492C306.344 959.062 303.214 959.393 300.002 959.145L299.919 959.062ZM-274.354 682.187C-275.26 679.128 -274.519 677.805 -273.695 676.565C-272.707 680.285 -272.46 684.171 -271.307 687.891C-271.307 688.635 -271.471 689.296 -271.636 689.793C-273.942 681.938 -270.895 682.6 -274.354 682.187ZM-276.002 675.655C-276.413 673.258 -276.825 671.522 -277.155 669.951C-276.99 669.951 -276.908 670.116 -276.661 670.116C-276.166 670.777 -275.755 671.439 -275.425 672.1C-274.766 674.167 -274.354 676.151 -276.002 675.655ZM-271.471 500.634C-271.636 502.453 -271.307 503.527 -270.73 504.189C-270.977 507.248 -271.389 510.141 -272.048 512.291C-272.542 511.464 -272.954 510.555 -273.366 509.645C-273.531 510.886 -273.036 512.704 -272.872 514.358C-272.954 514.523 -273.036 514.771 -273.119 514.937C-273.036 515.267 -272.954 515.681 -272.872 516.094C-272.954 516.673 -273.201 517.169 -273.695 517.499C-273.86 515.019 -275.59 515.102 -274.766 510.886C-270.071 505.76 -273.119 508.653 -271.389 500.634L-271.471 500.634ZM161.293 951.953C162.117 951.787 162.528 951.953 162.776 952.366C162.281 952.531 161.705 952.614 161.128 952.779C161.128 952.449 161.128 952.035 161.211 952.035L161.293 951.953ZM-174.441 818.434C-172.3 818.599 -170.488 819.178 -170.323 821.823C-170.323 821.823 -170.323 821.906 -170.323 821.989C-171.805 820.914 -173.123 819.756 -174.441 818.516L-174.441 818.434ZM-270.236 541.062C-270.071 543.128 -269.906 545.278 -269.742 547.428C-269.742 547.593 -269.906 547.758 -269.906 547.924C-270.401 549.494 -271.801 550.817 -273.119 552.14C-273.119 549.99 -273.119 547.758 -273.119 545.609C-273.283 540.814 -273.613 536.184 -274.354 531.802C-273.283 531.719 -271.966 531.967 -272.13 529.239C-273.201 528.991 -274.766 529.653 -274.848 527.916C-274.354 524.031 -273.531 520.889 -272.295 518.409C-270.812 524.775 -270.483 532.711 -270.153 541.062L-270.236 541.062ZM-272.789 559.581L-272.789 558.506C-272.789 558.506 -272.707 559.25 -272.789 559.581ZM-204.423 785.777C-202.858 787.431 -203.188 789.746 -205.165 791.317C-205.329 791.399 -205.494 791.482 -205.741 791.482C-208.048 788.671 -210.189 785.447 -212.248 781.809C-209.366 781.313 -207.718 782.388 -204.506 785.777L-204.423 785.777ZM-202.117 795.45C-199.728 796.112 -198.163 797.682 -197.34 800.08C-198.987 798.674 -200.552 797.104 -202.117 795.45ZM-270.648 503.031C-270.895 501.461 -270.812 499.724 -270.483 497.988C-270.483 499.724 -270.483 501.378 -270.648 503.031ZM-286.215 624.645C-286.545 625.637 -287.039 626.712 -287.616 627.704C-287.616 625.472 -287.368 623.57 -286.462 622.826C-286.462 623.405 -286.298 623.984 -286.215 624.645ZM-284.568 637.625C-284.568 638.038 -284.568 638.617 -284.568 638.948C-285.062 638.369 -285.474 637.46 -285.886 636.302C-285.474 636.633 -285.062 637.046 -284.486 637.542L-284.568 637.625ZM-280.367 651.845C-278.637 648.042 -281.108 643.495 -282.344 643.991C-282.179 642.255 -281.685 641.676 -281.108 641.593C-280.532 642.338 -279.955 643.082 -279.461 643.826C-279.296 644.322 -279.214 644.818 -279.132 645.314C-278.473 646.141 -277.731 646.885 -276.99 647.546C-276.578 648.29 -276.166 648.951 -276.002 649.365C-275.425 650.77 -277.072 652.672 -278.802 652.424C-279.214 652.424 -279.708 652.258 -280.12 652.093C-280.12 652.01 -280.202 651.928 -280.285 651.845L-280.367 651.845ZM-270.565 689.627C-270.565 689.627 -270.483 689.875 -270.401 690.041C-270.153 690.619 -270.153 691.033 -270.236 691.529C-270.318 690.867 -270.483 690.289 -270.565 689.71L-270.565 689.627ZM291.929 957.409C292.753 957.409 293.412 957.657 294.071 957.988C293.33 957.822 292.671 957.574 291.929 957.409ZM124.639 66.5115C123.65 63.5352 128.345 65.85 131.64 63.9485C130.405 66.0981 127.851 66.2634 124.639 66.5115ZM-145.283 196.393C-146.601 194.078 -141.659 192.507 -138.776 188.043C-137.952 188.952 -136.552 187.795 -135.81 188.869C-139.023 191.68 -142.318 194.739 -145.283 196.31L-145.283 196.393ZM-151.708 204.743C-152.366 203.999 -153.108 203.337 -154.179 204.412C-155.744 203.089 -150.554 197.715 -148.66 197.054C-147.754 198.873 -148.989 201.518 -151.708 204.743ZM-253.68 424.739C-253.68 424.739 -254.174 424.491 -254.421 424.326C-253.597 422.424 -253.268 422.259 -252.856 422.507C-253.103 423.251 -253.433 423.995 -253.68 424.739ZM-268.836 477.237C-268.753 478.312 -268.671 479.304 -268.506 480.213C-268.918 480.627 -269.33 480.957 -269.742 481.123C-269.742 479.883 -269.33 478.56 -268.836 477.237ZM-271.389 485.753C-271.142 487.406 -270.895 489.556 -270.73 491.87C-271.142 493.772 -271.636 495.508 -272.707 497.988C-272.377 492.118 -271.801 490.217 -272.048 485.918C-271.801 485.918 -271.554 485.753 -271.307 485.753L-271.389 485.753ZM-288.027 600.422C-288.686 603.646 -288.851 606.87 -288.357 610.839C-292.228 609.268 -290.581 600.008 -288.604 596.701C-288.439 597.941 -288.274 599.182 -288.11 600.339L-288.027 600.422ZM-286.957 620.181C-288.192 618.693 -288.933 615.799 -289.51 612.409C-287.039 610.921 -286.215 618.031 -286.957 620.181ZM-277.072 685.742L-274.354 684.997C-273.366 687.23 -274.931 690.95 -272.625 691.529C-272.13 696.076 -274.354 690.454 -275.013 690.785C-275.343 692.521 -274.437 693.513 -273.283 694.836C-273.778 695.249 -274.189 695.662 -274.601 696.076C-276.331 693.265 -277.567 689.958 -277.072 685.742ZM-271.718 708.229C-270.812 708.312 -270.318 710.709 -269.824 712.611C-269.824 712.611 -269.989 712.611 -270.071 712.611C-270.73 712.611 -271.307 713.189 -271.718 713.768C-273.531 710.048 -271.471 710.296 -271.718 708.229ZM-260.352 721.209C-260.352 721.209 -261.258 721.209 -261.587 721.043C-263.976 719.473 -265.541 717.488 -266.117 714.512C-266.364 713.107 -267.518 712.611 -268.836 712.528C-269.083 711.453 -269.247 710.296 -269.247 708.808C-268.588 708.642 -268.753 707.485 -268.259 707.071C-266.529 713.107 -263.235 710.957 -267.271 708.146C-267.435 707.319 -267.6 706.493 -267.765 705.666C-265.541 705.666 -263.317 705.749 -261.093 705.997C-260.434 705.997 -259.446 707.733 -259.61 708.477C-260.105 710.461 -261.917 712.445 -261.669 714.099C-261.34 716 -258.951 717.406 -259.446 719.886C-259.528 720.382 -259.94 720.878 -260.352 721.209ZM-236.877 764.943C-236.053 765.357 -235.229 765.687 -234.405 765.274C-233.911 766.514 -233.335 767.506 -232.841 768.416C-232.676 769.242 -232.593 770.152 -232.593 770.979C-233.911 769.077 -235.559 766.845 -236.959 764.943L-236.877 764.943ZM-147.177 888.293C-147.671 887.715 -148.248 887.053 -148.742 886.475C-148.66 886.309 -148.578 886.061 -148.413 885.896C-145.53 886.475 -144.13 890.278 -142.4 893.915C-143.965 892.014 -145.448 890.195 -147.177 888.293ZM-99.4035 903.588C-99.4035 903.588 -99.8153 903.092 -99.9801 902.761C-99.4035 903.009 -98.8269 903.257 -98.2503 903.423C-98.4974 903.753 -98.9093 903.836 -99.4035 903.588ZM318.782 956.086C318.782 955.507 318.782 954.929 318.782 954.433C317.464 954.433 316.64 955.177 316.146 956.169C313.922 956.169 311.698 956.086 309.392 956.004C310.215 954.185 311.863 953.027 313.428 951.952C316.063 950.216 317.958 951.208 318.864 954.102C319.77 953.771 320.758 953.523 321.664 953.11C326.03 950.878 327.595 950.96 329.901 953.937C329.901 954.019 330.066 954.185 330.148 954.267C326.359 955.507 322.653 956.004 318.864 956.086L318.782 956.086ZM350.905 951.043C347.116 951.787 343.492 952.118 340.197 952.118C341.021 951.374 342.092 950.878 343.822 950.96C344.892 950.96 346.375 950.96 346.869 950.299C350.576 945.587 356.506 949.472 360.625 946.496C363.508 944.429 365.155 945.504 366.555 947.075C361.284 948.811 355.93 950.134 350.905 951.043ZM624.863 285.681C625.357 285.763 625.769 287.334 625.687 288.161C625.687 288.574 625.357 288.988 625.11 289.401C624.863 289.815 624.533 290.145 624.286 290.559C623.875 289.732 623.216 288.988 623.051 288.161C622.886 286.838 623.051 285.267 624.945 285.681L624.863 285.681ZM609.707 244.096C609.872 243.352 610.86 242.856 611.437 242.194C611.766 242.608 612.425 242.938 612.425 243.352C612.59 244.84 612.59 246.328 612.672 247.816C612.672 247.816 612.837 247.816 612.919 247.816L612.919 248.147C613.661 248.477 614.484 248.808 615.143 249.221C615.308 249.221 615.143 250.296 614.979 250.296C613.167 250.544 613.084 249.387 613.002 248.147L612.755 248.147L612.755 247.816C610.284 247.816 609.131 246.576 609.789 244.096L609.707 244.096ZM599.741 235.001C600.564 235.498 601.388 235.994 602.294 236.49C601.388 236.986 600.482 237.812 599.576 237.73C598.67 237.73 597.846 236.82 596.94 236.242C597.846 235.828 598.834 235.332 599.741 234.919L599.741 235.001ZM593.069 227.891C593.151 226.651 593.233 225.411 595.128 225.742C595.293 225.742 595.457 226.734 595.293 226.817C594.634 227.23 593.81 227.561 593.069 227.891L593.069 228.222C593.069 228.222 592.904 228.222 592.822 228.222C592.904 230.206 593.151 232.191 591.504 233.761C590.515 234.671 587.303 234.671 587.385 233.761C587.385 232.935 587.715 231.943 588.209 231.364C589.444 229.876 590.515 228.057 592.904 228.222L592.904 227.974L593.151 227.809L593.069 227.891ZM579.972 224.833C582.278 219.541 587.138 215.49 587.632 209.207C587.632 208.876 589.609 208.38 590.433 208.628C591.257 208.876 592.492 210.117 592.41 210.695C590.845 216.896 588.127 222.683 584.255 227.809C583.926 228.222 582.196 227.809 581.208 227.561C581.208 227.561 580.713 227.065 580.384 226.817C580.302 226.651 580.219 226.569 580.054 226.486C580.054 225.99 579.725 225.329 579.89 224.915L579.972 224.833ZM530.633 183.743C531.21 182.503 532.034 182.007 533.269 182.421C532.94 183.495 532.281 184.405 530.633 184.653C527.833 185.066 526.597 183.33 526.927 180.85C526.927 180.519 526.927 180.354 526.927 180.106C527.833 181.015 528.904 182.173 530.716 183.743L530.633 183.743ZM510.124 178.618C510.124 178.618 510.124 178.37 510.206 178.287L510.453 178.535C510.453 178.535 510.206 178.535 510.124 178.618C510.124 178.866 509.959 179.114 509.876 179.362C509.629 179.196 509.382 179.114 509.218 178.948C509.547 178.866 509.794 178.783 510.124 178.618ZM398.761 91.479C408.975 96.1914 418.942 100.904 431.05 103.136C435.003 104.955 438.875 107.518 443.076 110.163C443.487 110.494 443.982 110.825 444.476 111.073C442.581 110.659 440.687 110.246 438.875 109.833C434.344 108.841 429.979 107.849 425.613 106.526C421.166 105.368 416.553 103.88 411.611 101.648C403.292 105.368 391.513 90.5696 383.606 91.6444C386.736 96.6875 373.392 92.5537 365.732 91.6444C366.967 89.4121 366.061 86.5186 365.567 82.4676C377.757 83.5423 388.383 87.5107 398.761 91.3137L398.761 91.479ZM244.65 65.5193C242.179 67.0901 240.696 63.9485 236.248 64.6099C236.331 65.2713 237.731 65.0233 238.719 65.1886C238.472 66.1807 235.177 65.602 235.26 66.7594C236.66 68.2476 242.755 66.5941 245.968 66.8421C241.108 70.3144 229 70.0665 225.046 72.2986C223.069 70.8932 223.893 68.5783 224.634 68.0822C223.316 65.7673 221.998 68.0823 219.775 67.0075C216.562 68.1649 223.646 68.165 222.493 70.3144C213.432 70.9759 211.291 70.1491 207.337 72.712C203.465 72.1333 207.337 71.4719 200.253 73.0427C199.018 68.3303 207.666 70.7278 210.467 68.9916C206.101 66.0154 195.558 73.7041 194.817 68.9916C198.523 68.5783 202.395 67.7515 206.431 66.9248C210.467 66.3461 214.668 65.6847 218.951 65.1059C227.517 63.9485 236.331 63.4525 244.65 65.602L244.65 65.5193ZM241.932 36.914C243.085 34.7645 239.049 35.8393 236.825 35.7566C240.943 34.5992 247.697 34.2684 255.193 34.0204C262.771 34.2684 271.09 34.6819 278.503 34.1858C269.69 39.3943 255.275 34.4338 241.932 36.914ZM282.292 32.2843C275.126 31.1269 273.396 31.6229 265.736 30.9615C272.902 34.5165 249.839 32.6977 247.944 30.9615C253.957 28.9773 261.041 29.3907 267.713 29.8041C274.385 30.1347 280.645 30.4655 284.928 28.812C285.916 31.1269 282.869 30.8788 282.292 32.2016L282.292 32.2843ZM286.328 26.1664C285.257 28.5639 281.798 26.7452 279.904 25.9184C280.233 24.2649 285.587 25.753 286.328 26.1664ZM199.429 22.2807L199.759 24.513L201.489 24.0995C204.289 23.6034 207.172 23.2729 210.22 22.8594C216.233 22.1154 222.575 21.454 229 21.0406C241.932 20.2966 255.605 19.6352 268.372 22.0326C269.772 21.8674 269.278 20.6272 270.925 20.7099C273.973 21.0406 276.279 21.7847 278.668 22.4461C278.339 24.5956 272.243 23.3554 268.29 23.4382C268.207 24.4302 268.125 25.4224 269.607 25.5877C257.087 25.9184 234.436 25.8357 215.986 30.8789C211.785 30.3829 207.749 29.804 205.36 28.0679C201.653 28.8946 206.431 30.2175 205.772 31.5403C202.559 32.2017 199.594 29.4733 198.029 31.7056C194.24 31.7056 196.464 30.8788 196.382 29.1427C190.039 31.1269 185.509 32.6976 181.308 32.863C180.402 35.3432 185.427 33.2764 187.898 33.2764C184.274 36.3353 175.295 36.8314 171.424 35.922C169.942 33.4418 176.531 30.3827 169.2 31.2922C174.389 27.9025 189.875 30.3827 192.099 26.9105C182.05 26.6624 165.246 31.9536 159.316 28.6467C172.495 23.2729 184.768 25.4223 199.265 22.2807L199.429 22.2807ZM140.618 39.0635C140.783 40.3036 142.513 40.1384 142.513 41.4612C137.735 43.4454 138.23 40.3864 133.452 42.3706C134.358 40.8824 138.559 40.221 140.618 39.0635ZM106.765 51.7955C122.003 49.3979 135.1 45.4295 150.667 42.2878C150.173 41.0477 146.384 42.9493 145.396 42.2052C145.066 40.0557 152.727 38.9809 153.056 41.1304C156.268 39.1462 156.433 38.4849 154.539 35.9221C160.304 37.4101 161.458 39.2289 159.481 40.7998C157.422 42.4532 152.15 43.6933 144.901 45.2642C146.219 46.0082 149.102 45.2642 151.409 45.0161C152.479 47.0003 145.89 47.0003 145.725 48.6538C143.995 48.9018 144.243 47.1657 143.831 46.2563C132.052 50.0593 131.228 50.6379 118.379 54.441C115.99 52.3741 112.201 56.0945 108.906 54.1103C105.776 55.5984 113.107 54.6063 109.813 56.7559C100.999 58.5747 101.246 56.5906 92.5151 60.9723C93.0093 62.8738 100.011 57.3347 99.187 60.7243C93.3388 61.7164 89.2204 63.8658 85.1843 66.6768C84.1959 65.2713 84.443 64.1139 85.1843 62.9565C81.9719 63.9485 81.6425 65.354 82.6309 66.9248C76.8651 69.9011 74.8883 68.4957 72.0877 67.9169C76.5356 60.8069 99.8459 57.252 107.012 51.7955L106.765 51.7955ZM-7.72738 82.7156C-7.56265 86.3533 -12.7519 86.684 -15.6348 89.9909C-16.7055 87.7587 -10.1161 85.1132 -7.72738 82.7156ZM-44.0519 90.4869C-41.9103 85.3612 -42.0751 91.4791 -38.698 88.7508C-38.5332 89.7429 -41.2514 91.0657 -42.8987 92.2232C-43.3929 91.3137 -43.8048 90.487 -45.205 91.2311C-45.4521 90.4043 -44.299 90.1563 -44.0519 90.4869ZM-39.9334 101.152L-44.3814 103.963L-45.6169 102.227C-43.3106 101.069 -40.6748 99.3331 -39.9334 101.069L-39.9334 101.152ZM-45.1227 105.286C-44.2166 106.774 -47.8408 109.006 -50.6414 111.156L-51.8769 109.502C-49.3235 107.518 -46.8524 105.616 -45.1227 105.368L-45.1227 105.286ZM-43.2282 108.675C-36.3092 103.88 -29.2256 99.4158 -25.6837 96.3569C-26.0956 99.2505 -32.0261 103.715 -39.1098 108.593C-46.1111 113.553 -53.9361 119.506 -59.1253 123.805C-56.2425 119.506 -49.7353 113.967 -43.1458 108.758L-43.2282 108.675ZM-92.2375 119.175C-89.8488 120.746 -89.437 120.663 -90.0959 123.722C-92.6493 123.887 -96.603 122.73 -92.2375 119.175ZM-96.1912 124.962C-95.038 124.962 -93.3082 123.557 -92.6493 124.879C-93.8848 125.293 -95.1204 125.706 -94.7909 126.533C-96.0264 127.36 -96.3559 126.12 -97.7562 127.277C-97.5915 126.368 -97.4267 125.458 -98.0857 124.797C-96.7678 123.887 -94.6262 123.557 -96.1912 124.962ZM-115.054 134.552C-114.724 135.544 -117.195 137.281 -118.595 138.769C-117.854 139.182 -116.371 137.529 -115.054 136.454C-113.241 136.454 -116.454 140.918 -113.159 138.521C-113.406 140.174 -118.76 140.588 -120.572 140.67C-117.195 137.198 -119.419 136.95 -115.054 134.552ZM-138.94 175.641L-140.505 174.236L-135.975 169.276C-134.081 170.35 -137.87 173.492 -138.94 175.641ZM-146.354 167.126C-147.177 170.35 -145.036 167.87 -142.565 165.059C-141.576 168.201 -148.495 170.929 -151.296 173.74C-152.367 172.582 -147.672 169.193 -146.354 167.209L-146.354 167.126ZM-150.39 185.232C-149.484 179.279 -147.919 173.823 -138.94 168.366C-139.847 172.252 -148.083 177.626 -145.2 182.586C-153.52 190.192 -158.626 197.715 -163.157 200.774C-163.074 195.235 -155.579 187.299 -150.39 185.232ZM-174.194 212.68C-169.582 207.471 -167.028 206.231 -165.134 200.94L-162.415 203.089C-167.852 208.132 -172.053 216.979 -178.395 222.931C-178.395 218.963 -173.123 216.317 -174.277 212.68L-174.194 212.68ZM-229.052 298.909C-226.745 298.909 -228.228 301.885 -225.839 301.968C-227.898 303.29 -229.711 310.318 -231.852 308.003C-230.37 310.814 -235.394 315.94 -237.618 320.156C-233.417 312.219 -232.923 304.365 -229.052 298.909ZM-229.958 275.512C-228.969 276.173 -227.816 275.512 -226.745 274.107C-225.51 275.016 -227.157 277.744 -228.969 280.638C-228.969 277.909 -230.699 280.886 -230.781 278.158C-232.346 280.224 -234.076 285.764 -235.476 283.449C-233.747 282.374 -231.852 278.571 -230.04 275.429L-229.958 275.512ZM-237.288 290.311C-237.041 294.527 -239.101 295.354 -241.489 298.991C-241.736 294.775 -239.677 293.948 -237.288 290.311ZM-242.148 340.081C-241.736 341.486 -242.066 343.718 -243.301 346.777C-245.278 346.364 -244.043 341.403 -242.148 340.081ZM-240.995 358.93C-240.913 362.485 -242.807 363.643 -243.878 369.099C-245.855 368.355 -242.56 360.418 -240.995 358.93ZM-247.914 387.039C-249.808 385.221 -246.02 382.079 -246.267 377.945C-243.384 377.78 -247.502 384.063 -247.914 387.039ZM-247.584 365.048C-246.843 370.009 -247.832 372.323 -249.067 379.847C-249.479 377.697 -248.326 370.753 -251.291 377.78C-253.597 375.134 -248.82 369.761 -247.502 365.048L-247.584 365.048ZM-257.551 422.341C-254.833 409.527 -256.068 404.649 -255.821 398.449C-255.245 395.472 -253.515 397.539 -252.774 395.224C-256.48 396.464 -253.927 386.791 -252.197 380.343C-249.973 381.5 -248.738 381.5 -248.655 382.823C-249.891 383.898 -250.879 388.445 -250.55 390.512C-247.996 387.37 -249.397 394.894 -247.749 395.39C-248.902 397.87 -249.561 397.787 -250.138 396.051C-251.044 405.807 -255.739 417.05 -256.48 426.723C-257.222 426.392 -257.469 424.16 -258.539 426.31C-255.657 424.904 -259.198 430.691 -257.386 430.526C-256.48 429.121 -255.904 429.534 -255.574 430.691C-256.563 433.668 -257.551 436.644 -258.375 439.703C-260.928 440.612 -257.139 434.164 -258.951 434.164C-260.022 439.868 -264.964 448.549 -262.493 450.699C-261.011 445.077 -261.093 442.679 -258.457 440.034C-258.457 440.199 -258.539 440.364 -258.622 440.53C-259.775 445.49 -260.681 450.616 -261.422 455.907C-262.493 455.907 -263.399 456.403 -264.305 457.147L-264.305 456.982C-266.2 454.171 -265.788 450.533 -264.964 446.813C-264.058 443.093 -262.576 439.372 -262.987 435.983C-261.258 433.006 -260.352 433.337 -259.363 432.676C-261.175 430.113 -258.951 418.125 -258.045 415.562C-255.739 415.479 -258.951 421.515 -257.551 422.424L-257.551 422.341ZM-257.469 357.359C-259.693 361.741 -258.21 364.056 -260.681 366.288C-264.058 366.867 -259.775 354.879 -257.469 357.359ZM-260.928 369.099C-263.811 371.083 -266.2 376.457 -269.412 376.457C-266.941 371.662 -264.388 366.95 -260.928 369.099ZM-292.228 599.182C-292.805 601.248 -292.887 593.477 -293.628 588.434C-290.581 589.757 -291.24 595.875 -292.228 599.182Z" fill="url(#paint0_linear_5345_6053)"/>
<defs>
<linearGradient id="paint0_linear_5345_6053" x1="447.412" y1="631.343" x2="254.315" y2="-5.40797" gradientUnits="userSpaceOnUse">
<stop stop-color="white" stop-opacity="0"/>
<stop offset="0.60639" stop-color="white" stop-opacity="0.38"/>
</linearGradient>
</defs>
</svg>
