<svg width="9" height="35" viewBox="0 0 9 35" fill="none" xmlns="http://www.w3.org/2000/svg">
<g id="Vector 510">
<path id="Vector 509" d="M4.5 26.9102C2.29086 26.9102 0.500001 28.701 0.500001 30.9102C0.500001 33.1193 2.29086 34.9102 4.5 34.9102C6.70914 34.9102 8.5 33.1193 8.5 30.9102C8.5 28.701 6.70914 26.9102 4.5 26.9102ZM3.75 3.27835e-08L3.75 2.57585L5.25 2.57585L5.25 -3.27835e-08L3.75 3.27835e-08ZM3.75 7.72754L3.75 12.8792L5.25 12.8792L5.25 7.72754L3.75 7.72754ZM3.75 18.0309L3.75 23.1826L5.25 23.1826L5.25 18.0309L3.75 18.0309ZM3.75 28.3343L3.75 30.9102L5.25 30.9102L5.25 28.3343L3.75 28.3343Z" fill="#2A8400"/>
</g>
</svg>
